{
.appVersion = "1277";
DisplayStrings = (

glyphs = (
{
color = 5;
glyphname = .notdef;
lastChange = "2019-12-11 07:54:21 +0000";
layers = (
{
layerId = "47F7128E-F1A6-4572-9BDC-88462FF34A66";
paths = (
{
closed = 1;
nodes = (
"466 -87 LINE",
"466 837 LINE",
"34 837 LINE",
"34 -87 LINE"
);
},
{
closed = 1;
nodes = (
"367 -23 OFFCURVE",
"419 9 OFFCURVE",
"419 75 CURVE SMOOTH",
"419 104 LINE SMOOTH",
"419 129 OFFCURVE",
"402 135 OFFCURVE",
"393 135 CURVE SMOOTH",
"356 135 LINE SMOOTH",
"341 135 OFFCURVE",
"322 132 OFFCURVE",
"322 109 CURVE SMOOTH",
"322 71 LINE SMOOTH",
"322 47 OFFCURVE",
"293 36 OFFCURVE",
"257 36 CURVE SMOOTH",
"225 36 OFFCURVE",
"176 40 OFFCURVE",
"176 82 CURVE SMOOTH",
"176 109 LINE SMOOTH",
"176 132 OFFCURVE",
"156 135 OFFCURVE",
"141 135 CURVE SMOOTH",
"104 135 LINE SMOOTH",
"95 135 OFFCURVE",
"78 129 OFFCURVE",
"78 104 CURVE SMOOTH",
"78 55 LINE SMOOTH",
"78 -10 OFFCURVE",
"171 -23 OFFCURVE",
"257 -23 CURVE SMOOTH"
);
},
{
closed = 1;
nodes = (
"152 163 LINE SMOOTH",
"168 163 OFFCURVE",
"181 177 OFFCURVE",
"181 200 CURVE SMOOTH",
"181 327 LINE",
"154 294 LINE",
"379 294 LINE SMOOTH",
"405 294 OFFCURVE",
"417 294 OFFCURVE",
"417 318 CURVE SMOOTH",
"417 342 OFFCURVE",
"408 354 OFFCURVE",
"379 354 CURVE SMOOTH",
"101 354 LINE SMOOTH",
"85 354 OFFCURVE",
"82 349 OFFCURVE",
"82 326 CURVE SMOOTH",
"82 200 LINE SMOOTH",
"82 178 OFFCURVE",
"87 163 OFFCURVE",
"105 163 CURVE SMOOTH"
);
},
{
closed = 1;
nodes = (
"361 216 LINE SMOOTH",
"377 216 OFFCURVE",
"389 228 OFFCURVE",
"389 244 CURVE SMOOTH",
"389 260 OFFCURVE",
"377 272 OFFCURVE",
"361 272 CURVE SMOOTH",
"168 272 LINE SMOOTH",
"152 272 OFFCURVE",
"139 260 OFFCURVE",
"139 244 CURVE SMOOTH",
"139 228 OFFCURVE",
"152 216 OFFCURVE",
"168 216 CURVE SMOOTH"
);
},
{
closed = 1;
nodes = (
"45 827 LINE",
"455 827 LINE",
"455 -77 LINE",
"45 -77 LINE"
);
},
{
closed = 1;
nodes = (
"354 370 OFFCURVE",
"424 388 OFFCURVE",
"424 474 CURVE SMOOTH",
"424 563 OFFCURVE",
"406 572 OFFCURVE",
"261 572 CURVE SMOOTH",
"127 572 OFFCURVE",
"73 556 OFFCURVE",
"73 474 CURVE SMOOTH",
"73 406 OFFCURVE",
"127 370 OFFCURVE",
"222 370 CURVE SMOOTH"
);
},
{
closed = 1;
nodes = (
"196 422 OFFCURVE",
"161 424 OFFCURVE",
"161 474 CURVE SMOOTH",
"161 517 OFFCURVE",
"189 525 OFFCURVE",
"266 525 CURVE SMOOTH",
"309 525 OFFCURVE",
"340 512 OFFCURVE",
"340 474 CURVE SMOOTH",
"340 436 OFFCURVE",
"316 422 OFFCURVE",
"272 422 CURVE SMOOTH"
);
},
{
closed = 1;
nodes = (
"272 595 LINE SMOOTH",
"288 595 OFFCURVE",
"301 610 OFFCURVE",
"301 629 CURVE SMOOTH",
"301 695 LINE SMOOTH",
"301 714 OFFCURVE",
"288 729 OFFCURVE",
"272 729 CURVE SMOOTH",
"236 729 LINE SMOOTH",
"220 729 OFFCURVE",
"207 714 OFFCURVE",
"207 695 CURVE SMOOTH",
"207 629 LINE SMOOTH",
"207 610 OFFCURVE",
"220 595 OFFCURVE",
"236 595 CURVE SMOOTH"
);
},
{
closed = 1;
nodes = (
"402 688 LINE SMOOTH",
"418 688 OFFCURVE",
"431 703 OFFCURVE",
"431 722 CURVE SMOOTH",
"431 741 OFFCURVE",
"418 755 OFFCURVE",
"402 755 CURVE SMOOTH",
"105 755 LINE SMOOTH",
"89 755 OFFCURVE",
"76 741 OFFCURVE",
"76 722 CURVE SMOOTH",
"76 703 OFFCURVE",
"89 688 OFFCURVE",
"105 688 CURVE SMOOTH"
);
}
);
width = 500;
}
);
},
{
color = 5;
glyphname = A;
lastChange = "2019-12-11 06:40:48 +0000";
layers = (
{
layerId = "47F7128E-F1A6-4572-9BDC-88462FF34A66";
paths = (
{
closed = 1;
nodes = (
"217 756 LINE SMOOTH",
"204 756 OFFCURVE",
"199 745 OFFCURVE",
"194 724 CURVE SMOOTH",
"188 704 OFFCURVE",
"39 49 OFFCURVE",
"32 26 CURVE SMOOTH",
"24 0 OFFCURVE",
"25 -24 OFFCURVE",
"44 -24 CURVE SMOOTH",
"105 -24 LINE SMOOTH",
"124 -24 OFFCURVE",
"135 -6 OFFCURVE",
"140 12 CURVE SMOOTH",
"144 30 OFFCURVE",
"292 720 OFFCURVE",
"297 731 CURVE SMOOTH",
"301 742 OFFCURVE",
"295 756 OFFCURVE",
"282 756 CURVE SMOOTH"
);
},
{
closed = 1;
nodes = (
"214 756 OFFCURVE",
"208 742 OFFCURVE",
"212 731 CURVE SMOOTH",
"216 720 OFFCURVE",
"365 30 OFFCURVE",
"369 12 CURVE SMOOTH",
"373 -6 OFFCURVE",
"385 -24 OFFCURVE",
"404 -24 CURVE SMOOTH",
"465 -24 LINE SMOOTH",
"484 -24 OFFCURVE",
"485 0 OFFCURVE",
"477 26 CURVE SMOOTH",
"470 49 OFFCURVE",
"321 704 OFFCURVE",
"315 724 CURVE SMOOTH",
"309 745 OFFCURVE",
"305 756 OFFCURVE",
"292 756 CURVE SMOOTH",
"227 756 LINE SMOOTH"
);
},
{
closed = 1;
nodes = (
"116 188 OFFCURVE",
"135 176 OFFCURVE",
"159 176 CURVE SMOOTH",
"351 176 LINE SMOOTH",
"375 176 OFFCURVE",
"394 188 OFFCURVE",
"394 204 CURVE SMOOTH",
"394 220 OFFCURVE",
"375 231 OFFCURVE",
"351 231 CURVE SMOOTH",
"159 231 LINE SMOOTH",
"135 231 OFFCURVE",
"116 220 OFFCURVE",
"116 204 CURVE SMOOTH"
);
}
);
userData = {
assembly = "SVTCA[0]\011/* SetFreedomAndProjectionVectorToAxis */
IUP[0]\011/* InterpolateUntPts */
IUP[1]\011/* InterpolateUntPts */";
};
width = 500;
}
);
note = uni0041;
unicode = 0041;
},
{
color = 5;
glyphname = AE;
lastChange = "2019-12-11 06:40:48 +0000";
layers = (
{
components = (
{
name = E;
transform = "{1, 0, 0, 1, 287, 0}";
}
);
layerId = "47F7128E-F1A6-4572-9BDC-88462FF34A66";
paths = (
{
closed = 1;
nodes = (
"356 754 LINE SMOOTH",
"343 754 OFFCURVE",
"336 743 OFFCURVE",
"327 722 CURVE SMOOTH",
"318 702 OFFCURVE",
"53 48 OFFCURVE",
"42 25 CURVE SMOOTH",
"29 -1 OFFCURVE",
"26 -25 OFFCURVE",
"45 -25 CURVE SMOOTH",
"106 -25 LINE SMOOTH",
"125 -25 OFFCURVE",
"139 -7 OFFCURVE",
"148 11 CURVE SMOOTH",
"157 28 OFFCURVE",
"424 718 OFFCURVE",
"431 729 CURVE SMOOTH",
"438 740 OFFCURVE",
"434 754 OFFCURVE",
"421 754 CURVE SMOOTH"
);
},
{
closed = 1;
nodes = (
"146 188 OFFCURVE",
"165 176 OFFCURVE",
"189 176 CURVE SMOOTH",
"381 176 LINE SMOOTH",
"405 176 OFFCURVE",
"424 188 OFFCURVE",
"424 204 CURVE SMOOTH",
"424 220 OFFCURVE",
"405 231 OFFCURVE",
"381 231 CURVE SMOOTH",
"189 231 LINE SMOOTH",
"165 231 OFFCURVE",
"146 220 OFFCURVE",
"146 204 CURVE SMOOTH"
);
}
);
width = 769;
}
);
unicode = 00C6;
},
{
color = 5;
glyphname = B;
lastChange = "2019-12-11 06:40:48 +0000";
layers = (
{
layerId = "47F7128E-F1A6-4572-9BDC-88462FF34A66";
paths = (
{
closed = 1;
nodes = (
"60 8 LINE SMOOTH",
"60 -11 OFFCURVE",
"75 -26 OFFCURVE",
"94 -26 CURVE SMOOTH",
"143 -26 LINE SMOOTH",
"162 -26 OFFCURVE",
"178 -11 OFFCURVE",
"178 8 CURVE SMOOTH",
"178 721 LINE SMOOTH",
"178 740 OFFCURVE",
"162 755 OFFCURVE",
"143 755 CURVE SMOOTH",
"94 755 LINE SMOOTH",
"75 755 OFFCURVE",
"60 740 OFFCURVE",
"60 721 CURVE SMOOTH"
);
},
{
closed = 1;
nodes = (
"240 756 OFFCURVE",
"147 756 OFFCURVE",
"137 756 CURVE SMOOTH",
"127 756 OFFCURVE",
"118 744 OFFCURVE",
"118 728 CURVE SMOOTH",
"118 712 OFFCURVE",
"149 699 OFFCURVE",
"235 699 CURVE SMOOTH",
"321 699 OFFCURVE",
"353 646 OFFCURVE",
"353 571 CURVE SMOOTH",
"353 496 OFFCURVE",
"307 413 OFFCURVE",
"229 413 CURVE SMOOTH",
"151 413 OFFCURVE",
"126 401 OFFCURVE",
"126 382 CURVE SMOOTH",
"126 363 OFFCURVE",
"133 339 OFFCURVE",
"228 339 CURVE SMOOTH",
"323 339 OFFCURVE",
"353 227 OFFCURVE",
"353 180 CURVE SMOOTH",
"353 98 OFFCURVE",
"310 16 OFFCURVE",
"217 16 CURVE SMOOTH",
"97 16 OFFCURVE",
"93 8 OFFCURVE",
"93 0 CURVE SMOOTH",
"93 -8 OFFCURVE",
"96 -27 OFFCURVE",
"215 -27 CURVE SMOOTH",
"284 -27 OFFCURVE",
"468 -20 OFFCURVE",
"468 183 CURVE SMOOTH",
"468 386 OFFCURVE",
"274 391 OFFCURVE",
"229 391 CURVE SMOOTH",
"184 391 OFFCURVE",
"183 368 OFFCURVE",
"228 368 CURVE SMOOTH",
"273 368 OFFCURVE",
"471 347 OFFCURVE",
"471 557 CURVE SMOOTH",
"471 760 OFFCURVE",
"297 756 OFFCURVE",
"282 756 CURVE"
);
}
);
userData = {
assembly = "SVTCA[0]\011/* SetFreedomAndProjectionVectorToAxis */
IUP[0]\011/* InterpolateUntPts */
IUP[1]\011/* InterpolateUntPts */";
};
width = 500;
}
);
note = uni0042;
unicode = 0042;
},
{
color = 5;
glyphname = C;
lastChange = "2019-12-11 06:40:48 +0000";
layers = (
{
layerId = "47F7128E-F1A6-4572-9BDC-88462FF34A66";
paths = (
{
closed = 1;
nodes = (
"319 -37 OFFCURVE",
"450 7 OFFCURVE",
"450 89 CURVE SMOOTH",
"450 125 OFFCURVE",
"439 132 OFFCURVE",
"406 132 CURVE SMOOTH",
"384 132 OFFCURVE",
"336 128 OFFCURVE",
"336 89 CURVE SMOOTH",
"336 62 OFFCURVE",
"304 29 OFFCURVE",
"275 29 CURVE SMOOTH",
"171 29 OFFCURVE",
"145 165 OFFCURVE",
"145 341 CURVE SMOOTH",
"145 464 OFFCURVE",
"196 691 OFFCURVE",
"257 691 CURVE SMOOTH",
"282 691 OFFCURVE",
"339 609 OFFCURVE",
"339 569 CURVE SMOOTH",
"339 522 OFFCURVE",
"363 512 OFFCURVE",
"409 512 CURVE SMOOTH",
"444 512 OFFCURVE",
"464 519 OFFCURVE",
"464 550 CURVE SMOOTH",
"464 610 OFFCURVE",
"347 765 OFFCURVE",
"255 765 CURVE SMOOTH",
"86 765 OFFCURVE",
"35 530 OFFCURVE",
"35 321 CURVE SMOOTH",
"35 22 OFFCURVE",
"125 -37 OFFCURVE",
"268 -37 CURVE SMOOTH"
);
}
);
userData = {
assembly = "SVTCA[0]\011/* SetFreedomAndProjectionVectorToAxis */
PUSHB[ ]\011/* 8 values pushed */
60 70 29 0 60 73 27 0 
CALL[ ]\011/* CallFunction */
CALL[ ]\011/* CallFunction */
IUP[0]\011/* InterpolateUntPts */
IUP[1]\011/* InterpolateUntPts */";
};
width = 500;
}
);
note = uni0043;
unicode = 0043;
},
{
color = 5;
glyphname = D;
lastChange = "2019-12-11 06:40:48 +0000";
layers = (
{
layerId = "47F7128E-F1A6-4572-9BDC-88462FF34A66";
paths = (
{
closed = 1;
nodes = (
"308 17 OFFCURVE",
"179 17 CURVE SMOOTH",
"166 17 OFFCURVE",
"165 42 OFFCURVE",
"165 76 CURVE SMOOTH",
"165 193 OFFCURVE",
"165 550 OFFCURVE",
"165 667 CURVE SMOOTH",
"165 685 OFFCURVE",
"169 695 OFFCURVE",
"194 695 CURVE SMOOTH",
"307 695 OFFCURVE",
"352 505 OFFCURVE",
"352 366 CURVE SMOOTH",
"352 169 OFFCURVE"
);
},
{
closed = 1;
nodes = (
"62 -25 OFFCURVE",
"114 -25 CURVE SMOOTH",
"414 -25 OFFCURVE",
"461 88 OFFCURVE",
"461 366 CURVE SMOOTH",
"461 611 OFFCURVE",
"369 757 OFFCURVE",
"98 757 CURVE SMOOTH",
"66 757 OFFCURVE",
"52 741 OFFCURVE",
"52 721 CURVE SMOOTH",
"52 560 OFFCURVE",
"52 37 OFFCURVE",
"52 27 CURVE SMOOTH",
"52 -9 OFFCURVE"
);
}
);
userData = {
assembly = "PUSHB[ ]\011/* 5 values pushed */
95 112 6 7 4 
CALL[ ]\011/* CallFunction */
SVTCA[0]\011/* SetFreedomAndProjectionVectorToAxis */
IUP[0]\011/* InterpolateUntPts */
IUP[1]\011/* InterpolateUntPts */";
};
width = 500;
}
);
note = uni0044;
unicode = 0044;
},
{
color = 5;
glyphname = Eth;
lastChange = "2019-12-11 06:40:48 +0000";
layers = (
{
components = (
{
name = D;
transform = "{1, 0, 0, 1, 59, 0}";
}
);
layerId = "47F7128E-F1A6-4572-9BDC-88462FF34A66";
paths = (
{
closed = 1;
nodes = (
"44 385 LINE SMOOTH",
"44 366 OFFCURVE",
"59 351 OFFCURVE",
"78 351 CURVE SMOOTH",
"315 351 LINE SMOOTH",
"334 351 OFFCURVE",
"349 366 OFFCURVE",
"349 385 CURVE SMOOTH",
"349 385 LINE SMOOTH",
"349 404 OFFCURVE",
"334 419 OFFCURVE",
"315 419 CURVE SMOOTH",
"78 419 LINE SMOOTH",
"59 419 OFFCURVE",
"44 404 OFFCURVE",
"44 385 CURVE SMOOTH"
);
}
);
width = 577;
}
);
unicode = 00D0;
},
{
color = 5;
glyphname = E;
lastChange = "2019-12-11 06:40:48 +0000";
layers = (
{
layerId = "47F7128E-F1A6-4572-9BDC-88462FF34A66";
paths = (
{
closed = 1;
nodes = (
"84 754 LINE SMOOTH",
"65 754 OFFCURVE",
"61 749 OFFCURVE",
"61 726 CURVE SMOOTH",
"61 12 LINE SMOOTH",
"61 -11 OFFCURVE",
"68 -27 OFFCURVE",
"89 -27 CURVE SMOOTH",
"402 -27 LINE SMOOTH",
"419 -27 OFFCURVE",
"428 -13 OFFCURVE",
"428 5 CURVE SMOOTH",
"428 23 OFFCURVE",
"415 32 OFFCURVE",
"402 32 CURVE SMOOTH",
"164 32 LINE",
"188 11 LINE",
"188 727 LINE",
"157 694 LINE",
"402 694 LINE SMOOTH",
"433 694 OFFCURVE",
"447 694 OFFCURVE",
"447 718 CURVE SMOOTH",
"447 742 OFFCURVE",
"436 754 OFFCURVE",
"402 754 CURVE SMOOTH"
);
},
{
closed = 1;
nodes = (
"129 368 OFFCURVE",
"144 356 OFFCURVE",
"163 356 CURVE SMOOTH",
"400 356 LINE SMOOTH",
"419 356 OFFCURVE",
"434 368 OFFCURVE",
"434 384 CURVE SMOOTH",
"434 400 OFFCURVE",
"419 412 OFFCURVE",
"400 412 CURVE SMOOTH",
"163 412 LINE SMOOTH",
"144 412 OFFCURVE",
"129 400 OFFCURVE",
"129 384 CURVE SMOOTH"
);
}
);
userData = {
assembly = "SVTCA[0]\011/* SetFreedomAndProjectionVectorToAxis */
IUP[0]\011/* InterpolateUntPts */
IUP[1]\011/* InterpolateUntPts */";
};
width = 500;
}
);
note = uni0045;
unicode = 0045;
},
{
color = 5;
glyphname = F;
lastChange = "2019-12-11 06:40:48 +0000";
layers = (
{
layerId = "47F7128E-F1A6-4572-9BDC-88462FF34A66";
paths = (
{
closed = 1;
nodes = (
"74 754 LINE SMOOTH",
"55 754 OFFCURVE",
"51 749 OFFCURVE",
"51 726 CURVE SMOOTH",
"51 10 LINE SMOOTH",
"51 -12 OFFCURVE",
"58 -27 OFFCURVE",
"79 -27 CURVE SMOOTH",
"134 -27 LINE SMOOTH",
"153 -27 OFFCURVE",
"168 -13 OFFCURVE",
"168 10 CURVE SMOOTH",
"168 727 LINE",
"137 694 LINE",
"402 694 LINE SMOOTH",
"433 694 OFFCURVE",
"447 694 OFFCURVE",
"447 718 CURVE SMOOTH",
"447 742 OFFCURVE",
"436 754 OFFCURVE",
"402 754 CURVE SMOOTH"
);
},
{
closed = 1;
nodes = (
"119 368 OFFCURVE",
"134 356 OFFCURVE",
"153 356 CURVE SMOOTH",
"380 356 LINE SMOOTH",
"399 356 OFFCURVE",
"414 368 OFFCURVE",
"414 384 CURVE SMOOTH",
"414 400 OFFCURVE",
"399 412 OFFCURVE",
"380 412 CURVE SMOOTH",
"153 412 LINE SMOOTH",
"134 412 OFFCURVE",
"119 400 OFFCURVE",
"119 384 CURVE SMOOTH"
);
}
);
userData = {
assembly = "PUSHB[ ]\011/* 6 values pushed */
108 125 16 11 12 8 
CALL[ ]\011/* CallFunction */
SVTCA[0]\011/* SetFreedomAndProjectionVectorToAxis */
IUP[0]\011/* InterpolateUntPts */
IUP[1]\011/* InterpolateUntPts */";
};
width = 468;
}
);
note = uni0046;
unicode = 0046;
},
{
color = 5;
glyphname = G;
lastChange = "2019-12-11 06:40:48 +0000";
layers = (
{
layerId = "47F7128E-F1A6-4572-9BDC-88462FF34A66";
paths = (
{
closed = 1;
nodes = (
"240 295 LINE SMOOTH",
"221 295 OFFCURVE",
"206 283 OFFCURVE",
"206 266 CURVE SMOOTH",
"206 249 OFFCURVE",
"221 236 OFFCURVE",
"240 236 CURVE SMOOTH",
"344 236 LINE",
"344 124 OFFCURVE",
"310 37 OFFCURVE",
"269 37 CURVE SMOOTH",
"180 37 OFFCURVE",
"145 199 OFFCURVE",
"145 347 CURVE SMOOTH",
"145 456 OFFCURVE",
"178 688 OFFCURVE",
"269 688 CURVE SMOOTH",
"292 688 OFFCURVE",
"344 617 OFFCURVE",
"344 560 CURVE SMOOTH",
"344 542 OFFCURVE",
"359 529 OFFCURVE",
"376 529 CURVE SMOOTH",
"423 529 LINE SMOOTH",
"443 529 OFFCURVE",
"457 545 OFFCURVE",
"457 566 CURVE SMOOTH",
"457 652 OFFCURVE",
"349 752 OFFCURVE",
"263 752 CURVE SMOOTH",
"104 752 OFFCURVE",
"41 567 OFFCURVE",
"41 347 CURVE SMOOTH",
"41 174 OFFCURVE",
"104 -25 OFFCURVE",
"217 -25 CURVE SMOOTH",
"366 -25 OFFCURVE",
"455 64 OFFCURVE",
"455 266 CURVE SMOOTH",
"455 286 OFFCURVE",
"444 295 OFFCURVE",
"420 295 CURVE SMOOTH"
);
}
);
userData = {
assembly = "SVTCA[0]\011/* SetFreedomAndProjectionVectorToAxis */
IUP[0]\011/* InterpolateUntPts */
IUP[1]\011/* InterpolateUntPts */";
};
width = 500;
}
);
note = uni0047;
unicode = 0047;
},
{
color = 5;
glyphname = H;
lastChange = "2019-12-11 06:40:48 +0000";
layers = (
{
layerId = "47F7128E-F1A6-4572-9BDC-88462FF34A66";
paths = (
{
closed = 1;
nodes = (
"76 759 LINE SMOOTH",
"62 759 OFFCURVE",
"49 744 OFFCURVE",
"49 721 CURVE SMOOTH",
"49 21 LINE SMOOTH",
"49 0 OFFCURVE",
"50 -30 OFFCURVE",
"69 -30 CURVE SMOOTH",
"138 -30 LINE SMOOTH",
"152 -30 OFFCURVE",
"165 -15 OFFCURVE",
"165 17 CURVE SMOOTH",
"165 728 LINE SMOOTH",
"165 750 OFFCURVE",
"163 759 OFFCURVE",
"141 759 CURVE SMOOTH"
);
},
{
closed = 1;
nodes = (
"366 759 LINE SMOOTH",
"352 759 OFFCURVE",
"339 744 OFFCURVE",
"339 721 CURVE SMOOTH",
"339 21 LINE SMOOTH",
"339 0 OFFCURVE",
"340 -30 OFFCURVE",
"359 -30 CURVE SMOOTH",
"428 -30 LINE SMOOTH",
"442 -30 OFFCURVE",
"455 -13 OFFCURVE",
"455 17 CURVE SMOOTH",
"455 728 LINE SMOOTH",
"455 750 OFFCURVE",
"453 759 OFFCURVE",
"431 759 CURVE SMOOTH"
);
},
{
closed = 1;
nodes = (
"108 327 OFFCURVE",
"123 315 OFFCURVE",
"142 315 CURVE SMOOTH",
"358 315 LINE SMOOTH",
"377 315 OFFCURVE",
"392 327 OFFCURVE",
"392 343 CURVE SMOOTH",
"392 359 OFFCURVE",
"377 371 OFFCURVE",
"358 371 CURVE SMOOTH",
"142 371 LINE SMOOTH",
"123 371 OFFCURVE",
"108 359 OFFCURVE",
"108 343 CURVE SMOOTH"
);
}
);
userData = {
assembly = "NPUSHB[ ]\011/* 10 values pushed */
63 121 51 0 28 27 26 122 12 2 
CALL[ ]\011/* CallFunction */
CALL[ ]\011/* CallFunction */
SVTCA[0]\011/* SetFreedomAndProjectionVectorToAxis */
IUP[0]\011/* InterpolateUntPts */
IUP[1]\011/* InterpolateUntPts */";
};
width = 500;
}
);
note = uni0048;
unicode = 0048;
},
{
color = 5;
glyphname = I;
lastChange = "2019-12-11 06:40:48 +0000";
layers = (
{
layerId = "47F7128E-F1A6-4572-9BDC-88462FF34A66";
paths = (
{
closed = 1;
nodes = (
"117 753 LINE SMOOTH",
"60 753 OFFCURVE",
"55 750 OFFCURVE",
"55 726 CURVE SMOOTH",
"55 705 OFFCURVE",
"59 697 OFFCURVE",
"75 697 CURVE SMOOTH",
"91 697 OFFCURVE",
"100 697 OFFCURVE",
"110 697 CURVE SMOOTH",
"120 697 OFFCURVE",
"127 688 OFFCURVE",
"127 656 CURVE SMOOTH",
"127 624 OFFCURVE",
"127 94 OFFCURVE",
"127 69 CURVE SMOOTH",
"127 44 OFFCURVE",
"122 28 OFFCURVE",
"110 28 CURVE SMOOTH",
"98 28 OFFCURVE",
"83 28 OFFCURVE",
"70 28 CURVE SMOOTH",
"57 28 OFFCURVE",
"44 23 OFFCURVE",
"44 6 CURVE SMOOTH",
"44 -11 OFFCURVE",
"52 -21 OFFCURVE",
"67 -21 CURVE SMOOTH",
"214 -21 LINE",
"214 753 LINE"
);
},
{
closed = 1;
nodes = (
"144 -21 LINE",
"291 -21 LINE SMOOTH",
"306 -21 OFFCURVE",
"314 -11 OFFCURVE",
"314 6 CURVE SMOOTH",
"314 23 OFFCURVE",
"301 28 OFFCURVE",
"288 28 CURVE SMOOTH",
"275 28 OFFCURVE",
"260 28 OFFCURVE",
"248 28 CURVE SMOOTH",
"236 28 OFFCURVE",
"231 44 OFFCURVE",
"231 69 CURVE SMOOTH",
"231 94 OFFCURVE",
"231 624 OFFCURVE",
"231 656 CURVE SMOOTH",
"231 688 OFFCURVE",
"238 697 OFFCURVE",
"248 697 CURVE SMOOTH",
"258 697 OFFCURVE",
"267 697 OFFCURVE",
"283 697 CURVE SMOOTH",
"299 697 OFFCURVE",
"303 705 OFFCURVE",
"303 726 CURVE SMOOTH",
"303 750 OFFCURVE",
"298 753 OFFCURVE",
"241 753 CURVE SMOOTH",
"144 753 LINE"
);
}
);
userData = {
assembly = "SVTCA[0]\011/* SetFreedomAndProjectionVectorToAxis */
IUP[0]\011/* InterpolateUntPts */
IUP[1]\011/* InterpolateUntPts */";
};
width = 360;
}
);
note = uni0049;
unicode = 0049;
},
{
color = 5;
glyphname = J;
lastChange = "2019-12-11 06:40:48 +0000";
layers = (
{
layerId = "47F7128E-F1A6-4572-9BDC-88462FF34A66";
paths = (
{
closed = 1;
nodes = (
"131 -28 OFFCURVE",
"265 -28 CURVE SMOOTH",
"367 -28 OFFCURVE",
"440 24 OFFCURVE",
"440 118 CURVE SMOOTH",
"440 217 OFFCURVE",
"440 541 OFFCURVE",
"440 673 CURVE SMOOTH",
"440 723 OFFCURVE",
"432 746 OFFCURVE",
"414 746 CURVE SMOOTH",
"402 746 OFFCURVE",
"386 746 OFFCURVE",
"363 746 CURVE SMOOTH",
"336 746 OFFCURVE",
"321 746 OFFCURVE",
"321 711 CURVE SMOOTH",
"321 602 OFFCURVE",
"321 433 OFFCURVE",
"321 338 CURVE SMOOTH",
"321 206 OFFCURVE",
"319 24 OFFCURVE",
"240 24 CURVE SMOOTH",
"178 24 OFFCURVE",
"148 94 OFFCURVE",
"148 171 CURVE SMOOTH",
"148 217 OFFCURVE",
"137 232 OFFCURVE",
"86 225 CURVE SMOOTH",
"47 218 OFFCURVE",
"37 209 OFFCURVE",
"37 181 CURVE SMOOTH",
"37 -5 OFFCURVE"
);
}
);
userData = {
assembly = "NPUSHB[ ]\011/* 13 values pushed */
69 127 55 0 77 119 48 0 77 121 45 46 4 
CALL[ ]\011/* CallFunction */
CALL[ ]\011/* CallFunction */
CALL[ ]\011/* CallFunction */
SVTCA[0]\011/* SetFreedomAndProjectionVectorToAxis */
IUP[0]\011/* InterpolateUntPts */
IUP[1]\011/* InterpolateUntPts */";
};
width = 500;
}
);
note = uni004A;
unicode = 004A;
},
{
color = 5;
glyphname = K;
lastChange = "2019-12-11 06:40:48 +0000";
layers = (
{
layerId = "47F7128E-F1A6-4572-9BDC-88462FF34A66";
paths = (
{
closed = 1;
nodes = (
"49 9 LINE SMOOTH",
"49 -10 OFFCURVE",
"63 -25 OFFCURVE",
"80 -25 CURVE SMOOTH",
"125 -25 LINE SMOOTH",
"143 -25 OFFCURVE",
"157 -10 OFFCURVE",
"157 9 CURVE SMOOTH",
"157 721 LINE SMOOTH",
"157 740 OFFCURVE",
"143 755 OFFCURVE",
"125 755 CURVE SMOOTH",
"80 755 LINE SMOOTH",
"63 755 OFFCURVE",
"49 740 OFFCURVE",
"49 721 CURVE SMOOTH"
);
},
{
closed = 1;
nodes = (
"428 724 OFFCURVE",
"380 724 OFFCURVE",
"362 724 CURVE SMOOTH",
"354 724 OFFCURVE",
"346 717 OFFCURVE",
"326 687 CURVE SMOOTH",
"317 674 OFFCURVE",
"153 444 OFFCURVE",
"141 428 CURVE",
"141 258 LINE",
"245 399 OFFCURVE",
"441 662 OFFCURVE",
"454 681 CURVE SMOOTH",
"467 700 OFFCURVE",
"481 724 OFFCURVE",
"455 724 CURVE"
);
},
{
closed = 1;
nodes = (
"451 -22 OFFCURVE",
"437 3 OFFCURVE",
"424 23 CURVE SMOOTH",
"411 44 OFFCURVE",
"215 322 OFFCURVE",
"111 471 CURVE",
"111 291 LINE",
"123 274 OFFCURVE",
"287 31 OFFCURVE",
"296 17 CURVE SMOOTH",
"317 -15 OFFCURVE",
"324 -22 OFFCURVE",
"332 -22 CURVE SMOOTH",
"350 -22 OFFCURVE",
"398 -22 OFFCURVE",
"425 -22 CURVE"
);
}
);
userData = {
assembly = "PUSHB[ ]\011/* 5 values pushed */
32 123 18 19 4 
CALL[ ]\011/* CallFunction */
SVTCA[0]\011/* SetFreedomAndProjectionVectorToAxis */
IUP[0]\011/* InterpolateUntPts */
IUP[1]\011/* InterpolateUntPts */";
};
width = 500;
}
);
note = uni004B;
unicode = 004B;
},
{
color = 5;
glyphname = L;
lastChange = "2019-12-11 06:40:48 +0000";
layers = (
{
layerId = "47F7128E-F1A6-4572-9BDC-88462FF34A66";
paths = (
{
closed = 1;
nodes = (
"131 753 OFFCURVE",
"95 753 OFFCURVE",
"75 753 CURVE SMOOTH",
"59 753 OFFCURVE",
"52 739 OFFCURVE",
"52 709 CURVE SMOOTH",
"52 683 OFFCURVE",
"52 60 OFFCURVE",
"52 30 CURVE SMOOTH",
"52 -3 OFFCURVE",
"64 -18 OFFCURVE",
"90 -18 CURVE SMOOTH",
"113 -18 OFFCURVE",
"355 -18 OFFCURVE",
"380 -18 CURVE SMOOTH",
"410 -18 OFFCURVE",
"424 -13 OFFCURVE",
"424 -1 CURVE SMOOTH",
"424 20 OFFCURVE",
"411 30 OFFCURVE",
"382 30 CURVE SMOOTH",
"351 30 OFFCURVE",
"232 30 OFFCURVE",
"204 30 CURVE SMOOTH",
"179 30 OFFCURVE",
"168 45 OFFCURVE",
"168 78 CURVE SMOOTH",
"168 109 OFFCURVE",
"168 682 OFFCURVE",
"168 712 CURVE SMOOTH",
"168 740 OFFCURVE",
"163 753 OFFCURVE",
"153 753 CURVE"
);
}
);
userData = {
assembly = "SVTCA[0]\011/* SetFreedomAndProjectionVectorToAxis */
PUSHB[ ]\011/* 4 values pushed */
70 61 58 0 
CALL[ ]\011/* CallFunction */
IUP[0]\011/* InterpolateUntPts */
IUP[1]\011/* InterpolateUntPts */";
};
width = 463;
}
);
note = uni004C;
unicode = 004C;
},
{
color = 5;
glyphname = M;
lastChange = "2019-12-11 07:02:33 +0000";
layers = (
{
layerId = "47F7128E-F1A6-4572-9BDC-88462FF34A66";
paths = (
{
closed = 1;
nodes = (
"132 746 OFFCURVE",
"105 746 OFFCURVE",
"88 746 CURVE SMOOTH",
"67 746 OFFCURVE",
"58 735 OFFCURVE",
"58 710 CURVE SMOOTH",
"58 635 OFFCURVE",
"58 46 OFFCURVE",
"58 19 CURVE SMOOTH",
"58 -9 OFFCURVE",
"66 -20 OFFCURVE",
"82 -20 CURVE SMOOTH",
"100 -20 OFFCURVE",
"113 -20 OFFCURVE",
"128 -20 CURVE SMOOTH",
"143 -20 OFFCURVE",
"163 -3 OFFCURVE",
"163 24 CURVE SMOOTH",
"163 51 OFFCURVE",
"163 261 OFFCURVE",
"163 291 CURVE SMOOTH",
"163 321 OFFCURVE",
"177 319 OFFCURVE",
"181 294 CURVE SMOOTH",
"183 282 OFFCURVE",
"201 184 OFFCURVE",
"205 163 CURVE SMOOTH",
"208 142 OFFCURVE",
"213 130 OFFCURVE",
"224 130 CURVE SMOOTH",
"234 130 OFFCURVE",
"269 130 OFFCURVE",
"278 130 CURVE SMOOTH",
"287 130 OFFCURVE",
"301 149 OFFCURVE",
"289 191 CURVE SMOOTH",
"278 233 OFFCURVE",
"193 659 OFFCURVE",
"186 695 CURVE SMOOTH",
"178 731 OFFCURVE",
"172 746 OFFCURVE",
"157 746 CURVE"
);
},
{
closed = 1;
nodes = (
"333 746 OFFCURVE",
"326 731 OFFCURVE",
"319 695 CURVE SMOOTH",
"311 659 OFFCURVE",
"226 233 OFFCURVE",
"215 191 CURVE SMOOTH",
"204 149 OFFCURVE",
"217 130 OFFCURVE",
"226 130 CURVE SMOOTH",
"236 130 OFFCURVE",
"271 130 OFFCURVE",
"281 130 CURVE SMOOTH",
"291 130 OFFCURVE",
"296 142 OFFCURVE",
"300 163 CURVE SMOOTH",
"303 184 OFFCURVE",
"321 282 OFFCURVE",
"323 294 CURVE SMOOTH",
"327 319 OFFCURVE",
"341 321 OFFCURVE",
"341 291 CURVE SMOOTH",
"341 261 OFFCURVE",
"341 51 OFFCURVE",
"341 24 CURVE SMOOTH",
"341 -3 OFFCURVE",
"362 -20 OFFCURVE",
"377 -20 CURVE SMOOTH",
"392 -20 OFFCURVE",
"404 -20 OFFCURVE",
"422 -20 CURVE SMOOTH",
"439 -20 OFFCURVE",
"446 -9 OFFCURVE",
"446 19 CURVE SMOOTH",
"446 46 OFFCURVE",
"446 635 OFFCURVE",
"446 710 CURVE SMOOTH",
"446 735 OFFCURVE",
"437 746 OFFCURVE",
"416 746 CURVE SMOOTH",
"399 746 OFFCURVE",
"372 746 OFFCURVE",
"348 746 CURVE"
);
}
);
userData = {
assembly = "SVTCA[0]\011/* SetFreedomAndProjectionVectorToAxis */
IUP[0]\011/* InterpolateUntPts */
IUP[1]\011/* InterpolateUntPts */";
};
width = 500;
}
);
note = uni004D;
unicode = 004D;
},
{
color = 5;
glyphname = N;
lastChange = "2019-12-11 06:40:48 +0000";
layers = (
{
layerId = "47F7128E-F1A6-4572-9BDC-88462FF34A66";
paths = (
{
closed = 1;
nodes = (
"143 755 OFFCURVE",
"80 755 OFFCURVE",
"63 755 CURVE SMOOTH",
"46 755 OFFCURVE",
"43 723 OFFCURVE",
"43 703 CURVE SMOOTH",
"43 683 OFFCURVE",
"43 30 OFFCURVE",
"43 15 CURVE SMOOTH",
"43 0 OFFCURVE",
"49 -17 OFFCURVE",
"58 -17 CURVE SMOOTH",
"67 -17 OFFCURVE",
"124 -17 OFFCURVE",
"140 -17 CURVE SMOOTH",
"156 -17 OFFCURVE",
"164 -2 OFFCURVE",
"164 21 CURVE SMOOTH",
"164 44 OFFCURVE",
"164 392 OFFCURVE",
"164 417 CURVE SMOOTH",
"164 442 OFFCURVE",
"178 440 OFFCURVE",
"186 419 CURVE SMOOTH",
"194 398 OFFCURVE",
"329 5 OFFCURVE",
"334 -7 CURVE SMOOTH",
"339 -19 OFFCURVE",
"346 -25 OFFCURVE",
"358 -25 CURVE SMOOTH",
"370 -25 OFFCURVE",
"421 -25 OFFCURVE",
"434 -25 CURVE SMOOTH",
"447 -25 OFFCURVE",
"452 -18 OFFCURVE",
"452 2 CURVE SMOOTH",
"452 22 OFFCURVE",
"452 692 OFFCURVE",
"452 713 CURVE SMOOTH",
"452 734 OFFCURVE",
"447 748 OFFCURVE",
"427 748 CURVE SMOOTH",
"407 748 OFFCURVE",
"371 748 OFFCURVE",
"355 748 CURVE SMOOTH",
"339 748 OFFCURVE",
"329 735 OFFCURVE",
"329 713 CURVE SMOOTH",
"329 691 OFFCURVE",
"333 452 OFFCURVE",
"333 428 CURVE SMOOTH",
"333 404 OFFCURVE",
"319 403 OFFCURVE",
"310 426 CURVE SMOOTH",
"297 459 OFFCURVE",
"201 708 OFFCURVE",
"196 730 CURVE SMOOTH",
"191 752 OFFCURVE",
"184 755 OFFCURVE",
"170 755 CURVE"
);
}
);
userData = {
assembly = "SVTCA[0]\011/* SetFreedomAndProjectionVectorToAxis */
IUP[0]\011/* InterpolateUntPts */
IUP[1]\011/* InterpolateUntPts */";
};
width = 500;
}
);
note = uni004E;
unicode = 004E;
},
{
color = 5;
glyphname = O;
lastChange = "2019-12-11 06:40:48 +0000";
layers = (
{
layerId = "47F7128E-F1A6-4572-9BDC-88462FF34A66";
paths = (
{
closed = 1;
nodes = (
"186 46 OFFCURVE",
"145 199 OFFCURVE",
"145 347 CURVE SMOOTH",
"145 456 OFFCURVE",
"178 688 OFFCURVE",
"269 688 CURVE SMOOTH",
"319 688 OFFCURVE",
"356 450 OFFCURVE",
"356 347 CURVE SMOOTH",
"356 185 OFFCURVE",
"328 46 OFFCURVE",
"275 46 CURVE SMOOTH"
);
},
{
closed = 1;
nodes = (
"455 -25 OFFCURVE",
"455 96 OFFCURVE",
"455 347 CURVE SMOOTH",
"455 555 OFFCURVE",
"434 752 OFFCURVE",
"263 752 CURVE SMOOTH",
"104 752 OFFCURVE",
"41 567 OFFCURVE",
"41 347 CURVE SMOOTH",
"41 174 OFFCURVE",
"104 -25 OFFCURVE",
"217 -25 CURVE SMOOTH"
);
}
);
userData = {
assembly = "SVTCA[0]\011/* SetFreedomAndProjectionVectorToAxis */
IUP[0]\011/* InterpolateUntPts */
IUP[1]\011/* InterpolateUntPts */";
};
width = 500;
}
);
note = uni004F;
unicode = 004F;
},
{
color = 5;
glyphname = Oslash;
lastChange = "2019-12-11 06:40:48 +0000";
layers = (
{
components = (
{
name = O;
}
);
layerId = "47F7128E-F1A6-4572-9BDC-88462FF34A66";
paths = (
{
closed = 1;
nodes = (
"415 850 OFFCURVE",
"388 850 OFFCURVE",
"376 850 CURVE SMOOTH",
"364 850 OFFCURVE",
"344 834 OFFCURVE",
"338 814 CURVE SMOOTH",
"332 794 OFFCURVE",
"50 -42 OFFCURVE",
"45 -56 CURVE SMOOTH",
"40 -70 OFFCURVE",
"37 -105 OFFCURVE",
"54 -105 CURVE SMOOTH",
"71 -105 OFFCURVE",
"92 -105 OFFCURVE",
"102 -105 CURVE SMOOTH",
"112 -105 OFFCURVE",
"129 -94 OFFCURVE",
"141 -67 CURVE SMOOTH",
"153 -40 OFFCURVE",
"433 766 OFFCURVE",
"442 788 CURVE SMOOTH",
"451 810 OFFCURVE",
"459 850 OFFCURVE",
"440 850 CURVE"
);
}
);
width = 489;
}
);
unicode = 00D8;
},
{
color = 5;
glyphname = P;
lastChange = "2019-12-11 06:40:48 +0000";
layers = (
{
layerId = "47F7128E-F1A6-4572-9BDC-88462FF34A66";
paths = (
{
closed = 1;
nodes = (
"134 697 LINE",
"147 697 OFFCURVE",
"163 697 OFFCURVE",
"207 697 CURVE SMOOTH",
"266 697 OFFCURVE",
"338 659 OFFCURVE",
"338 525 CURVE SMOOTH",
"338 403 OFFCURVE",
"279 340 OFFCURVE",
"204 340 CURVE SMOOTH",
"128 340 LINE",
"128 292 LINE",
"153 292 OFFCURVE",
"165 292 OFFCURVE",
"204 292 CURVE SMOOTH",
"296 292 OFFCURVE",
"458 299 OFFCURVE",
"458 529 CURVE SMOOTH",
"458 710 OFFCURVE",
"346 743 OFFCURVE",
"206 743 CURVE SMOOTH",
"128 743 LINE",
"89 743 LINE SMOOTH",
"70 743 OFFCURVE",
"55 727 OFFCURVE",
"55 708 CURVE SMOOTH",
"55 34 LINE SMOOTH",
"55 15 OFFCURVE",
"70 0 OFFCURVE",
"89 0 CURVE SMOOTH",
"128 0 LINE SMOOTH",
"147 0 OFFCURVE",
"162 15 OFFCURVE",
"162 34 CURVE SMOOTH",
"162 712 LINE"
);
}
);
userData = {
assembly = "PUSHB[ ]\011/* 8 values pushed */
104 103 102 101 120 13 12 7 
CALL[ ]\011/* CallFunction */
SVTCA[0]\011/* SetFreedomAndProjectionVectorToAxis */
IUP[0]\011/* InterpolateUntPts */
IUP[1]\011/* InterpolateUntPts */";
};
width = 500;
}
);
note = uni0050;
unicode = 0050;
},
{
color = 5;
glyphname = Thorn;
lastChange = "2019-12-11 07:18:47 +0000";
layers = (
{
layerId = "47F7128E-F1A6-4572-9BDC-88462FF34A66";
paths = (
{
closed = 1;
nodes = (
"77 34 LINE SMOOTH",
"77 15 OFFCURVE",
"92 0 OFFCURVE",
"111 0 CURVE SMOOTH",
"155 0 LINE SMOOTH",
"174 0 OFFCURVE",
"189 15 OFFCURVE",
"189 34 CURVE SMOOTH",
"189 708 LINE SMOOTH",
"189 727 OFFCURVE",
"174 742 OFFCURVE",
"155 742 CURVE SMOOTH",
"111 742 LINE SMOOTH",
"92 742 OFFCURVE",
"77 727 OFFCURVE",
"77 708 CURVE SMOOTH"
);
},
{
closed = 1;
nodes = (
"145 573 LINE",
"145 531 LINE",
"199 531 OFFCURVE",
"225 531 OFFCURVE",
"307 531 CURVE SMOOTH",
"389 531 OFFCURVE",
"419 476 OFFCURVE",
"419 374 CURVE SMOOTH",
"419 272 OFFCURVE",
"379 203 OFFCURVE",
"290 203 CURVE SMOOTH",
"143 203 LINE",
"143 158 LINE",
"192 158 OFFCURVE",
"201 158 OFFCURVE",
"291 158 CURVE SMOOTH",
"381 158 OFFCURVE",
"525 167 OFFCURVE",
"525 375 CURVE SMOOTH",
"525 553 OFFCURVE",
"327 573 OFFCURVE",
"297 573 CURVE"
);
}
);
width = 602;
}
);
unicode = 00DE;
},
{
color = 5;
glyphname = Q;
lastChange = "2019-12-11 06:40:48 +0000";
layers = (
{
layerId = "47F7128E-F1A6-4572-9BDC-88462FF34A66";
paths = (
{
closed = 1;
nodes = (
"176 46 OFFCURVE",
"135 199 OFFCURVE",
"135 347 CURVE SMOOTH",
"135 456 OFFCURVE",
"168 688 OFFCURVE",
"259 688 CURVE SMOOTH",
"309 688 OFFCURVE",
"346 450 OFFCURVE",
"346 347 CURVE SMOOTH",
"346 185 OFFCURVE",
"318 46 OFFCURVE",
"265 46 CURVE SMOOTH"
);
},
{
closed = 1;
nodes = (
"445 -25 OFFCURVE",
"445 96 OFFCURVE",
"445 347 CURVE SMOOTH",
"445 555 OFFCURVE",
"424 752 OFFCURVE",
"253 752 CURVE SMOOTH",
"94 752 OFFCURVE",
"31 567 OFFCURVE",
"31 347 CURVE SMOOTH",
"31 174 OFFCURVE",
"94 -25 OFFCURVE",
"207 -25 CURVE SMOOTH"
);
},
{
closed = 1;
nodes = (
"235 324 OFFCURVE",
"209 324 OFFCURVE",
"193 324 CURVE SMOOTH",
"178 324 OFFCURVE",
"167 293 OFFCURVE",
"177 275 CURVE SMOOTH",
"187 257 OFFCURVE",
"331 4 OFFCURVE",
"342 -12 CURVE SMOOTH",
"353 -28 OFFCURVE",
"359 -36 OFFCURVE",
"374 -36 CURVE SMOOTH",
"390 -36 OFFCURVE",
"417 -36 OFFCURVE",
"429 -36 CURVE SMOOTH",
"441 -36 OFFCURVE",
"441 2 OFFCURVE",
"428 21 CURVE SMOOTH",
"415 40 OFFCURVE",
"292 278 OFFCURVE",
"284 297 CURVE SMOOTH",
"276 316 OFFCURVE",
"271 324 OFFCURVE",
"253 324 CURVE"
);
}
);
userData = {
assembly = "SVTCA[0]\011/* SetFreedomAndProjectionVectorToAxis */
IUP[0]\011/* InterpolateUntPts */
IUP[1]\011/* InterpolateUntPts */";
};
width = 500;
}
);
note = uni0051;
unicode = 0051;
},
{
color = 5;
glyphname = R;
lastChange = "2019-12-11 06:40:48 +0000";
layers = (
{
layerId = "47F7128E-F1A6-4572-9BDC-88462FF34A66";
paths = (
{
closed = 1;
nodes = (
"154 702 LINE",
"167 702 OFFCURVE",
"183 702 OFFCURVE",
"227 702 CURVE SMOOTH",
"286 702 OFFCURVE",
"338 668 OFFCURVE",
"338 547 CURVE SMOOTH",
"338 438 OFFCURVE",
"299 381 OFFCURVE",
"224 381 CURVE SMOOTH",
"148 381 LINE",
"148 338 LINE",
"173 338 OFFCURVE",
"185 338 OFFCURVE",
"224 338 CURVE SMOOTH",
"316 338 OFFCURVE",
"458 344 OFFCURVE",
"458 551 CURVE SMOOTH",
"458 713 OFFCURVE",
"366 743 OFFCURVE",
"226 743 CURVE SMOOTH",
"148 743 LINE",
"109 743 LINE SMOOTH",
"90 743 OFFCURVE",
"75 729 OFFCURVE",
"75 712 CURVE SMOOTH",
"75 34 LINE SMOOTH",
"75 15 OFFCURVE",
"90 0 OFFCURVE",
"109 0 CURVE SMOOTH",
"148 0 LINE SMOOTH",
"167 0 OFFCURVE",
"182 15 OFFCURVE",
"182 34 CURVE SMOOTH",
"182 715 LINE"
);
},
{
closed = 1;
nodes = (
"227 349 OFFCURVE",
"201 349 OFFCURVE",
"185 349 CURVE SMOOTH",
"170 349 OFFCURVE",
"159 319 OFFCURVE",
"169 302 CURVE SMOOTH",
"179 285 OFFCURVE",
"315 54 OFFCURVE",
"334 23 CURVE SMOOTH",
"344 7 OFFCURVE",
"351 0 OFFCURVE",
"366 0 CURVE SMOOTH",
"382 0 OFFCURVE",
"409 0 OFFCURVE",
"421 0 CURVE SMOOTH",
"433 0 OFFCURVE",
"435 28 OFFCURVE",
"420 54 CURVE SMOOTH",
"405 80 OFFCURVE",
"284 305 OFFCURVE",
"276 323 CURVE SMOOTH",
"268 341 OFFCURVE",
"263 349 OFFCURVE",
"245 349 CURVE"
);
}
);
userData = {
assembly = "PUSHB[ ]\011/* 8 values pushed */
40 115 103 0 126 108 11 0 
CALL[ ]\011/* CallFunction */
CALL[ ]\011/* CallFunction */
SVTCA[0]\011/* SetFreedomAndProjectionVectorToAxis */
IUP[0]\011/* InterpolateUntPts */
IUP[1]\011/* InterpolateUntPts */";
};
width = 500;
}
);
note = uni0052;
unicode = 0052;
},
{
color = 5;
glyphname = S;
lastChange = "2019-12-11 06:40:48 +0000";
layers = (
{
layerId = "47F7128E-F1A6-4572-9BDC-88462FF34A66";
paths = (
{
closed = 1;
nodes = (
"73 756 OFFCURVE",
"44 621 OFFCURVE",
"44 552 CURVE SMOOTH",
"44 444 OFFCURVE",
"66 382 OFFCURVE",
"250 340 CURVE SMOOTH",
"341 319 OFFCURVE",
"344 247 OFFCURVE",
"344 183 CURVE SMOOTH",
"344 119 OFFCURVE",
"330 22 OFFCURVE",
"262 22 CURVE SMOOTH",
"194 22 OFFCURVE",
"148 85 OFFCURVE",
"148 194 CURVE SMOOTH",
"148 226 OFFCURVE",
"136 228 OFFCURVE",
"115 223 CURVE SMOOTH",
"94 218 OFFCURVE",
"67 213 OFFCURVE",
"55 211 CURVE SMOOTH",
"43 209 OFFCURVE",
"38 200 OFFCURVE",
"38 179 CURVE SMOOTH",
"38 50 OFFCURVE",
"108 -31 OFFCURVE",
"255 -31 CURVE SMOOTH",
"402 -31 OFFCURVE",
"449 23 OFFCURVE",
"449 188 CURVE SMOOTH",
"449 353 OFFCURVE",
"394 353 OFFCURVE",
"269 406 CURVE SMOOTH",
"178 444 OFFCURVE",
"152 473 OFFCURVE",
"152 556 CURVE SMOOTH",
"152 639 OFFCURVE",
"205 697 OFFCURVE",
"243 697 CURVE SMOOTH",
"281 697 OFFCURVE",
"300 678 OFFCURVE",
"312 666 CURVE SMOOTH",
"324 654 OFFCURVE",
"338 639 OFFCURVE",
"355 636 CURVE SMOOTH",
"372 633 OFFCURVE",
"403 628 OFFCURVE",
"418 627 CURVE SMOOTH",
"433 626 OFFCURVE",
"441 639 OFFCURVE",
"441 650 CURVE SMOOTH",
"441 661 OFFCURVE",
"348 756 OFFCURVE",
"240 756 CURVE"
);
}
);
userData = {
assembly = "SVTCA[0]\011/* SetFreedomAndProjectionVectorToAxis */
IUP[0]\011/* InterpolateUntPts */
IUP[1]\011/* InterpolateUntPts */";
};
width = 482;
}
);
note = uni0053;
unicode = 0053;
},
{
color = 5;
glyphname = T;
lastChange = "2019-12-11 07:02:24 +0000";
layers = (
{
layerId = "47F7128E-F1A6-4572-9BDC-88462FF34A66";
paths = (
{
closed = 1;
nodes = (
"45 703 OFFCURVE",
"60 688 OFFCURVE",
"79 688 CURVE SMOOTH",
"429 688 LINE SMOOTH",
"448 688 OFFCURVE",
"463 703 OFFCURVE",
"463 722 CURVE SMOOTH",
"463 741 OFFCURVE",
"448 755 OFFCURVE",
"429 755 CURVE SMOOTH",
"79 755 LINE SMOOTH",
"60 755 OFFCURVE",
"45 741 OFFCURVE",
"45 722 CURVE SMOOTH"
);
},
{
closed = 1;
nodes = (
"199 14 LINE SMOOTH",
"199 -5 OFFCURVE",
"214 -20 OFFCURVE",
"233 -20 CURVE SMOOTH",
"276 -20 LINE SMOOTH",
"295 -20 OFFCURVE",
"310 -5 OFFCURVE",
"310 14 CURVE SMOOTH",
"310 695 LINE SMOOTH",
"310 714 OFFCURVE",
"295 729 OFFCURVE",
"276 729 CURVE SMOOTH",
"233 729 LINE SMOOTH",
"214 729 OFFCURVE",
"199 714 OFFCURVE",
"199 695 CURVE SMOOTH"
);
}
);
userData = {
assembly = "PUSHB[ ]\011/* 4 values pushed */
54 116 11 0 
CALL[ ]\011/* CallFunction */
SVTCA[0]\011/* SetFreedomAndProjectionVectorToAxis */
PUSHB[ ]\011/* 4 values pushed */
49 72 43 0 
CALL[ ]\011/* CallFunction */
IUP[0]\011/* InterpolateUntPts */
IUP[1]\011/* InterpolateUntPts */";
};
width = 500;
}
);
note = uni0054;
unicode = 0054;
},
{
color = 5;
glyphname = U;
lastChange = "2019-12-11 06:40:48 +0000";
layers = (
{
layerId = "47F7128E-F1A6-4572-9BDC-88462FF34A66";
paths = (
{
closed = 1;
nodes = (
"375 745 LINE SMOOTH",
"357 745 OFFCURVE",
"334 742 OFFCURVE",
"334 719 CURVE SMOOTH",
"334 131 LINE SMOOTH",
"334 87 OFFCURVE",
"300 36 OFFCURVE",
"258 36 CURVE SMOOTH",
"220 36 OFFCURVE",
"162 80 OFFCURVE",
"162 142 CURVE SMOOTH",
"162 719 LINE SMOOTH",
"162 742 OFFCURVE",
"139 745 OFFCURVE",
"121 745 CURVE SMOOTH",
"78 745 LINE SMOOTH",
"67 745 OFFCURVE",
"47 739 OFFCURVE",
"47 714 CURVE SMOOTH",
"47 115 LINE SMOOTH",
"47 30 OFFCURVE",
"157 -23 OFFCURVE",
"258 -23 CURVE SMOOTH",
"388 -23 OFFCURVE",
"449 49 OFFCURVE",
"449 135 CURVE SMOOTH",
"449 714 LINE SMOOTH",
"449 739 OFFCURVE",
"429 745 OFFCURVE",
"418 745 CURVE SMOOTH"
);
}
);
userData = {
assembly = "PUSHB[ ]\011/* 7 values pushed */
33 32 121 24 22 23 9 
CALL[ ]\011/* CallFunction */
SVTCA[0]\011/* SetFreedomAndProjectionVectorToAxis */
IUP[0]\011/* InterpolateUntPts */
IUP[1]\011/* InterpolateUntPts */";
};
width = 500;
}
);
note = uni0055;
unicode = 0055;
},
{
color = 5;
glyphname = V;
lastChange = "2019-12-11 06:40:48 +0000";
layers = (
{
layerId = "47F7128E-F1A6-4572-9BDC-88462FF34A66";
paths = (
{
closed = 1;
nodes = (
"42 758 OFFCURVE",
"38 744 OFFCURVE",
"45 703 CURVE SMOOTH",
"50 673 OFFCURVE",
"169 78 OFFCURVE",
"183 33 CURVE SMOOTH",
"197 -12 OFFCURVE",
"209 -22 OFFCURVE",
"231 -22 CURVE SMOOTH",
"253 -22 OFFCURVE",
"278 -22 OFFCURVE",
"304 -22 CURVE SMOOTH",
"330 -22 OFFCURVE",
"344 16 OFFCURVE",
"348 50 CURVE SMOOTH",
"352 84 OFFCURVE",
"457 661 OFFCURVE",
"464 708 CURVE SMOOTH",
"471 755 OFFCURVE",
"459 758 OFFCURVE",
"439 758 CURVE SMOOTH",
"419 758 OFFCURVE",
"412 758 OFFCURVE",
"394 758 CURVE SMOOTH",
"365 758 OFFCURVE",
"352 747 OFFCURVE",
"348 718 CURVE SMOOTH",
"252 158 LINE",
"272 158 LINE",
"160 719 LINE SMOOTH",
"154 748 OFFCURVE",
"145 760 OFFCURVE",
"128 760 CURVE SMOOTH",
"73 760 LINE SMOOTH"
);
}
);
userData = {
assembly = "SVTCA[0]\011/* SetFreedomAndProjectionVectorToAxis */
IUP[0]\011/* InterpolateUntPts */
IUP[1]\011/* InterpolateUntPts */";
};
width = 500;
}
);
note = uni0056;
unicode = 0056;
},
{
color = 5;
glyphname = W;
lastChange = "2019-12-11 06:40:48 +0000";
layers = (
{
layerId = "47F7128E-F1A6-4572-9BDC-88462FF34A66";
paths = (
{
closed = 1;
nodes = (
"408 760 LINE SMOOTH",
"388 760 OFFCURVE",
"388 742 OFFCURVE",
"384 719 CURVE SMOOTH",
"380 698 OFFCURVE",
"362 413 OFFCURVE",
"339 220 CURVE",
"302 551 LINE SMOOTH",
"299 577 OFFCURVE",
"295 591 OFFCURVE",
"277 591 CURVE SMOOTH",
"306 591 OFFCURVE",
"236 591 OFFCURVE",
"235 591 CURVE SMOOTH",
"218 591 OFFCURVE",
"213 581 OFFCURVE",
"210 551 CURVE SMOOTH",
"173 220 LINE",
"150 413 OFFCURVE",
"132 698 OFFCURVE",
"128 719 CURVE SMOOTH",
"124 742 OFFCURVE",
"124 760 OFFCURVE",
"104 760 CURVE SMOOTH",
"64 760 LINE",
"41 758 OFFCURVE",
"38 744 OFFCURVE",
"43 703 CURVE SMOOTH",
"47 673 OFFCURVE",
"105 78 OFFCURVE",
"115 33 CURVE SMOOTH",
"125 -12 OFFCURVE",
"134 -23 OFFCURVE",
"151 -22 CURVE SMOOTH",
"167 -21 OFFCURVE",
"185 -22 OFFCURVE",
"205 -22 CURVE SMOOTH",
"224 -22 OFFCURVE",
"234 16 OFFCURVE",
"237 50 CURVE SMOOTH",
"238 63 OFFCURVE",
"246 130 OFFCURVE",
"256 211 CURVE",
"266 130 OFFCURVE",
"274 63 OFFCURVE",
"275 50 CURVE SMOOTH",
"278 16 OFFCURVE",
"288 -22 OFFCURVE",
"307 -22 CURVE SMOOTH",
"327 -22 OFFCURVE",
"345 -21 OFFCURVE",
"361 -22 CURVE SMOOTH",
"378 -23 OFFCURVE",
"387 -12 OFFCURVE",
"397 33 CURVE SMOOTH",
"407 78 OFFCURVE",
"465 673 OFFCURVE",
"469 703 CURVE SMOOTH",
"474 744 OFFCURVE",
"471 760 OFFCURVE",
"448 760 CURVE SMOOTH"
);
}
);
userData = {
assembly = "SVTCA[0]\011/* SetFreedomAndProjectionVectorToAxis */
IUP[0]\011/* InterpolateUntPts */
IUP[1]\011/* InterpolateUntPts */";
};
width = 500;
}
);
note = uni0057;
unicode = 0057;
},
{
color = 5;
glyphname = X;
lastChange = "2019-12-11 06:40:48 +0000";
layers = (
{
layerId = "47F7128E-F1A6-4572-9BDC-88462FF34A66";
paths = (
{
closed = 1;
nodes = (
"80 753 LINE SMOOTH",
"56 753 OFFCURVE",
"46 738 OFFCURVE",
"54 715 CURVE SMOOTH",
"311 15 LINE SMOOTH",
"317 -3 OFFCURVE",
"330 -11 OFFCURVE",
"349 -11 CURVE SMOOTH",
"404 -11 LINE SMOOTH",
"428 -11 OFFCURVE",
"438 4 OFFCURVE",
"430 27 CURVE SMOOTH",
"175 727 LINE SMOOTH",
"169 745 OFFCURVE",
"156 753 OFFCURVE",
"137 753 CURVE SMOOTH"
);
},
{
closed = 1;
nodes = (
"358 753 OFFCURVE",
"345 745 OFFCURVE",
"339 727 CURVE SMOOTH",
"84 27 LINE SMOOTH",
"76 4 OFFCURVE",
"86 -11 OFFCURVE",
"110 -11 CURVE SMOOTH",
"165 -11 LINE SMOOTH",
"184 -11 OFFCURVE",
"196 -3 OFFCURVE",
"203 15 CURVE SMOOTH",
"460 715 LINE SMOOTH",
"468 738 OFFCURVE",
"458 753 OFFCURVE",
"434 753 CURVE SMOOTH",
"377 753 LINE SMOOTH"
);
}
);
userData = {
assembly = "SVTCA[0]\011/* SetFreedomAndProjectionVectorToAxis */
IUP[0]\011/* InterpolateUntPts */
IUP[1]\011/* InterpolateUntPts */";
};
width = 500;
}
);
note = uni0058;
unicode = 0058;
},
{
color = 5;
glyphname = Y;
lastChange = "2019-12-11 06:40:48 +0000";
layers = (
{
layerId = "47F7128E-F1A6-4572-9BDC-88462FF34A66";
paths = (
{
closed = 1;
nodes = (
"80 743 LINE SMOOTH",
"56 743 OFFCURVE",
"45 728 OFFCURVE",
"54 705 CURVE SMOOTH",
"204 312 LINE SMOOTH",
"211 295 OFFCURVE",
"219 286 OFFCURVE",
"233 286 CURVE SMOOTH",
"276 286 LINE SMOOTH",
"295 286 OFFCURVE",
"303 301 OFFCURVE",
"296 324 CURVE SMOOTH",
"175 717 LINE SMOOTH",
"169 735 OFFCURVE",
"156 743 OFFCURVE",
"137 743 CURVE SMOOTH"
);
},
{
closed = 1;
nodes = (
"363 743 OFFCURVE",
"350 735 OFFCURVE",
"344 717 CURVE SMOOTH",
"223 324 LINE SMOOTH",
"216 301 OFFCURVE",
"224 286 OFFCURVE",
"243 286 CURVE SMOOTH",
"286 286 LINE SMOOTH",
"300 286 OFFCURVE",
"308 295 OFFCURVE",
"315 312 CURVE SMOOTH",
"465 705 LINE SMOOTH",
"474 728 OFFCURVE",
"463 743 OFFCURVE",
"439 743 CURVE SMOOTH",
"382 743 LINE SMOOTH"
);
},
{
closed = 1;
nodes = (
"208 16 LINE SMOOTH",
"208 -8 OFFCURVE",
"220 -21 OFFCURVE",
"241 -21 CURVE SMOOTH",
"279 -21 LINE SMOOTH",
"300 -21 OFFCURVE",
"312 -8 OFFCURVE",
"312 16 CURVE SMOOTH",
"312 352 LINE SMOOTH",
"312 375 OFFCURVE",
"300 389 OFFCURVE",
"279 389 CURVE SMOOTH",
"241 389 LINE SMOOTH",
"220 389 OFFCURVE",
"208 375 OFFCURVE",
"208 352 CURVE SMOOTH"
);
}
);
userData = {
assembly = "SVTCA[0]\011/* SetFreedomAndProjectionVectorToAxis */
IUP[0]\011/* InterpolateUntPts */
IUP[1]\011/* InterpolateUntPts */";
};
width = 500;
}
);
note = uni0059;
unicode = 0059;
},
{
color = 5;
glyphname = Z;
lastChange = "2019-12-11 06:40:48 +0000";
layers = (
{
layerId = "47F7128E-F1A6-4572-9BDC-88462FF34A66";
paths = (
{
closed = 1;
nodes = (
"349 746 OFFCURVE",
"124 746 OFFCURVE",
"86 746 CURVE SMOOTH",
"48 746 OFFCURVE",
"50 737 OFFCURVE",
"50 720 CURVE SMOOTH",
"50 703 OFFCURVE",
"56 687 OFFCURVE",
"86 687 CURVE SMOOTH",
"116 687 OFFCURVE",
"256 683 OFFCURVE",
"275 683 CURVE SMOOTH",
"294 683 OFFCURVE",
"298 683 OFFCURVE",
"285 655 CURVE SMOOTH",
"272 627 OFFCURVE",
"47 46 OFFCURVE",
"35 23 CURVE SMOOTH",
"23 0 OFFCURVE",
"34 -25 OFFCURVE",
"62 -25 CURVE SMOOTH",
"90 -25 OFFCURVE",
"378 -24 OFFCURVE",
"408 -24 CURVE SMOOTH",
"438 -24 OFFCURVE",
"453 -17 OFFCURVE",
"453 9 CURVE SMOOTH",
"453 35 OFFCURVE",
"435 52 OFFCURVE",
"409 52 CURVE SMOOTH",
"383 52 OFFCURVE",
"220 52 OFFCURVE",
"193 52 CURVE SMOOTH",
"166 52 OFFCURVE",
"181 74 OFFCURVE",
"192 101 CURVE SMOOTH",
"208 140 OFFCURVE",
"419 652 OFFCURVE",
"435 688 CURVE SMOOTH",
"451 724 OFFCURVE",
"431 746 OFFCURVE",
"399 746 CURVE"
);
}
);
userData = {
assembly = "SVTCA[0]\011/* SetFreedomAndProjectionVectorToAxis */
IUP[0]\011/* InterpolateUntPts */
IUP[1]\011/* InterpolateUntPts */";
};
width = 500;
}
);
note = uni005A;
unicode = 005A;
},
{
color = 5;
glyphname = a;
lastChange = "2019-12-11 06:40:48 +0000";
layers = (
{
layerId = "47F7128E-F1A6-4572-9BDC-88462FF34A66";
paths = (
{
closed = 1;
nodes = (
"100 538 OFFCURVE",
"21 396 OFFCURVE",
"21 250 CURVE SMOOTH",
"21 104 OFFCURVE",
"40 -26 OFFCURVE",
"148 -26 CURVE SMOOTH",
"218 -26 OFFCURVE",
"275 23 OFFCURVE",
"287 35 CURVE SMOOTH",
"299 47 OFFCURVE",
"304 49 OFFCURVE",
"311 32 CURVE SMOOTH",
"318 15 OFFCURVE",
"322 3 OFFCURVE",
"326 -5 CURVE SMOOTH",
"330 -13 OFFCURVE",
"340 -28 OFFCURVE",
"353 -28 CURVE SMOOTH",
"366 -28 OFFCURVE",
"409 -28 OFFCURVE",
"426 -28 CURVE SMOOTH",
"443 -28 OFFCURVE",
"444 -5 OFFCURVE",
"437 18 CURVE SMOOTH",
"430 41 OFFCURVE",
"408 131 OFFCURVE",
"408 195 CURVE SMOOTH",
"408 259 OFFCURVE",
"414 300 OFFCURVE",
"418 318 CURVE SMOOTH",
"422 336 OFFCURVE",
"416 369 OFFCURVE",
"408 391 CURVE SMOOTH",
"391 438 OFFCURVE",
"337 538 OFFCURVE",
"218 538 CURVE"
);
},
{
closed = 1;
nodes = (
"244 471 OFFCURVE",
"293 438 OFFCURVE",
"293 355 CURVE SMOOTH",
"293 239 OFFCURVE",
"244 50 OFFCURVE",
"200 50 CURVE SMOOTH",
"156 50 OFFCURVE",
"135 124 OFFCURVE",
"135 245 CURVE SMOOTH",
"135 366 OFFCURVE",
"168 471 OFFCURVE",
"217 471 CURVE"
);
}
);
userData = {
assembly = "SVTCA[0]\011/* SetFreedomAndProjectionVectorToAxis */
IUP[0]\011/* InterpolateUntPts */
IUP[1]\011/* InterpolateUntPts */";
};
width = 474;
}
);
note = uni0061;
unicode = 0061;
},
{
color = 5;
glyphname = ae;
lastChange = "2019-12-11 06:40:48 +0000";
layers = (
{
components = (
{
name = e;
transform = "{1, 0, 0, 1, 271, 0}";
}
);
layerId = "47F7128E-F1A6-4572-9BDC-88462FF34A66";
paths = (
{
closed = 1;
nodes = (
"423 439 LINE",
"423 477 OFFCURVE",
"363 538 OFFCURVE",
"218 538 CURVE",
"100 538 OFFCURVE",
"21 416 OFFCURVE",
"21 270 CURVE SMOOTH",
"21 124 OFFCURVE",
"66 -16 OFFCURVE",
"188 -16 CURVE SMOOTH",
"324 -16 OFFCURVE",
"412 169 OFFCURVE",
"412 356 CURVE",
"308 332 LINE",
"308 169 OFFCURVE",
"234 75 OFFCURVE",
"191 75 CURVE SMOOTH",
"147 75 OFFCURVE",
"135 144 OFFCURVE",
"135 265 CURVE SMOOTH",
"135 386 OFFCURVE",
"168 471 OFFCURVE",
"217 471 CURVE",
"281 471 OFFCURVE",
"324 401 OFFCURVE",
"324 371 CURVE"
);
}
);
width = 771;
}
);
leftMetricsKey = a;
rightMetricsKey = e;
unicode = 00E6;
},
{
color = 5;
glyphname = b;
lastChange = "2019-12-11 06:40:48 +0000";
layers = (
{
layerId = "47F7128E-F1A6-4572-9BDC-88462FF34A66";
paths = (
{
closed = 1;
nodes = (
"45 11 LINE SMOOTH",
"45 -8 OFFCURVE",
"60 -23 OFFCURVE",
"79 -23 CURVE SMOOTH",
"124 -23 LINE SMOOTH",
"143 -23 OFFCURVE",
"158 -8 OFFCURVE",
"158 11 CURVE SMOOTH",
"158 728 LINE SMOOTH",
"158 747 OFFCURVE",
"143 762 OFFCURVE",
"124 762 CURVE SMOOTH",
"79 762 LINE SMOOTH",
"60 762 OFFCURVE",
"45 747 OFFCURVE",
"45 728 CURVE SMOOTH"
);
},
{
closed = 1;
nodes = (
"209 505 OFFCURVE",
"93 493 OFFCURVE",
"93 280 CURVE SMOOTH",
"93 112 OFFCURVE",
"120 -9 OFFCURVE",
"260 -9 CURVE SMOOTH",
"403 -9 OFFCURVE",
"448 80 OFFCURVE",
"448 260 CURVE SMOOTH",
"448 440 OFFCURVE",
"364 505 OFFCURVE",
"268 505 CURVE SMOOTH"
);
},
{
closed = 1;
nodes = (
"320 449 OFFCURVE",
"340 365 OFFCURVE",
"340 247 CURVE SMOOTH",
"340 129 OFFCURVE",
"308 46 OFFCURVE",
"269 46 CURVE SMOOTH",
"230 46 OFFCURVE",
"154 114 OFFCURVE",
"154 244 CURVE SMOOTH",
"154 374 OFFCURVE",
"238 449 OFFCURVE",
"268 449 CURVE"
);
}
);
userData = {
assembly = "SVTCA[0]\011/* SetFreedomAndProjectionVectorToAxis */
IUP[0]\011/* InterpolateUntPts */
IUP[1]\011/* InterpolateUntPts */";
};
width = 481;
}
);
note = uni0062;
unicode = 0062;
},
{
color = 5;
glyphname = c;
lastChange = "2019-12-11 06:40:48 +0000";
layers = (
{
layerId = "47F7128E-F1A6-4572-9BDC-88462FF34A66";
paths = (
{
closed = 1;
nodes = (
"136 526 OFFCURVE",
"41 462 OFFCURVE",
"41 249 CURVE SMOOTH",
"41 36 OFFCURVE",
"146 -27 OFFCURVE",
"230 -27 CURVE SMOOTH",
"356 -27 OFFCURVE",
"461 21 OFFCURVE",
"461 133 CURVE SMOOTH",
"461 182 OFFCURVE",
"441 193 OFFCURVE",
"428 193 CURVE SMOOTH",
"415 193 OFFCURVE",
"388 193 OFFCURVE",
"372 193 CURVE SMOOTH",
"356 193 OFFCURVE",
"338 185 OFFCURVE",
"338 160 CURVE SMOOTH",
"338 82 OFFCURVE",
"321 38 OFFCURVE",
"271 38 CURVE SMOOTH",
"221 38 OFFCURVE",
"148 101 OFFCURVE",
"148 258 CURVE SMOOTH",
"148 415 OFFCURVE",
"209 472 OFFCURVE",
"264 472 CURVE SMOOTH",
"304 472 OFFCURVE",
"334 415 OFFCURVE",
"334 371 CURVE SMOOTH",
"334 340 OFFCURVE",
"364 330 OFFCURVE",
"374 330 CURVE SMOOTH",
"384 330 OFFCURVE",
"417 330 OFFCURVE",
"428 330 CURVE SMOOTH",
"439 330 OFFCURVE",
"453 345 OFFCURVE",
"453 378 CURVE SMOOTH",
"453 409 OFFCURVE",
"406 526 OFFCURVE",
"255 526 CURVE"
);
}
);
userData = {
assembly = "SVTCA[0]\011/* SetFreedomAndProjectionVectorToAxis */
IUP[0]\011/* InterpolateUntPts */
IUP[1]\011/* InterpolateUntPts */";
};
width = 500;
}
);
note = uni0063;
unicode = 0063;
},
{
color = 5;
glyphname = d;
lastChange = "2019-12-11 06:40:48 +0000";
layers = (
{
layerId = "47F7128E-F1A6-4572-9BDC-88462FF34A66";
paths = (
{
closed = 1;
nodes = (
"436 751 OFFCURVE",
"421 766 OFFCURVE",
"402 766 CURVE SMOOTH",
"357 766 LINE SMOOTH",
"338 766 OFFCURVE",
"323 751 OFFCURVE",
"323 732 CURVE SMOOTH",
"323 15 LINE SMOOTH",
"323 -4 OFFCURVE",
"338 -19 OFFCURVE",
"357 -19 CURVE SMOOTH",
"402 -19 LINE SMOOTH",
"421 -19 OFFCURVE",
"436 -4 OFFCURVE",
"436 15 CURVE SMOOTH",
"436 732 LINE SMOOTH"
);
},
{
closed = 1;
nodes = (
"135 525 OFFCURVE",
"33 444 OFFCURVE",
"33 264 CURVE SMOOTH",
"33 84 OFFCURVE",
"90 -18 OFFCURVE",
"221 -18 CURVE SMOOTH",
"361 -18 OFFCURVE",
"408 116 OFFCURVE",
"408 284 CURVE SMOOTH",
"408 497 OFFCURVE",
"320 525 OFFCURVE",
"231 525 CURVE SMOOTH"
);
},
{
closed = 1;
nodes = (
"271 469 OFFCURVE",
"327 378 OFFCURVE",
"327 248 CURVE SMOOTH",
"327 118 OFFCURVE",
"261 37 OFFCURVE",
"222 37 CURVE SMOOTH",
"183 37 OFFCURVE",
"141 133 OFFCURVE",
"141 251 CURVE SMOOTH",
"141 369 OFFCURVE",
"189 469 OFFCURVE",
"241 469 CURVE"
);
}
);
userData = {
assembly = "SVTCA[0]\011/* SetFreedomAndProjectionVectorToAxis */
IUP[0]\011/* InterpolateUntPts */
IUP[1]\011/* InterpolateUntPts */";
};
width = 490;
}
);
note = uni0064;
unicode = 0064;
},
{
color = 5;
glyphname = eth;
lastChange = "2019-12-11 06:40:48 +0000";
layers = (
{
layerId = "47F7128E-F1A6-4572-9BDC-88462FF34A66";
paths = (
{
closed = 1;
nodes = (
"166 756 OFFCURVE",
"140 756 OFFCURVE",
"121 756 CURVE SMOOTH",
"102 756 OFFCURVE",
"78 755 OFFCURVE",
"78 740 CURVE SMOOTH",
"78 714 OFFCURVE",
"91 713 OFFCURVE",
"116 713 CURVE SMOOTH",
"211 713 OFFCURVE",
"337 516 OFFCURVE",
"337 295 CURVE SMOOTH",
"337 104 OFFCURVE",
"292 56 OFFCURVE",
"256 56 CURVE SMOOTH",
"220 56 OFFCURVE",
"176 103 OFFCURVE",
"176 183 CURVE SMOOTH",
"176 263 OFFCURVE",
"170 399 OFFCURVE",
"270 399 CURVE SMOOTH",
"352 399 OFFCURVE",
"367 338 OFFCURVE",
"367 194 CURVE",
"436 194 LINE",
"436 340 OFFCURVE",
"366 462 OFFCURVE",
"272 462 CURVE SMOOTH",
"107 462 OFFCURVE",
"54 349 OFFCURVE",
"54 183 CURVE SMOOTH",
"54 39 OFFCURVE",
"122 -7 OFFCURVE",
"258 -7 CURVE SMOOTH",
"420 -7 OFFCURVE",
"471 56 OFFCURVE",
"471 197 CURVE SMOOTH",
"471 640 OFFCURVE",
"334 756 OFFCURVE",
"199 756 CURVE"
);
},
{
closed = 1;
nodes = (
"431 739 OFFCURVE",
"401 739 OFFCURVE",
"387 739 CURVE SMOOTH",
"373 739 OFFCURVE",
"352 733 OFFCURVE",
"337 722 CURVE SMOOTH",
"322 711 OFFCURVE",
"84 544 OFFCURVE",
"70 534 CURVE SMOOTH",
"56 524 OFFCURVE",
"55 493 OFFCURVE",
"69 493 CURVE SMOOTH",
"83 493 OFFCURVE",
"102 493 OFFCURVE",
"110 493 CURVE SMOOTH",
"118 493 OFFCURVE",
"140 502 OFFCURVE",
"155 514 CURVE SMOOTH",
"170 526 OFFCURVE",
"426 682 OFFCURVE",
"449 697 CURVE SMOOTH",
"472 712 OFFCURVE",
"474 739 OFFCURVE",
"453 739 CURVE"
);
}
);
width = 500;
}
);
unicode = 00F0;
},
{
color = 5;
glyphname = e;
lastChange = "2019-12-11 06:40:48 +0000";
layers = (
{
layerId = "47F7128E-F1A6-4572-9BDC-88462FF34A66";
paths = (
{
closed = 1;
nodes = (
"130 532 OFFCURVE",
"23 449 OFFCURVE",
"23 253 CURVE SMOOTH",
"23 57 OFFCURVE",
"63 -29 OFFCURVE",
"256 -29 CURVE SMOOTH",
"449 -29 OFFCURVE",
"454 52 OFFCURVE",
"454 95 CURVE SMOOTH",
"454 112 OFFCURVE",
"448 130 OFFCURVE",
"433 130 CURVE SMOOTH",
"418 130 OFFCURVE",
"378 130 OFFCURVE",
"364 130 CURVE SMOOTH",
"350 130 OFFCURVE",
"333 113 OFFCURVE",
"333 100 CURVE SMOOTH",
"333 87 OFFCURVE",
"305 25 OFFCURVE",
"259 25 CURVE SMOOTH",
"213 25 OFFCURVE",
"145 89 OFFCURVE",
"145 237 CURVE SMOOTH",
"145 385 OFFCURVE",
"204 466 OFFCURVE",
"244 466 CURVE SMOOTH",
"284 466 OFFCURVE",
"328 343 OFFCURVE",
"328 291 CURVE",
"349 314 LINE",
"130 314 LINE",
"130 256 LINE",
"225.99 256 OFFCURVE",
"396 256 OFFCURVE",
"418 256 CURVE SMOOTH",
"440 256 OFFCURVE",
"458 266 OFFCURVE",
"458 305 CURVE SMOOTH",
"458 388 OFFCURVE",
"361 532 OFFCURVE",
"244 532 CURVE"
);
}
);
userData = {
assembly = "SVTCA[0]\011/* SetFreedomAndProjectionVectorToAxis */
IUP[0]\011/* InterpolateUntPts */
IUP[1]\011/* InterpolateUntPts */";
};
width = 500;
}
);
note = uni0065;
unicode = 0065;
},
{
color = 5;
glyphname = f;
lastChange = "2019-12-11 06:40:48 +0000";
layers = (
{
layerId = "47F7128E-F1A6-4572-9BDC-88462FF34A66";
paths = (
{
closed = 1;
nodes = (
"21 466 OFFCURVE",
"36 455 OFFCURVE",
"55 455 CURVE SMOOTH",
"403 455 LINE SMOOTH",
"422 455 OFFCURVE",
"437 467 OFFCURVE",
"437 482 CURVE SMOOTH",
"437 497 OFFCURVE",
"422 509 OFFCURVE",
"403 509 CURVE SMOOTH",
"55 509 LINE SMOOTH",
"36 509 OFFCURVE",
"21 497 OFFCURVE",
"21 482 CURVE SMOOTH"
);
},
{
closed = 1;
nodes = (
"160 755 OFFCURVE",
"128 712 OFFCURVE",
"128 638 CURVE SMOOTH",
"128 564 OFFCURVE",
"128 41 OFFCURVE",
"128 14 CURVE SMOOTH",
"128 -13 OFFCURVE",
"143 -26 OFFCURVE",
"160 -26 CURVE SMOOTH",
"177 -26 OFFCURVE",
"201 -26 OFFCURVE",
"218 -26 CURVE SMOOTH",
"235 -26 OFFCURVE",
"241 -11 OFFCURVE",
"241 15 CURVE SMOOTH",
"241 41 OFFCURVE",
"241 619 OFFCURVE",
"241 641 CURVE SMOOTH",
"241 663 OFFCURVE",
"250 681 OFFCURVE",
"264 681 CURVE SMOOTH",
"278 681 OFFCURVE",
"300 642 OFFCURVE",
"308 622 CURVE SMOOTH",
"316 602 OFFCURVE",
"328 591 OFFCURVE",
"343 591 CURVE",
"358 591 OFFCURVE",
"387 591 OFFCURVE",
"394 591 CURVE SMOOTH",
"401 591 OFFCURVE",
"410 606 OFFCURVE",
"410 626 CURVE SMOOTH",
"410 674 OFFCURVE",
"333 755 OFFCURVE",
"252 755 CURVE"
);
}
);
userData = {
assembly = "SVTCA[0]\011/* SetFreedomAndProjectionVectorToAxis */
IUP[0]\011/* InterpolateUntPts */
IUP[1]\011/* InterpolateUntPts */";
};
width = 458;
}
);
note = uni0066;
unicode = 0066;
},
{
color = 5;
glyphname = g;
lastChange = "2019-12-11 06:40:48 +0000";
layers = (
{
layerId = "47F7128E-F1A6-4572-9BDC-88462FF34A66";
paths = (
{
closed = 1;
nodes = (
"133 525 OFFCURVE",
"43 467 OFFCURVE",
"43 306 CURVE SMOOTH",
"43 145 OFFCURVE",
"104 66 OFFCURVE",
"243 66 CURVE SMOOTH",
"393 66 OFFCURVE",
"443 174 OFFCURVE",
"443 324 CURVE SMOOTH",
"443 514 OFFCURVE",
"330 525 OFFCURVE",
"235 525 CURVE SMOOTH"
);
},
{
closed = 1;
nodes = (
"278 467 OFFCURVE",
"357 403 OFFCURVE",
"357 293 CURVE SMOOTH",
"357 183 OFFCURVE",
"286 124 OFFCURVE",
"245 124 CURVE SMOOTH",
"203 124 OFFCURVE",
"158 194 OFFCURVE",
"158 296 CURVE SMOOTH",
"158 396 OFFCURVE",
"190 467 OFFCURVE",
"246 467 CURVE"
);
},
{
closed = 1;
nodes = (
"427 534 CURVE SMOOTH",
"402 534 OFFCURVE",
"380 534 OFFCURVE",
"366 534 CURVE SMOOTH",
"352 534 OFFCURVE",
"336 525 OFFCURVE",
"336 492 CURVE SMOOTH",
"336 459 OFFCURVE",
"336 78 OFFCURVE",
"336 39 CURVE SMOOTH",
"336 0 OFFCURVE",
"300 -52 OFFCURVE",
"272 -52 CURVE SMOOTH",
"244 -52 OFFCURVE",
"200 -18 OFFCURVE",
"188 -4 CURVE SMOOTH",
"176 10 OFFCURVE",
"152 12 OFFCURVE",
"138 7 CURVE SMOOTH",
"125 2 OFFCURVE",
"98 -9 OFFCURVE",
"81 -15 CURVE SMOOTH",
"70 -19 OFFCURVE",
"75 -40 OFFCURVE",
"87 -52 CURVE SMOOTH",
"101 -65 OFFCURVE",
"152 -111 OFFCURVE",
"256 -111 CURVE SMOOTH",
"374 -111 OFFCURVE",
"449 -53 OFFCURVE",
"449 58 CURVE SMOOTH",
"449 169 OFFCURVE",
"449 466 OFFCURVE",
"449 492 CURVE SMOOTH",
"449 523 OFFCURVE",
"447 534 OFFCURVE"
);
}
);
userData = {
assembly = "SVTCA[0]\011/* SetFreedomAndProjectionVectorToAxis */
IUP[0]\011/* InterpolateUntPts */
IUP[1]\011/* InterpolateUntPts */";
};
width = 500;
}
);
note = uni0067;
unicode = 0067;
},
{
color = 5;
glyphname = h;
lastChange = "2019-12-11 06:40:48 +0000";
layers = (
{
layerId = "47F7128E-F1A6-4572-9BDC-88462FF34A66";
paths = (
{
closed = 1;
nodes = (
"60 9 LINE SMOOTH",
"60 -10 OFFCURVE",
"75 -25 OFFCURVE",
"94 -25 CURVE SMOOTH",
"157 -25 LINE SMOOTH",
"176 -25 OFFCURVE",
"191 -10 OFFCURVE",
"191 9 CURVE SMOOTH",
"191 726 LINE SMOOTH",
"191 745 OFFCURVE",
"176 760 OFFCURVE",
"157 760 CURVE SMOOTH",
"94 760 LINE SMOOTH",
"75 760 OFFCURVE",
"60 745 OFFCURVE",
"60 726 CURVE SMOOTH"
);
},
{
closed = 1;
nodes = (
"148 504 OFFCURVE",
"80 399 OFFCURVE",
"80 250 CURVE",
"185 157 LINE",
"185 265 OFFCURVE",
"212 435 OFFCURVE",
"282 435 CURVE SMOOTH",
"324 435 OFFCURVE",
"332 298 OFFCURVE",
"332 30 CURVE SMOOTH",
"332 -14 OFFCURVE",
"339 -31 OFFCURVE",
"356 -31 CURVE SMOOTH",
"373 -31 OFFCURVE",
"419 -31 OFFCURVE",
"431 -31 CURVE SMOOTH",
"443 -31 OFFCURVE",
"453 -25 OFFCURVE",
"453 0 CURVE SMOOTH",
"453 25 OFFCURVE",
"453 179 OFFCURVE",
"453 241 CURVE SMOOTH",
"453 430 OFFCURVE",
"371 504 OFFCURVE",
"287 504 CURVE"
);
}
);
userData = {
assembly = "SVTCA[0]\011/* SetFreedomAndProjectionVectorToAxis */
IUP[0]\011/* InterpolateUntPts */
IUP[1]\011/* InterpolateUntPts */";
};
width = 500;
}
);
note = uni0068;
unicode = 0068;
},
{
color = 5;
glyphname = i;
lastChange = "2019-12-11 06:40:48 +0000";
layers = (
{
layerId = "47F7128E-F1A6-4572-9BDC-88462FF34A66";
paths = (
{
closed = 1;
nodes = (
"85 666 LINE SMOOTH",
"85 647 OFFCURVE",
"100 632 OFFCURVE",
"119 632 CURVE SMOOTH",
"185 632 LINE SMOOTH",
"204 632 OFFCURVE",
"219 647 OFFCURVE",
"219 666 CURVE SMOOTH",
"219 727 LINE SMOOTH",
"219 746 OFFCURVE",
"204 761 OFFCURVE",
"185 761 CURVE SMOOTH",
"119 761 LINE SMOOTH",
"100 761 OFFCURVE",
"85 746 OFFCURVE",
"85 727 CURVE SMOOTH"
);
},
{
closed = 1;
nodes = (
"92 12 LINE SMOOTH",
"92 -7 OFFCURVE",
"107 -22 OFFCURVE",
"126 -22 CURVE SMOOTH",
"179 -22 LINE SMOOTH",
"198 -22 OFFCURVE",
"213 -7 OFFCURVE",
"213 12 CURVE SMOOTH",
"213 487 LINE SMOOTH",
"213 506 OFFCURVE",
"198 521 OFFCURVE",
"179 521 CURVE SMOOTH",
"126 521 LINE SMOOTH",
"107 521 OFFCURVE",
"92 506 OFFCURVE",
"92 487 CURVE SMOOTH"
);
}
);
userData = {
assembly = "NPUSHB[ ]\011/* 9 values pushed */
58 124 43 42 41 36 4 35 17 
CALL[ ]\011/* CallFunction */
SVTCA[0]\011/* SetFreedomAndProjectionVectorToAxis */
IUP[0]\011/* InterpolateUntPts */
IUP[1]\011/* InterpolateUntPts */";
};
width = 322;
}
);
note = uni0069;
unicode = 0069;
},
{
color = 5;
glyphname = idotless;
lastChange = "2019-12-11 06:40:48 +0000";
layers = (
{
layerId = "47F7128E-F1A6-4572-9BDC-88462FF34A66";
paths = (
{
closed = 1;
nodes = (
"96 7 LINE SMOOTH",
"96 -12 OFFCURVE",
"111 -27 OFFCURVE",
"130 -27 CURVE SMOOTH",
"184 -27 LINE SMOOTH",
"203 -27 OFFCURVE",
"218 -12 OFFCURVE",
"218 7 CURVE SMOOTH",
"218 495 LINE SMOOTH",
"218 514 OFFCURVE",
"203 529 OFFCURVE",
"184 529 CURVE SMOOTH",
"130 529 LINE SMOOTH",
"111 529 OFFCURVE",
"96 514 OFFCURVE",
"96 495 CURVE SMOOTH"
);
}
);
width = 315;
}
);
unicode = 0131;
},
{
color = 5;
glyphname = j;
lastChange = "2019-12-11 06:40:48 +0000";
layers = (
{
layerId = "47F7128E-F1A6-4572-9BDC-88462FF34A66";
paths = (
{
closed = 1;
nodes = (
"221 656 LINE SMOOTH",
"221 637 OFFCURVE",
"236 622 OFFCURVE",
"255 622 CURVE SMOOTH",
"324 622 LINE SMOOTH",
"343 622 OFFCURVE",
"358 637 OFFCURVE",
"358 656 CURVE SMOOTH",
"358 708 LINE SMOOTH",
"358 727 OFFCURVE",
"343 742 OFFCURVE",
"324 742 CURVE SMOOTH",
"255 742 LINE SMOOTH",
"236 742 OFFCURVE",
"221 727 OFFCURVE",
"221 708 CURVE SMOOTH"
);
},
{
closed = 1;
nodes = (
"298 521 OFFCURVE",
"271 521 OFFCURVE",
"260 521 CURVE SMOOTH",
"249 521 OFFCURVE",
"240 512 OFFCURVE",
"240 492 CURVE SMOOTH",
"240 472 OFFCURVE",
"240 84 OFFCURVE",
"240 17 CURVE SMOOTH",
"240 -50 OFFCURVE",
"212 -62 OFFCURVE",
"183 -62 CURVE SMOOTH",
"155 -62 OFFCURVE",
"116 -32 OFFCURVE",
"116 49 CURVE SMOOTH",
"116 69 OFFCURVE",
"113 87 OFFCURVE",
"93 87 CURVE SMOOTH",
"73 87 OFFCURVE",
"39 87 OFFCURVE",
"24 87 CURVE SMOOTH",
"9 87 OFFCURVE",
"9 55 OFFCURVE",
"9 13 CURVE SMOOTH",
"9 -29 OFFCURVE",
"73 -116 OFFCURVE",
"191 -116 CURVE SMOOTH",
"309 -116 OFFCURVE",
"345 -76 OFFCURVE",
"345 5 CURVE SMOOTH",
"345 86 OFFCURVE",
"345 486 OFFCURVE",
"345 507 CURVE SMOOTH",
"345 518 OFFCURVE",
"338 521 OFFCURVE",
"326 521 CURVE"
);
}
);
userData = {
assembly = "PUSHB[ ]\011/* 4 values pushed */
54 120 38 0 
CALL[ ]\011/* CallFunction */
SVTCA[0]\011/* SetFreedomAndProjectionVectorToAxis */
IUP[0]\011/* InterpolateUntPts */
IUP[1]\011/* InterpolateUntPts */";
};
width = 459;
}
);
note = uni006A;
unicode = 006A;
},
{
color = 5;
glyphname = k;
lastChange = "2019-12-11 06:40:48 +0000";
layers = (
{
layerId = "47F7128E-F1A6-4572-9BDC-88462FF34A66";
paths = (
{
closed = 1;
nodes = (
"49 9 LINE SMOOTH",
"49 -10 OFFCURVE",
"63 -25 OFFCURVE",
"80 -25 CURVE SMOOTH",
"125 -25 LINE SMOOTH",
"143 -25 OFFCURVE",
"157 -10 OFFCURVE",
"157 9 CURVE SMOOTH",
"157 721 LINE SMOOTH",
"157 740 OFFCURVE",
"143 755 OFFCURVE",
"125 755 CURVE SMOOTH",
"80 755 LINE SMOOTH",
"63 755 OFFCURVE",
"49 740 OFFCURVE",
"49 721 CURVE SMOOTH"
);
},
{
closed = 1;
nodes = (
"428 505 OFFCURVE",
"380 505 OFFCURVE",
"362 505 CURVE SMOOTH",
"354 505 OFFCURVE",
"347 498 OFFCURVE",
"326 468 CURVE SMOOTH",
"317 455 OFFCURVE",
"153 235 OFFCURVE",
"141 219 CURVE",
"141 49 LINE",
"245 190 OFFCURVE",
"441 443 OFFCURVE",
"454 462 CURVE SMOOTH",
"467 481 OFFCURVE",
"481 505 OFFCURVE",
"455 505 CURVE"
);
},
{
closed = 1;
nodes = (
"476 -22 OFFCURVE",
"462 -3 OFFCURVE",
"448 13 CURVE SMOOTH",
"434 29 OFFCURVE",
"293 152 OFFCURVE",
"186 267 CURVE",
"186 128 LINE",
"198 115 OFFCURVE",
"287 39 OFFCURVE",
"313 8 CURVE SMOOTH",
"334 -17 OFFCURVE",
"345 -22 OFFCURVE",
"353 -22 CURVE SMOOTH",
"372 -22 OFFCURVE",
"421 -22 OFFCURVE",
"449 -22 CURVE"
);
}
);
userData = {
assembly = "SVTCA[0]\011/* SetFreedomAndProjectionVectorToAxis */
IUP[0]\011/* InterpolateUntPts */
IUP[1]\011/* InterpolateUntPts */";
};
width = 500;
}
);
note = uni006B;
unicode = 006B;
},
{
color = 5;
glyphname = l;
lastChange = "2019-12-11 06:40:48 +0000";
layers = (
{
layerId = "47F7128E-F1A6-4572-9BDC-88462FF34A66";
paths = (
{
closed = 1;
nodes = (
"99 15 LINE SMOOTH",
"99 -4 OFFCURVE",
"116 -19 OFFCURVE",
"137 -19 CURVE SMOOTH",
"177 -19 LINE SMOOTH",
"198 -19 OFFCURVE",
"215 -4 OFFCURVE",
"215 15 CURVE SMOOTH",
"215 726 LINE SMOOTH",
"215 745 OFFCURVE",
"198 760 OFFCURVE",
"177 760 CURVE SMOOTH",
"137 760 LINE SMOOTH",
"116 760 OFFCURVE",
"99 745 OFFCURVE",
"99 726 CURVE SMOOTH"
);
}
);
userData = {
assembly = "PUSHB[ ]\011/* 7 values pushed */
40 39 38 37 104 11 3 
CALL[ ]\011/* CallFunction */
SVTCA[0]\011/* SetFreedomAndProjectionVectorToAxis */
IUP[0]\011/* InterpolateUntPts */
IUP[1]\011/* InterpolateUntPts */";
};
width = 314;
}
);
note = uni006C;
unicode = 006C;
},
{
color = 5;
glyphname = m;
lastChange = "2019-12-11 06:40:48 +0000";
layers = (
{
layerId = "47F7128E-F1A6-4572-9BDC-88462FF34A66";
paths = (
{
closed = 1;
nodes = (
"30 9 LINE SMOOTH",
"30 -10 OFFCURVE",
"45 -25 OFFCURVE",
"64 -25 CURVE SMOOTH",
"127 -25 LINE SMOOTH",
"146 -25 OFFCURVE",
"161 -10 OFFCURVE",
"161 9 CURVE SMOOTH",
"161 499 LINE SMOOTH",
"161 518 OFFCURVE",
"146 533 OFFCURVE",
"127 533 CURVE SMOOTH",
"64 533 LINE SMOOTH",
"45 533 OFFCURVE",
"30 518 OFFCURVE",
"30 499 CURVE SMOOTH"
);
},
{
closed = 1;
nodes = (
"78 504 OFFCURVE",
"50 399 OFFCURVE",
"50 250 CURVE",
"155 157 LINE",
"155 364 OFFCURVE",
"167 435 OFFCURVE",
"202 435 CURVE SMOOTH",
"223 435 OFFCURVE",
"232 319 OFFCURVE",
"232 30 CURVE SMOOTH",
"232 -14 OFFCURVE",
"239 -31 OFFCURVE",
"256 -31 CURVE SMOOTH",
"273 -31 OFFCURVE",
"319 -31 OFFCURVE",
"331 -31 CURVE SMOOTH",
"343 -31 OFFCURVE",
"353 -25 OFFCURVE",
"353 0 CURVE SMOOTH",
"353 25 OFFCURVE",
"353 179 OFFCURVE",
"353 241 CURVE SMOOTH",
"353 430 OFFCURVE",
"301 504 OFFCURVE",
"217 504 CURVE"
);
},
{
closed = 1;
nodes = (
"289 504 OFFCURVE",
"242 399 OFFCURVE",
"242 250 CURVE",
"347 157 LINE",
"347 364 OFFCURVE",
"378 435 OFFCURVE",
"413 435 CURVE SMOOTH",
"434 435 OFFCURVE",
"443 319 OFFCURVE",
"443 30 CURVE SMOOTH",
"443 -14 OFFCURVE",
"450 -31 OFFCURVE",
"467 -31 CURVE SMOOTH",
"484 -31 OFFCURVE",
"530 -31 OFFCURVE",
"542 -31 CURVE SMOOTH",
"554 -31 OFFCURVE",
"564 -25 OFFCURVE",
"564 0 CURVE SMOOTH",
"564 25 OFFCURVE",
"564 179 OFFCURVE",
"564 241 CURVE SMOOTH",
"564 430 OFFCURVE",
"512 504 OFFCURVE",
"428 504 CURVE"
);
}
);
userData = {
assembly = "SVTCA[0]\011/* SetFreedomAndProjectionVectorToAxis */
IUP[0]\011/* InterpolateUntPts */
IUP[1]\011/* InterpolateUntPts */";
};
width = 605;
}
);
note = uni006D;
unicode = 006D;
},
{
color = 5;
glyphname = n;
lastChange = "2019-12-11 06:40:48 +0000";
layers = (
{
layerId = "47F7128E-F1A6-4572-9BDC-88462FF34A66";
paths = (
{
closed = 1;
nodes = (
"33 9 LINE SMOOTH",
"33 -10 OFFCURVE",
"48 -25 OFFCURVE",
"67 -25 CURVE SMOOTH",
"130 -25 LINE SMOOTH",
"149 -25 OFFCURVE",
"164 -10 OFFCURVE",
"164 9 CURVE SMOOTH",
"164 499 LINE SMOOTH",
"164 518 OFFCURVE",
"149 533 OFFCURVE",
"130 533 CURVE SMOOTH",
"67 533 LINE SMOOTH",
"48 533 OFFCURVE",
"33 518 OFFCURVE",
"33 499 CURVE SMOOTH"
);
},
{
closed = 1;
nodes = (
"98 504 OFFCURVE",
"53 399 OFFCURVE",
"53 250 CURVE",
"158 157 LINE",
"158 364 OFFCURVE",
"207 435 OFFCURVE",
"265 435 CURVE SMOOTH",
"334 435 OFFCURVE",
"335 319 OFFCURVE",
"335 30 CURVE SMOOTH",
"335 -14 OFFCURVE",
"342 -31 OFFCURVE",
"359 -31 CURVE SMOOTH",
"376 -31 OFFCURVE",
"422 -31 OFFCURVE",
"434 -31 CURVE SMOOTH",
"446 -31 OFFCURVE",
"456 -25 OFFCURVE",
"456 0 CURVE SMOOTH",
"456 25 OFFCURVE",
"456 179 OFFCURVE",
"456 241 CURVE SMOOTH",
"456 430 OFFCURVE",
"379 504 OFFCURVE",
"280 504 CURVE"
);
}
);
userData = {
assembly = "SVTCA[0]\011/* SetFreedomAndProjectionVectorToAxis */
IUP[0]\011/* InterpolateUntPts */
IUP[1]\011/* InterpolateUntPts */";
};
width = 489;
}
);
note = uni006E;
unicode = 006E;
},
{
color = 5;
glyphname = o;
lastChange = "2019-12-11 06:40:48 +0000";
layers = (
{
layerId = "47F7128E-F1A6-4572-9BDC-88462FF34A66";
paths = (
{
closed = 1;
nodes = (
"123 529 OFFCURVE",
"38 425 OFFCURVE",
"38 260 CURVE SMOOTH",
"38 95 OFFCURVE",
"78 -33 OFFCURVE",
"248 -33 CURVE SMOOTH",
"418 -33 OFFCURVE",
"460 105 OFFCURVE",
"460 243 CURVE SMOOTH",
"460 381 OFFCURVE",
"389 529 OFFCURVE",
"260 529 CURVE"
);
},
{
closed = 1;
nodes = (
"309 450 OFFCURVE",
"348 331 OFFCURVE",
"348 261 CURVE SMOOTH",
"348 191 OFFCURVE",
"327 37 OFFCURVE",
"264 37 CURVE SMOOTH",
"201 37 OFFCURVE",
"157 129 OFFCURVE",
"157 250 CURVE SMOOTH",
"157 371 OFFCURVE",
"216 450 OFFCURVE",
"262 450 CURVE"
);
}
);
userData = {
assembly = "SVTCA[0]\011/* SetFreedomAndProjectionVectorToAxis */
PUSHB[ ]\011/* 4 values pushed */
50 81 57 0 
CALL[ ]\011/* CallFunction */
IUP[0]\011/* InterpolateUntPts */
IUP[1]\011/* InterpolateUntPts */";
};
width = 500;
}
);
note = uni006F;
unicode = 006F;
},
{
color = 5;
glyphname = oslash;
lastChange = "2019-12-11 06:40:48 +0000";
layers = (
{
components = (
{
name = o;
}
);
layerId = "47F7128E-F1A6-4572-9BDC-88462FF34A66";
paths = (
{
closed = 1;
nodes = (
"388 629 OFFCURVE",
"361 629 OFFCURVE",
"349 629 CURVE SMOOTH",
"337 629 OFFCURVE",
"317 613 OFFCURVE",
"311 593 CURVE SMOOTH",
"305 573 OFFCURVE",
"101 -42 OFFCURVE",
"96 -56 CURVE SMOOTH",
"91 -70 OFFCURVE",
"88 -105 OFFCURVE",
"105 -105 CURVE SMOOTH",
"122 -105 OFFCURVE",
"143 -105 OFFCURVE",
"153 -105 CURVE SMOOTH",
"163 -105 OFFCURVE",
"180 -94 OFFCURVE",
"192 -67 CURVE SMOOTH",
"204 -40 OFFCURVE",
"406 545 OFFCURVE",
"415 567 CURVE SMOOTH",
"424 589 OFFCURVE",
"432 629 OFFCURVE",
"413 629 CURVE"
);
}
);
width = 500;
}
);
leftMetricsKey = o;
rightMetricsKey = o;
unicode = 00F8;
},
{
color = 5;
glyphname = p;
lastChange = "2019-12-11 06:40:48 +0000";
layers = (
{
layerId = "47F7128E-F1A6-4572-9BDC-88462FF34A66";
paths = (
{
closed = 1;
nodes = (
"123 509 OFFCURVE",
"68 425 OFFCURVE",
"68 260 CURVE SMOOTH",
"68 95 OFFCURVE",
"149 37 OFFCURVE",
"248 37 CURVE SMOOTH",
"418 37 OFFCURVE",
"460 105 OFFCURVE",
"460 243 CURVE SMOOTH",
"460 381 OFFCURVE",
"389 509 OFFCURVE",
"260 509 CURVE SMOOTH"
);
},
{
closed = 1;
nodes = (
"309 450 OFFCURVE",
"348 371 OFFCURVE",
"348 261 CURVE SMOOTH",
"348 191 OFFCURVE",
"327 88 OFFCURVE",
"264 88 CURVE SMOOTH",
"201 88 OFFCURVE",
"165 129 OFFCURVE",
"165 250 CURVE SMOOTH",
"165 392 OFFCURVE",
"188 450 OFFCURVE",
"262 450 CURVE SMOOTH"
);
},
{
closed = 1;
nodes = (
"50 -83 LINE SMOOTH",
"50 -102 OFFCURVE",
"65 -117 OFFCURVE",
"84 -117 CURVE SMOOTH",
"135 -117 LINE SMOOTH",
"154 -117 OFFCURVE",
"169 -102 OFFCURVE",
"169 -83 CURVE SMOOTH",
"169 500 LINE SMOOTH",
"169 519 OFFCURVE",
"154 534 OFFCURVE",
"135 534 CURVE SMOOTH",
"84 534 LINE SMOOTH",
"65 534 OFFCURVE",
"50 519 OFFCURVE",
"50 500 CURVE SMOOTH"
);
}
);
userData = {
assembly = "SVTCA[0]\011/* SetFreedomAndProjectionVectorToAxis */
IUP[0]\011/* InterpolateUntPts */
IUP[1]\011/* InterpolateUntPts */";
};
width = 493;
}
);
note = uni0070;
unicode = 0070;
},
{
color = 5;
glyphname = thorn;
lastChange = "2019-12-11 06:40:48 +0000";
layers = (
{
layerId = "47F7128E-F1A6-4572-9BDC-88462FF34A66";
paths = (
{
closed = 1;
nodes = (
"72 -53 LINE SMOOTH",
"72 -72 OFFCURVE",
"87 -87 OFFCURVE",
"106 -87 CURVE SMOOTH",
"150 -87 LINE SMOOTH",
"169 -87 OFFCURVE",
"184 -72 OFFCURVE",
"184 -53 CURVE SMOOTH",
"184 677 LINE SMOOTH",
"184 696 OFFCURVE",
"169 711 OFFCURVE",
"150 711 CURVE SMOOTH",
"106 711 LINE SMOOTH",
"87 711 OFFCURVE",
"72 696 OFFCURVE",
"72 677 CURVE SMOOTH"
);
},
{
closed = 1;
nodes = (
"216 525 OFFCURVE",
"100 513 OFFCURVE",
"100 300 CURVE SMOOTH",
"100 132 OFFCURVE",
"127 11 OFFCURVE",
"267 11 CURVE SMOOTH",
"410 11 OFFCURVE",
"455 100 OFFCURVE",
"455 280 CURVE SMOOTH",
"455 460 OFFCURVE",
"371 525 OFFCURVE",
"275 525 CURVE SMOOTH"
);
},
{
closed = 1;
nodes = (
"327 469 OFFCURVE",
"347 385 OFFCURVE",
"347 267 CURVE SMOOTH",
"347 149 OFFCURVE",
"315 66 OFFCURVE",
"276 66 CURVE SMOOTH",
"237 66 OFFCURVE",
"161 134 OFFCURVE",
"161 264 CURVE SMOOTH",
"161 394 OFFCURVE",
"245 469 OFFCURVE",
"275 469 CURVE"
);
}
);
width = 488;
}
);
unicode = 00FE;
},
{
color = 5;
glyphname = q;
lastChange = "2019-12-11 06:40:48 +0000";
layers = (
{
layerId = "47F7128E-F1A6-4572-9BDC-88462FF34A66";
paths = (
{
closed = 1;
nodes = (
"104 509 OFFCURVE",
"33 381 OFFCURVE",
"33 243 CURVE SMOOTH",
"33 105 OFFCURVE",
"96 37 OFFCURVE",
"245 37 CURVE SMOOTH",
"344 37 OFFCURVE",
"425 95 OFFCURVE",
"425 260 CURVE SMOOTH",
"425 425 OFFCURVE",
"370 509 OFFCURVE",
"233 509 CURVE SMOOTH"
);
},
{
closed = 1;
nodes = (
"325 450 OFFCURVE",
"328 392 OFFCURVE",
"328 250 CURVE SMOOTH",
"328 129 OFFCURVE",
"312 88 OFFCURVE",
"249 88 CURVE SMOOTH",
"186 88 OFFCURVE",
"145 191 OFFCURVE",
"145 261 CURVE SMOOTH",
"145 371 OFFCURVE",
"204 450 OFFCURVE",
"251 450 CURVE SMOOTH"
);
},
{
closed = 1;
nodes = (
"443 519 OFFCURVE",
"428 534 OFFCURVE",
"409 534 CURVE SMOOTH",
"358 534 LINE SMOOTH",
"339 534 OFFCURVE",
"324 519 OFFCURVE",
"324 500 CURVE SMOOTH",
"324 -83 LINE SMOOTH",
"324 -102 OFFCURVE",
"339 -117 OFFCURVE",
"358 -117 CURVE SMOOTH",
"409 -117 LINE SMOOTH",
"428 -117 OFFCURVE",
"443 -102 OFFCURVE",
"443 -83 CURVE SMOOTH",
"443 500 LINE SMOOTH"
);
}
);
userData = {
assembly = "SVTCA[0]\011/* SetFreedomAndProjectionVectorToAxis */
IUP[0]\011/* InterpolateUntPts */
IUP[1]\011/* InterpolateUntPts */";
};
width = 483;
}
);
note = uni0071;
unicode = 0071;
},
{
color = 5;
glyphname = r;
lastChange = "2019-12-11 06:40:48 +0000";
layers = (
{
layerId = "47F7128E-F1A6-4572-9BDC-88462FF34A66";
paths = (
{
closed = 1;
nodes = (
"72 10 LINE SMOOTH",
"72 -9 OFFCURVE",
"87 -24 OFFCURVE",
"106 -24 CURVE SMOOTH",
"157 -24 LINE SMOOTH",
"176 -24 OFFCURVE",
"191 -9 OFFCURVE",
"191 10 CURVE SMOOTH",
"191 493 LINE SMOOTH",
"191 512 OFFCURVE",
"176 527 OFFCURVE",
"157 527 CURVE SMOOTH",
"106 527 LINE SMOOTH",
"87 527 OFFCURVE",
"72 512 OFFCURVE",
"72 493 CURVE SMOOTH"
);
},
{
closed = 1;
nodes = (
"224 513 OFFCURVE",
"178 455 OFFCURVE",
"178 390 CURVE",
"178 152 LINE",
"178 315 OFFCURVE",
"259 439 OFFCURVE",
"300 439 CURVE SMOOTH",
"341 439 OFFCURVE",
"369 433 OFFCURVE",
"383 426 CURVE SMOOTH",
"397 419 OFFCURVE",
"414 422 OFFCURVE",
"419 436 CURVE SMOOTH",
"424 450 OFFCURVE",
"420 466 OFFCURVE",
"402 477 CURVE SMOOTH",
"384 488 OFFCURVE",
"339 513 OFFCURVE",
"284 513 CURVE"
);
}
);
userData = {
assembly = "SVTCA[0]\011/* SetFreedomAndProjectionVectorToAxis */
IUP[0]\011/* InterpolateUntPts */
IUP[1]\011/* InterpolateUntPts */";
};
width = 442;
}
);
note = uni0072;
unicode = 0072;
},
{
color = 5;
glyphname = s;
lastChange = "2019-12-11 06:40:48 +0000";
layers = (
{
layerId = "47F7128E-F1A6-4572-9BDC-88462FF34A66";
paths = (
{
closed = 1;
nodes = (
"96 517 OFFCURVE",
"44 415 OFFCURVE",
"44 375 CURVE SMOOTH",
"44 254 OFFCURVE",
"73 221 OFFCURVE",
"249 221 CURVE SMOOTH",
"301 221 OFFCURVE",
"339 148 OFFCURVE",
"339 118 CURVE SMOOTH",
"339 73 OFFCURVE",
"309 26 OFFCURVE",
"262 26 CURVE SMOOTH",
"194 26 OFFCURVE",
"148 30 OFFCURVE",
"148 106 CURVE SMOOTH",
"148 118 OFFCURVE",
"138 122 OFFCURVE",
"89 122 CURVE SMOOTH",
"61 122 OFFCURVE",
"38 118 OFFCURVE",
"38 95 CURVE SMOOTH",
"38 5 OFFCURVE",
"108 -31 OFFCURVE",
"255 -31 CURVE SMOOTH",
"402 -31 OFFCURVE",
"449 7 OFFCURVE",
"449 121 CURVE SMOOTH",
"449 203 OFFCURVE",
"403 273 OFFCURVE",
"269 273 CURVE SMOOTH",
"174 273 OFFCURVE",
"162 300 OFFCURVE",
"162 358 CURVE SMOOTH",
"162 416 OFFCURVE",
"215 466 OFFCURVE",
"253 466 CURVE SMOOTH",
"298 466 OFFCURVE",
"362 387 OFFCURVE",
"438 387 CURVE SMOOTH",
"453 387 OFFCURVE",
"461 406 OFFCURVE",
"461 413 CURVE SMOOTH",
"461 476 OFFCURVE",
"348 517 OFFCURVE",
"240 517 CURVE"
);
}
);
userData = {
assembly = "SVTCA[0]\011/* SetFreedomAndProjectionVectorToAxis */
PUSHB[ ]\011/* 5 values pushed */
46 45 56 103 1 
CALL[ ]\011/* CallFunction */
IUP[0]\011/* InterpolateUntPts */
IUP[1]\011/* InterpolateUntPts */";
};
width = 500;
}
);
note = uni0073;
unicode = 0073;
},
{
color = 5;
glyphname = germandbls;
lastChange = "2019-12-11 06:40:48 +0000";
layers = (
{
layerId = "47F7128E-F1A6-4572-9BDC-88462FF34A66";
paths = (
{
closed = 1;
nodes = (
"202 757 OFFCURVE",
"72 738 OFFCURVE",
"72 63 CURVE SMOOTH",
"72 3 OFFCURVE",
"79 -76 OFFCURVE",
"104 -76 CURVE SMOOTH",
"129 -76 OFFCURVE",
"139 -76 OFFCURVE",
"159 -76 CURVE SMOOTH",
"174 -76 OFFCURVE",
"181 32 OFFCURVE",
"181 269 CURVE SMOOTH",
"181 561 OFFCURVE",
"290 685 OFFCURVE",
"351 685 CURVE SMOOTH",
"372 685 OFFCURVE",
"380 665 OFFCURVE",
"380 638 CURVE SMOOTH",
"380 532 OFFCURVE",
"259 467 OFFCURVE",
"259 416 CURVE SMOOTH",
"259 385 OFFCURVE",
"377 355 OFFCURVE",
"377 272 CURVE SMOOTH",
"377 149 OFFCURVE",
"193 79 OFFCURVE",
"193 63 CURVE SMOOTH",
"193 50 OFFCURVE",
"206 29 OFFCURVE",
"230 29 CURVE SMOOTH",
"254 29 OFFCURVE",
"480 54 OFFCURVE",
"480 216 CURVE SMOOTH",
"480 379 OFFCURVE",
"361 450 OFFCURVE",
"341 450 CURVE",
"341 395 LINE",
"372 395 OFFCURVE",
"479 473 OFFCURVE",
"479 579 CURVE SMOOTH",
"479 685 OFFCURVE",
"390 757 OFFCURVE",
"328 757 CURVE"
);
}
);
width = 522;
}
);
unicode = 00DF;
},
{
color = 5;
glyphname = t;
lastChange = "2019-12-11 06:40:48 +0000";
layers = (
{
layerId = "47F7128E-F1A6-4572-9BDC-88462FF34A66";
paths = (
{
closed = 1;
nodes = (
"154 21 LINE SMOOTH",
"154 2 OFFCURVE",
"169 -13 OFFCURVE",
"188 -13 CURVE SMOOTH",
"248 -13 LINE SMOOTH",
"267 -13 OFFCURVE",
"282 2 OFFCURVE",
"282 21 CURVE SMOOTH",
"282 734 LINE SMOOTH",
"282 753 OFFCURVE",
"267 768 OFFCURVE",
"248 768 CURVE SMOOTH",
"188 768 LINE SMOOTH",
"169 768 OFFCURVE",
"154 753 OFFCURVE",
"154 734 CURVE SMOOTH"
);
},
{
closed = 1;
nodes = (
"25 462 OFFCURVE",
"40 451 OFFCURVE",
"59 451 CURVE SMOOTH",
"386 451 LINE SMOOTH",
"405 451 OFFCURVE",
"420 462 OFFCURVE",
"420 477 CURVE SMOOTH",
"420 492 OFFCURVE",
"405 503 OFFCURVE",
"386 503 CURVE SMOOTH",
"59 503 LINE SMOOTH",
"40 503 OFFCURVE",
"25 492 OFFCURVE",
"25 477 CURVE SMOOTH"
);
}
);
userData = {
assembly = "NPUSHB[ ]\011/* 17 values pushed */
45 102 32 0 67 66 65 99 11 10 6 70 101 8 5 4 8 
CALL[ ]\011/* CallFunction */
CALL[ ]\011/* CallFunction */
CALL[ ]\011/* CallFunction */
SVTCA[0]\011/* SetFreedomAndProjectionVectorToAxis */
IUP[0]\011/* InterpolateUntPts */
IUP[1]\011/* InterpolateUntPts */";
};
width = 433;
}
);
note = uni0074;
unicode = 0074;
},
{
color = 5;
glyphname = u;
lastChange = "2019-12-11 06:40:48 +0000";
layers = (
{
layerId = "47F7128E-F1A6-4572-9BDC-88462FF34A66";
paths = (
{
closed = 1;
nodes = (
"453 493 LINE SMOOTH",
"453 512 OFFCURVE",
"438 527 OFFCURVE",
"419 527 CURVE SMOOTH",
"356 527 LINE SMOOTH",
"337 527 OFFCURVE",
"322 512 OFFCURVE",
"322 493 CURVE SMOOTH",
"322 3 LINE SMOOTH",
"322 -16 OFFCURVE",
"337 -31 OFFCURVE",
"356 -31 CURVE SMOOTH",
"419 -31 LINE SMOOTH",
"438 -31 OFFCURVE",
"453 -16 OFFCURVE",
"453 3 CURVE SMOOTH"
);
},
{
closed = 1;
nodes = (
"390 -24 OFFCURVE",
"433 86 OFFCURVE",
"433 241 CURVE",
"332 337 LINE",
"332 122 OFFCURVE",
"285 48 OFFCURVE",
"229 48 CURVE SMOOTH",
"162 48 OFFCURVE",
"161 169 OFFCURVE",
"161 470 CURVE SMOOTH",
"161 515 OFFCURVE",
"155 533 OFFCURVE",
"138 533 CURVE SMOOTH",
"122 533 OFFCURVE",
"78 533 OFFCURVE",
"66 533 CURVE SMOOTH",
"55 533 OFFCURVE",
"45 527 OFFCURVE",
"45 501 CURVE SMOOTH",
"45 475 OFFCURVE",
"45 315 OFFCURVE",
"45 250 CURVE SMOOTH",
"45 53 OFFCURVE",
"119 -24 OFFCURVE",
"214 -24 CURVE"
);
}
);
userData = {
assembly = "SVTCA[0]\011/* SetFreedomAndProjectionVectorToAxis */
IUP[0]\011/* InterpolateUntPts */
IUP[1]\011/* InterpolateUntPts */";
};
width = 507;
}
);
note = uni0075;
unicode = 0075;
},
{
color = 5;
glyphname = v;
lastChange = "2019-12-11 06:40:48 +0000";
layers = (
{
layerId = "47F7128E-F1A6-4572-9BDC-88462FF34A66";
paths = (
{
closed = 1;
nodes = (
"33 512 OFFCURVE",
"29 496 OFFCURVE",
"36 455 CURVE SMOOTH",
"41 425 OFFCURVE",
"160 78 OFFCURVE",
"174 33 CURVE SMOOTH",
"188 -12 OFFCURVE",
"200 -22 OFFCURVE",
"222 -22 CURVE SMOOTH",
"244 -22 OFFCURVE",
"269 -22 OFFCURVE",
"295 -22 CURVE SMOOTH",
"321 -22 OFFCURVE",
"335 16 OFFCURVE",
"339 50 CURVE SMOOTH",
"343 84 OFFCURVE",
"448 413 OFFCURVE",
"455 460 CURVE SMOOTH",
"462 507 OFFCURVE",
"450 510 OFFCURVE",
"430 510 CURVE SMOOTH",
"410 510 OFFCURVE",
"403 510 OFFCURVE",
"385 510 CURVE SMOOTH",
"356 510 OFFCURVE",
"348 498 OFFCURVE",
"339 470 CURVE SMOOTH",
"243 158 LINE",
"263 158 LINE",
"151 471 LINE SMOOTH",
"141 499 OFFCURVE",
"136 512 OFFCURVE",
"119 512 CURVE SMOOTH",
"64 512 LINE SMOOTH"
);
}
);
userData = {
assembly = "SVTCA[0]\011/* SetFreedomAndProjectionVectorToAxis */
IUP[0]\011/* InterpolateUntPts */
IUP[1]\011/* InterpolateUntPts */";
};
width = 490;
}
);
note = uni0076;
unicode = 0076;
},
{
color = 5;
glyphname = w;
lastChange = "2019-12-11 06:40:48 +0000";
layers = (
{
layerId = "47F7128E-F1A6-4572-9BDC-88462FF34A66";
paths = (
{
closed = 1;
nodes = (
"42 512 OFFCURVE",
"40 496 OFFCURVE",
"45 455 CURVE SMOOTH",
"53 385 OFFCURVE",
"89 125 OFFCURVE",
"103 33 CURVE SMOOTH",
"110 -14 OFFCURVE",
"129 -22 OFFCURVE",
"151 -22 CURVE SMOOTH",
"173 -22 OFFCURVE",
"198 -22 OFFCURVE",
"224 -22 CURVE SMOOTH",
"250 -22 OFFCURVE",
"258 17 OFFCURVE",
"268 50 CURVE SMOOTH",
"284 104 OFFCURVE",
"357 413 OFFCURVE",
"364 460 CURVE SMOOTH",
"371 507 OFFCURVE",
"359 510 OFFCURVE",
"339 510 CURVE SMOOTH",
"319 510 OFFCURVE",
"312 510 OFFCURVE",
"294 510 CURVE SMOOTH",
"265 510 OFFCURVE",
"253 498 OFFCURVE",
"248 470 CURVE SMOOTH",
"187 158 LINE",
"207 158 LINE",
"160 471 LINE SMOOTH",
"156 499 OFFCURVE",
"145 512 OFFCURVE",
"128 512 CURVE SMOOTH",
"73 512 LINE SMOOTH"
);
},
{
closed = 1;
nodes = (
"262 512 OFFCURVE",
"260 496 OFFCURVE",
"265 455 CURVE SMOOTH",
"274 385 OFFCURVE",
"309 125 OFFCURVE",
"323 33 CURVE SMOOTH",
"330 -14 OFFCURVE",
"349 -22 OFFCURVE",
"371 -22 CURVE SMOOTH",
"393 -22 OFFCURVE",
"418 -22 OFFCURVE",
"444 -22 CURVE SMOOTH",
"470 -22 OFFCURVE",
"478 17 OFFCURVE",
"488 50 CURVE SMOOTH",
"504 104 OFFCURVE",
"577 413 OFFCURVE",
"584 460 CURVE SMOOTH",
"591 507 OFFCURVE",
"579 510 OFFCURVE",
"559 510 CURVE SMOOTH",
"539 510 OFFCURVE",
"532 510 OFFCURVE",
"514 510 CURVE SMOOTH",
"485 510 OFFCURVE",
"473 498 OFFCURVE",
"468 470 CURVE SMOOTH",
"407 158 LINE",
"427 158 LINE",
"380 471 LINE SMOOTH",
"376 499 OFFCURVE",
"365 512 OFFCURVE",
"348 512 CURVE SMOOTH",
"293 512 LINE SMOOTH"
);
}
);
userData = {
assembly = "SVTCA[0]\011/* SetFreedomAndProjectionVectorToAxis */
IUP[0]\011/* InterpolateUntPts */
IUP[1]\011/* InterpolateUntPts */";
};
width = 628;
}
);
note = uni0077;
unicode = 0077;
},
{
color = 5;
glyphname = x;
lastChange = "2019-12-11 06:40:48 +0000";
layers = (
{
layerId = "47F7128E-F1A6-4572-9BDC-88462FF34A66";
paths = (
{
closed = 1;
nodes = (
"103 525 OFFCURVE",
"69 525 OFFCURVE",
"53 525 CURVE SMOOTH",
"39 525 OFFCURVE",
"25 501 OFFCURVE",
"39 478 CURVE SMOOTH",
"51 455 OFFCURVE",
"281 21 OFFCURVE",
"294 3 CURVE SMOOTH",
"305 -15 OFFCURVE",
"325 -28 OFFCURVE",
"345 -28 CURVE SMOOTH",
"367 -28 OFFCURVE",
"391 -28 OFFCURVE",
"406 -28 CURVE SMOOTH",
"422 -28 OFFCURVE",
"446 -7 OFFCURVE",
"429 21 CURVE SMOOTH",
"412 49 OFFCURVE",
"184 470 OFFCURVE",
"176 488 CURVE SMOOTH",
"168 506 OFFCURVE",
"149 525 OFFCURVE",
"130 525 CURVE"
);
},
{
closed = 1;
nodes = (
"359 525 OFFCURVE",
"340 506 OFFCURVE",
"332 488 CURVE SMOOTH",
"324 470 OFFCURVE",
"96 49 OFFCURVE",
"79 21 CURVE SMOOTH",
"62 -7 OFFCURVE",
"86 -28 OFFCURVE",
"102 -28 CURVE SMOOTH",
"117 -28 OFFCURVE",
"141 -28 OFFCURVE",
"163 -28 CURVE SMOOTH",
"183 -28 OFFCURVE",
"203 -15 OFFCURVE",
"214 3 CURVE SMOOTH",
"226 22 OFFCURVE",
"457 455 OFFCURVE",
"469 478 CURVE SMOOTH",
"481 502 OFFCURVE",
"469 525 OFFCURVE",
"455 525 CURVE SMOOTH",
"439 525 OFFCURVE",
"405 525 OFFCURVE",
"378 525 CURVE"
);
}
);
userData = {
assembly = "SVTCA[0]\011/* SetFreedomAndProjectionVectorToAxis */
IUP[0]\011/* InterpolateUntPts */
IUP[1]\011/* InterpolateUntPts */";
};
width = 507;
}
);
note = uni0078;
unicode = 0078;
},
{
color = 5;
glyphname = y;
lastChange = "2019-12-11 06:40:48 +0000";
layers = (
{
layerId = "47F7128E-F1A6-4572-9BDC-88462FF34A66";
paths = (
{
closed = 1;
nodes = (
"356 525 OFFCURVE",
"338 506 OFFCURVE",
"331 488 CURVE SMOOTH",
"323 470 OFFCURVE",
"136 -24 OFFCURVE",
"120 -52 CURVE SMOOTH",
"104 -80 OFFCURVE",
"127 -101 OFFCURVE",
"142 -101 CURVE SMOOTH",
"156 -101 OFFCURVE",
"178 -101 OFFCURVE",
"199 -101 CURVE SMOOTH",
"218 -101 OFFCURVE",
"237 -88 OFFCURVE",
"247 -70 CURVE SMOOTH",
"258 -51 OFFCURVE",
"448 455 OFFCURVE",
"460 478 CURVE SMOOTH",
"471 502 OFFCURVE",
"460 525 OFFCURVE",
"447 525 CURVE SMOOTH",
"431 525 OFFCURVE",
"400 525 OFFCURVE",
"374 525 CURVE"
);
},
{
closed = 1;
nodes = (
"92 516 OFFCURVE",
"64 516 OFFCURVE",
"50 516 CURVE SMOOTH",
"38 516 OFFCURVE",
"26 493 OFFCURVE",
"38 470 CURVE SMOOTH",
"48 447 OFFCURVE",
"156 60 OFFCURVE",
"168 42 CURVE SMOOTH",
"178 27 OFFCURVE",
"193 12 OFFCURVE",
"210 12 CURVE SMOOTH",
"229 12 OFFCURVE",
"249 12 OFFCURVE",
"261 12 CURVE SMOOTH",
"275 12 OFFCURVE",
"295 33 OFFCURVE",
"281 60 CURVE SMOOTH",
"266 88 OFFCURVE",
"160 462 OFFCURVE",
"153 480 CURVE SMOOTH",
"146 498 OFFCURVE",
"131 516 OFFCURVE",
"115 516 CURVE"
);
}
);
userData = {
assembly = "SVTCA[0]\011/* SetFreedomAndProjectionVectorToAxis */
IUP[0]\011/* InterpolateUntPts */
IUP[1]\011/* InterpolateUntPts */";
};
width = 498;
}
);
note = uni0079;
unicode = 0079;
},
{
color = 5;
glyphname = z;
lastChange = "2019-12-11 06:40:48 +0000";
layers = (
{
layerId = "47F7128E-F1A6-4572-9BDC-88462FF34A66";
paths = (
{
closed = 1;
nodes = (
"384 533 OFFCURVE",
"148 533 OFFCURVE",
"118 533 CURVE SMOOTH",
"88 533 OFFCURVE",
"70 524 OFFCURVE",
"70 503 CURVE SMOOTH",
"70 482 OFFCURVE",
"91 470 OFFCURVE",
"118 470 CURVE SMOOTH",
"145 470 OFFCURVE",
"261 470 OFFCURVE",
"278 470 CURVE SMOOTH",
"295 470 OFFCURVE",
"302 459 OFFCURVE",
"286 439 CURVE SMOOTH",
"270 419 OFFCURVE",
"65 61 OFFCURVE",
"54 39 CURVE SMOOTH",
"43 17 OFFCURVE",
"42 -18 OFFCURVE",
"76 -18 CURVE SMOOTH",
"110 -18 OFFCURVE",
"390 -18 OFFCURVE",
"419 -18 CURVE SMOOTH",
"448 -18 OFFCURVE",
"455 -13 OFFCURVE",
"455 9 CURVE SMOOTH",
"455 31 OFFCURVE",
"445 44 OFFCURVE",
"418 44 CURVE SMOOTH",
"391 44 OFFCURVE",
"229 44 OFFCURVE",
"208 44 CURVE SMOOTH",
"187 44 OFFCURVE",
"185 65 OFFCURVE",
"202 95 CURVE SMOOTH",
"219 125 OFFCURVE",
"434 470 OFFCURVE",
"447 492 CURVE SMOOTH",
"460 514 OFFCURVE",
"462 533 OFFCURVE",
"432 533 CURVE"
);
}
);
userData = {
assembly = "SVTCA[0]\011/* SetFreedomAndProjectionVectorToAxis */
IUP[0]\011/* InterpolateUntPts */
IUP[1]\011/* InterpolateUntPts */";
};
width = 500;
}
);
note = uni007A;
unicode = 007A;
},
{
color = 5;
glyphname = ordfeminine;
lastChange = "2019-12-11 06:40:48 +0000";
layers = (
{
layerId = "47F7128E-F1A6-4572-9BDC-88462FF34A66";
paths = (
{
closed = 1;
nodes = (
"100 678 OFFCURVE",
"21 608 OFFCURVE",
"21 537 CURVE SMOOTH",
"21 466 OFFCURVE",
"40 402 OFFCURVE",
"148 402 CURVE SMOOTH",
"218 402 OFFCURVE",
"275 426 OFFCURVE",
"287 432 CURVE SMOOTH",
"299 438 OFFCURVE",
"304 439 OFFCURVE",
"311 430 CURVE SMOOTH",
"318 422 OFFCURVE",
"322 416 OFFCURVE",
"326 412 CURVE SMOOTH",
"330 408 OFFCURVE",
"340 401 OFFCURVE",
"353 401 CURVE SMOOTH",
"366 401 OFFCURVE",
"409 401 OFFCURVE",
"426 401 CURVE SMOOTH",
"443 401 OFFCURVE",
"444 412 OFFCURVE",
"437 423 CURVE SMOOTH",
"430 435 OFFCURVE",
"408 479 OFFCURVE",
"408 510 CURVE SMOOTH",
"408 541 OFFCURVE",
"414 561 OFFCURVE",
"418 570 CURVE SMOOTH",
"422 579 OFFCURVE",
"416 595 OFFCURVE",
"408 606 CURVE SMOOTH",
"391 629 OFFCURVE",
"337 678 OFFCURVE",
"218 678 CURVE"
);
},
{
closed = 1;
nodes = (
"244 619 OFFCURVE",
"293 607 OFFCURVE",
"293 576 CURVE SMOOTH",
"293 535 OFFCURVE",
"244 465 OFFCURVE",
"200 465 CURVE SMOOTH",
"156 465 OFFCURVE",
"135 492 OFFCURVE",
"135 537 CURVE SMOOTH",
"135 581 OFFCURVE",
"168 619 OFFCURVE",
"217 619 CURVE"
);
}
);
width = 474;
}
);
leftMetricsKey = a;
rightMetricsKey = a;
unicode = 00AA;
},
{
color = 5;
glyphname = ordmasculine;
lastChange = "2019-12-11 06:40:48 +0000";
layers = (
{
layerId = "47F7128E-F1A6-4572-9BDC-88462FF34A66";
paths = (
{
closed = 1;
nodes = (
"99 689 OFFCURVE",
"38 601 OFFCURVE",
"38 509 CURVE SMOOTH",
"38 417 OFFCURVE",
"86 351 OFFCURVE",
"221 351 CURVE SMOOTH",
"356 351 OFFCURVE",
"401 403 OFFCURVE",
"401 509 CURVE SMOOTH",
"401 615 OFFCURVE",
"361 689 OFFCURVE",
"231 689 CURVE"
);
},
{
closed = 1;
nodes = (
"265 616 OFFCURVE",
"267 584 OFFCURVE",
"267 527 CURVE SMOOTH",
"267 470 OFFCURVE",
"254 429 OFFCURVE",
"218 429 CURVE SMOOTH",
"182 429 OFFCURVE",
"177 484 OFFCURVE",
"177 524 CURVE SMOOTH",
"177 564 OFFCURVE",
"207 616 OFFCURVE",
"230 616 CURVE"
);
}
);
width = 441;
}
);
leftMetricsKey = o;
rightMetricsKey = o;
unicode = 00BA;
},
{
color = 0;
glyphname = "a-hira";
lastChange = "2019-12-12 01:48:17 +0000";
layers = (
{
layerId = "47F7128E-F1A6-4572-9BDC-88462FF34A66";
paths = (
{
closed = 1;
nodes = (
"75 567 OFFCURVE",
"82 561 OFFCURVE",
"109 561 CURVE SMOOTH",
"717 561 LINE SMOOTH",
"744 561 OFFCURVE",
"751 567 OFFCURVE",
"751 590 CURVE SMOOTH",
"751 613 OFFCURVE",
"744 619 OFFCURVE",
"717 619 CURVE SMOOTH",
"109 619 LINE SMOOTH",
"82 619 OFFCURVE",
"75 613 OFFCURVE",
"75 590 CURVE SMOOTH"
);
},
{
closed = 1;
nodes = (
"322 37 LINE SMOOTH",
"322 10 OFFCURVE",
"329 3 OFFCURVE",
"356 3 CURVE SMOOTH",
"394 3 LINE SMOOTH",
"421 3 OFFCURVE",
"428 10 OFFCURVE",
"428 37 CURVE SMOOTH",
"428 701 LINE SMOOTH",
"428 728 OFFCURVE",
"421 735 OFFCURVE",
"394 735 CURVE SMOOTH",
"356 735 LINE SMOOTH",
"329 735 OFFCURVE",
"322 728 OFFCURVE",
"322 701 CURVE SMOOTH"
);
},
{
closed = 1;
nodes = (
"596 521 LINE SMOOTH",
"586 521 OFFCURVE",
"575 517 OFFCURVE",
"575 497 CURVE SMOOTH",
"575 207 OFFCURVE",
"363 78 OFFCURVE",
"293 78 CURVE SMOOTH",
"224 78 OFFCURVE",
"144 101 OFFCURVE",
"144 221 CURVE SMOOTH",
"144 355 OFFCURVE",
"273 428 OFFCURVE",
"421 428 CURVE SMOOTH",
"571 428 OFFCURVE",
"671 417 OFFCURVE",
"671 244 CURVE SMOOTH",
"671 179 OFFCURVE",
"631 80 OFFCURVE",
"620 61 CURVE SMOOTH",
"610 42 OFFCURVE",
"599 17 OFFCURVE",
"620 17 CURVE SMOOTH",
"698 17 LINE SMOOTH",
"709 17 OFFCURVE",
"723 34 OFFCURVE",
"732 51 CURVE SMOOTH",
"740 68 OFFCURVE",
"780 171 OFFCURVE",
"780 233 CURVE SMOOTH",
"780 371 OFFCURVE",
"713 474 OFFCURVE",
"420 474 CURVE SMOOTH",
"126 474 OFFCURVE",
"45 289 OFFCURVE",
"45 209 CURVE SMOOTH",
"45 129 OFFCURVE",
"57 16 OFFCURVE",
"196 16 CURVE SMOOTH",
"349 16 OFFCURVE",
"685 122 OFFCURVE",
"685 488 CURVE SMOOTH",
"685 513 OFFCURVE",
"672 521 OFFCURVE",
"666 521 CURVE SMOOTH"
);
}
);
userData = {
assembly = "SVTCA[0]\011/* SetFreedomAndProjectionVectorToAxis */
IUP[0]\011/* InterpolateUntPts */
IUP[1]\011/* InterpolateUntPts */";
};
vertWidth = 1000;
width = 825;
}
);
note = uni3042;
unicode = 3042;
},
{
color = 0;
glyphname = "asmall-hira";
lastChange = "2019-12-12 01:48:18 +0000";
layers = (
{
layerId = "47F7128E-F1A6-4572-9BDC-88462FF34A66";
paths = (
{
closed = 1;
nodes = (
"45 454 OFFCURVE",
"55 448 OFFCURVE",
"83 448 CURVE SMOOTH",
"557 448 LINE SMOOTH",
"585 448 OFFCURVE",
"595 454 OFFCURVE",
"595 472 CURVE SMOOTH",
"595 490 OFFCURVE",
"585 496 OFFCURVE",
"557 496 CURVE SMOOTH",
"83 496 LINE SMOOTH",
"55 496 OFFCURVE",
"45 490 OFFCURVE",
"45 472 CURVE SMOOTH"
);
},
{
closed = 1;
nodes = (
"266 16 LINE SMOOTH",
"266 -5 OFFCURVE",
"275 -12 OFFCURVE",
"304 -12 CURVE SMOOTH",
"336 -12 LINE SMOOTH",
"365 -12 OFFCURVE",
"374 -5 OFFCURVE",
"374 16 CURVE SMOOTH",
"374 588 LINE SMOOTH",
"374 609 OFFCURVE",
"365 616 OFFCURVE",
"336 616 CURVE SMOOTH",
"304 616 LINE SMOOTH",
"275 616 OFFCURVE",
"266 609 OFFCURVE",
"266 588 CURVE SMOOTH"
);
},
{
closed = 1;
nodes = (
"467 405 LINE SMOOTH",
"449 405 OFFCURVE",
"438 397 OFFCURVE",
"438 384 CURVE SMOOTH",
"438 160 OFFCURVE",
"336 64 OFFCURVE",
"278 64 CURVE SMOOTH",
"196 64 OFFCURVE",
"155 99 OFFCURVE",
"155 172 CURVE SMOOTH",
"155 276 OFFCURVE",
"204 329 OFFCURVE",
"332 329 CURVE SMOOTH",
"464 329 OFFCURVE",
"484 322 OFFCURVE",
"484 190 CURVE SMOOTH",
"484 139 OFFCURVE",
"448 62 OFFCURVE",
"440 50 CURVE SMOOTH",
"423 24 OFFCURVE",
"422 13 OFFCURVE",
"449 13 CURVE SMOOTH",
"518 13 LINE SMOOTH",
"533 13 OFFCURVE",
"549 25 OFFCURVE",
"557 40 CURVE SMOOTH",
"565 56 OFFCURVE",
"602 135 OFFCURVE",
"602 181 CURVE SMOOTH",
"602 286 OFFCURVE",
"579 369 OFFCURVE",
"331 369 CURVE SMOOTH",
"61 369 OFFCURVE",
"47 223 OFFCURVE",
"47 163 CURVE SMOOTH",
"47 101 OFFCURVE",
"57 12 OFFCURVE",
"192 12 CURVE SMOOTH",
"329 12 OFFCURVE",
"557 104 OFFCURVE",
"557 377 CURVE SMOOTH",
"557 394 OFFCURVE",
"546 405 OFFCURVE",
"530 405 CURVE SMOOTH"
);
}
);
userData = {
assembly = "SVTCA[0]\011/* SetFreedomAndProjectionVectorToAxis */
IUP[0]\011/* InterpolateUntPts */
IUP[1]\011/* InterpolateUntPts */";
};
vertWidth = 1000;
width = 647;
}
);
note = uni3041;
unicode = 3041;
},
{
color = 0;
glyphname = "i-hira";
lastChange = "2019-12-12 01:48:20 +0000";
layers = (
{
layerId = "47F7128E-F1A6-4572-9BDC-88462FF34A66";
paths = (
{
closed = 1;
nodes = (
"111 657 OFFCURVE",
"81 657 OFFCURVE",
"68 657 CURVE SMOOTH",
"55 657 OFFCURVE",
"43 649 OFFCURVE",
"45 625 CURVE SMOOTH",
"47 601 OFFCURVE",
"64 119 OFFCURVE",
"66 98 CURVE SMOOTH",
"68 77 OFFCURVE",
"90 56 OFFCURVE",
"112 60 CURVE SMOOTH",
"134 64 OFFCURVE",
"250 116 OFFCURVE",
"266 127 CURVE SMOOTH",
"282 138 OFFCURVE",
"293 154 OFFCURVE",
"289 164 CURVE SMOOTH",
"285 174 OFFCURVE",
"266 193 OFFCURVE",
"248 186 CURVE SMOOTH",
"230 179 OFFCURVE",
"206 176 OFFCURVE",
"195 172 CURVE SMOOTH",
"184 168 OFFCURVE",
"174 188 OFFCURVE",
"173 204 CURVE SMOOTH",
"172 221 OFFCURVE",
"154 608 OFFCURVE",
"156 623 CURVE SMOOTH",
"158 639 OFFCURVE",
"149 657 OFFCURVE",
"132 657 CURVE"
);
},
{
closed = 1;
nodes = (
"606 616 OFFCURVE",
"580 616 OFFCURVE",
"565 616 CURVE SMOOTH",
"550 616 OFFCURVE",
"534 592 OFFCURVE",
"538 568 CURVE SMOOTH",
"546 522 OFFCURVE",
"592 282 OFFCURVE",
"599 241 CURVE SMOOTH",
"602 224 OFFCURVE",
"597 201 OFFCURVE",
"614 201 CURVE SMOOTH",
"631 201 OFFCURVE",
"671 201 OFFCURVE",
"686 201 CURVE SMOOTH",
"701 201 OFFCURVE",
"721 222 OFFCURVE",
"717 246 CURVE SMOOTH",
"709 293 OFFCURVE",
"660 537 OFFCURVE",
"650 572 CURVE SMOOTH",
"640 607 OFFCURVE",
"635 616 OFFCURVE",
"625 616 CURVE"
);
}
);
userData = {
assembly = "PUSHB[ ]\011/* 4 values pushed */
25 113 9 0 
CALL[ ]\011/* CallFunction */
SVTCA[0]\011/* SetFreedomAndProjectionVectorToAxis */
IUP[0]\011/* InterpolateUntPts */
IUP[1]\011/* InterpolateUntPts */";
};
vertWidth = 1000;
width = 763;
}
);
note = uni3044;
unicode = 3044;
},
{
color = 0;
glyphname = "ismall-hira";
lastChange = "2019-12-12 01:48:21 +0000";
layers = (
{
layerId = "47F7128E-F1A6-4572-9BDC-88462FF34A66";
paths = (
{
closed = 1;
nodes = (
"109 512 OFFCURVE",
"85 512 OFFCURVE",
"74 512 CURVE SMOOTH",
"55 512 OFFCURVE",
"45 503 OFFCURVE",
"45 485 CURVE SMOOTH",
"45 470 OFFCURVE",
"63 100 OFFCURVE",
"63 58 CURVE SMOOTH",
"63 29 OFFCURVE",
"91 23 OFFCURVE",
"113 27 CURVE SMOOTH",
"134 31 OFFCURVE",
"234 72 OFFCURVE",
"244 79 CURVE SMOOTH",
"261 91 OFFCURVE",
"272 100 OFFCURVE",
"268 110 CURVE SMOOTH",
"263 122 OFFCURVE",
"236 134 OFFCURVE",
"221 128 CURVE SMOOTH",
"213 125 OFFCURVE",
"208 125 OFFCURVE",
"195 121 CURVE SMOOTH",
"176 115 OFFCURVE",
"174 118 OFFCURVE",
"172 140 CURVE SMOOTH",
"171 152 OFFCURVE",
"158 469 OFFCURVE",
"158 484 CURVE SMOOTH",
"158 500 OFFCURVE",
"146 512 OFFCURVE",
"128 512 CURVE SMOOTH"
);
},
{
closed = 1;
nodes = (
"463 425 OFFCURVE",
"442 425 OFFCURVE",
"430 425 CURVE SMOOTH",
"410 425 OFFCURVE",
"395 406 OFFCURVE",
"398 386 CURVE SMOOTH",
"401 363 OFFCURVE",
"443 159 OFFCURVE",
"450 103 CURVE SMOOTH",
"452 86 OFFCURVE",
"454 80 OFFCURVE",
"471 80 CURVE SMOOTH",
"486 80 OFFCURVE",
"518 80 OFFCURVE",
"531 80 CURVE SMOOTH",
"552 80 OFFCURVE",
"570 98 OFFCURVE",
"567 117 CURVE SMOOTH",
"561 152 OFFCURVE",
"524 321 OFFCURVE",
"511 390 CURVE SMOOTH",
"506 417 OFFCURVE",
"498 425 OFFCURVE",
"480 425 CURVE SMOOTH"
);
}
);
userData = {
assembly = "SVTCA[0]\011/* SetFreedomAndProjectionVectorToAxis */
IUP[0]\011/* InterpolateUntPts */
IUP[1]\011/* InterpolateUntPts */";
};
vertWidth = 1000;
width = 612;
}
);
note = uni3043;
unicode = 3043;
},
{
color = 0;
glyphname = "u-hira";
lastChange = "2019-12-12 01:48:23 +0000";
layers = (
{
layerId = "47F7128E-F1A6-4572-9BDC-88462FF34A66";
paths = (
{
closed = 1;
nodes = (
"99 726 OFFCURVE",
"97 718 OFFCURVE",
"97 692 CURVE SMOOTH",
"97 680 OFFCURVE",
"678 573 OFFCURVE",
"722 573 CURVE SMOOTH",
"739 573 OFFCURVE",
"750 587 OFFCURVE",
"750 605 CURVE SMOOTH",
"750 639 OFFCURVE",
"209 726 OFFCURVE",
"128 726 CURVE"
);
},
{
closed = 1;
nodes = (
"236 486 OFFCURVE",
"45 423 OFFCURVE",
"45 397 CURVE SMOOTH",
"45 371 OFFCURVE",
"57 366 OFFCURVE",
"68 366 CURVE SMOOTH",
"79 366 OFFCURVE",
"121 366 OFFCURVE",
"137 366 CURVE SMOOTH",
"153 366 OFFCURVE",
"250 417 OFFCURVE",
"473 417 CURVE SMOOTH",
"590 417 OFFCURVE",
"649 411 OFFCURVE",
"649 341 CURVE SMOOTH",
"649 113 OFFCURVE",
"348 60 OFFCURVE",
"348 49 CURVE SMOOTH",
"348 31 OFFCURVE",
"415 3 OFFCURVE",
"446 3 CURVE SMOOTH",
"477 3 OFFCURVE",
"776 113 OFFCURVE",
"776 293 CURVE SMOOTH",
"776 473 OFFCURVE",
"585 486 OFFCURVE",
"474 486 CURVE"
);
}
);
userData = {
assembly = "SVTCA[0]\011/* SetFreedomAndProjectionVectorToAxis */
IUP[0]\011/* InterpolateUntPts */
IUP[1]\011/* InterpolateUntPts */";
};
vertWidth = 1000;
width = 821;
}
);
note = uni3046;
unicode = 3046;
},
{
color = 0;
glyphname = "usmall-hira";
lastChange = "2019-12-12 01:48:24 +0000";
layers = (
{
layerId = "47F7128E-F1A6-4572-9BDC-88462FF34A66";
paths = (
{
closed = 1;
nodes = (
"101 589 OFFCURVE",
"90 584 OFFCURVE",
"90 575 CURVE SMOOTH",
"90 562 OFFCURVE",
"473 427 OFFCURVE",
"493 427 CURVE SMOOTH",
"509 427 OFFCURVE",
"519 438 OFFCURVE",
"519 455 CURVE SMOOTH",
"519 467 OFFCURVE",
"200 589 OFFCURVE",
"147 589 CURVE SMOOTH"
);
},
{
closed = 1;
nodes = (
"223 402 OFFCURVE",
"45 314 OFFCURVE",
"45 293 CURVE SMOOTH",
"45 275 OFFCURVE",
"52 267 OFFCURVE",
"67 267 CURVE SMOOTH",
"74 267 OFFCURVE",
"101 267 OFFCURVE",
"110 267 CURVE SMOOTH",
"113 267 OFFCURVE",
"124 268 OFFCURVE",
"134 276 CURVE SMOOTH",
"180 313 OFFCURVE",
"266 345 OFFCURVE",
"372 345 CURVE SMOOTH",
"436 345 OFFCURVE",
"474 309 OFFCURVE",
"474 249 CURVE SMOOTH",
"474 164 OFFCURVE",
"357 94 OFFCURVE",
"264 58 CURVE SMOOTH",
"243 50 OFFCURVE",
"237 45 OFFCURVE",
"237 44 CURVE SMOOTH",
"237 32 OFFCURVE",
"282 6 OFFCURVE",
"305 6 CURVE SMOOTH",
"326 6 OFFCURVE",
"567 73 OFFCURVE",
"567 213 CURVE SMOOTH",
"567 351 OFFCURVE",
"444 402 OFFCURVE",
"372 402 CURVE SMOOTH"
);
}
);
userData = {
assembly = "SVTCA[0]\011/* SetFreedomAndProjectionVectorToAxis */
IUP[0]\011/* InterpolateUntPts */
IUP[1]\011/* InterpolateUntPts */";
};
vertWidth = 1000;
width = 612;
}
);
note = uni3045;
unicode = 3045;
},
{
color = 0;
glyphname = "e-hira";
lastChange = "2019-12-12 01:48:26 +0000";
layers = (
{
layerId = "47F7128E-F1A6-4572-9BDC-88462FF34A66";
paths = (
{
closed = 1;
nodes = (
"109 735 OFFCURVE",
"103 719 OFFCURVE",
"103 700 CURVE SMOOTH",
"103 667 OFFCURVE",
"623 594 OFFCURVE",
"691 594 CURVE SMOOTH",
"711 594 OFFCURVE",
"721 604 OFFCURVE",
"721 625 CURVE SMOOTH",
"721 640 OFFCURVE",
"189 735 OFFCURVE",
"166 735 CURVE SMOOTH"
);
},
{
closed = 1;
nodes = (
"656 550 OFFCURVE",
"126 550 OFFCURVE",
"88 550 CURVE SMOOTH",
"50 550 OFFCURVE",
"45 536 OFFCURVE",
"45 524 CURVE SMOOTH",
"45 512 OFFCURVE",
"57 499 OFFCURVE",
"107 499 CURVE SMOOTH",
"157 499 OFFCURVE",
"453 499 OFFCURVE",
"496 499 CURVE SMOOTH",
"539 499 OFFCURVE",
"576 495 OFFCURVE",
"545 467 CURVE SMOOTH",
"513 438 OFFCURVE",
"131 89 OFFCURVE",
"110 66 CURVE SMOOTH",
"89 43 OFFCURVE",
"75 2 OFFCURVE",
"101 2 CURVE SMOOTH",
"127 2 OFFCURVE",
"140 2 OFFCURVE",
"159 2 CURVE SMOOTH",
"178 2 OFFCURVE",
"200 17 OFFCURVE",
"214 33 CURVE SMOOTH",
"228 49 OFFCURVE",
"717 467 OFFCURVE",
"737 485 CURVE SMOOTH",
"776 520 OFFCURVE",
"784 550 OFFCURVE",
"707 550 CURVE"
);
},
{
closed = 1;
nodes = (
"430 295 OFFCURVE",
"362 286 OFFCURVE",
"362 271 CURVE SMOOTH",
"362 208 LINE",
"379 219 OFFCURVE",
"392 243 OFFCURVE",
"414 243 CURVE SMOOTH",
"436 243 OFFCURVE",
"494 228 OFFCURVE",
"494 155 CURVE SMOOTH",
"494 82 OFFCURVE",
"548 17 OFFCURVE",
"629 17 CURVE SMOOTH",
"710 17 OFFCURVE",
"735 17 OFFCURVE",
"746 17 CURVE SMOOTH",
"758 17 OFFCURVE",
"779 29 OFFCURVE",
"779 42 CURVE SMOOTH",
"779 56 OFFCURVE",
"763 62 OFFCURVE",
"740 62 CURVE SMOOTH",
"716 62 OFFCURVE",
"697 65 OFFCURVE",
"680 65 CURVE SMOOTH",
"663 65 OFFCURVE",
"607 80 OFFCURVE",
"607 163 CURVE SMOOTH",
"607 244 OFFCURVE",
"527 290 OFFCURVE",
"479 295 CURVE"
);
}
);
userData = {
assembly = "SVTCA[0]\011/* SetFreedomAndProjectionVectorToAxis */
PUSHB[ ]\011/* 4 values pushed */
64 48 90 0 
CALL[ ]\011/* CallFunction */
IUP[0]\011/* InterpolateUntPts */
IUP[1]\011/* InterpolateUntPts */";
};
vertWidth = 1000;
width = 824;
}
);
note = uni3048;
unicode = 3048;
},
{
color = 0;
glyphname = "esmall-hira";
lastChange = "2019-12-12 01:48:27 +0000";
layers = (
{
layerId = "47F7128E-F1A6-4572-9BDC-88462FF34A66";
paths = (
{
closed = 1;
nodes = (
"100 599 OFFCURVE",
"64 582 OFFCURVE",
"64 570 CURVE SMOOTH",
"64 556 OFFCURVE",
"466 469 OFFCURVE",
"530 469 CURVE SMOOTH",
"552 469 OFFCURVE",
"565 478 OFFCURVE",
"565 495 CURVE SMOOTH",
"565 506 OFFCURVE",
"148 599 OFFCURVE",
"127 599 CURVE SMOOTH"
);
},
{
closed = 1;
nodes = (
"478 424 OFFCURVE",
"118 424 OFFCURVE",
"89 424 CURVE SMOOTH",
"62 424 OFFCURVE",
"45 416 OFFCURVE",
"45 402 CURVE SMOOTH",
"45 388 OFFCURVE",
"69 380 OFFCURVE",
"104 380 CURVE SMOOTH",
"143 380 OFFCURVE",
"347 380 OFFCURVE",
"382 380 CURVE SMOOTH",
"421 380 OFFCURVE",
"431 374 OFFCURVE",
"416 360 CURVE SMOOTH",
"341 290 OFFCURVE",
"93 65 OFFCURVE",
"85 57 CURVE SMOOTH",
"59 30 OFFCURVE",
"57 4 OFFCURVE",
"88 4 CURVE SMOOTH",
"109 4 OFFCURVE",
"119 4 OFFCURVE",
"133 4 CURVE SMOOTH",
"152 4 OFFCURVE",
"174 17 OFFCURVE",
"182 28 CURVE SMOOTH",
"193 44 OFFCURVE",
"536 356 OFFCURVE",
"551 370 CURVE SMOOTH",
"591 406 OFFCURVE",
"580 424 OFFCURVE",
"518 424 CURVE SMOOTH"
);
},
{
closed = 1;
nodes = (
"310 238 OFFCURVE",
"263 204 OFFCURVE",
"263 194 CURVE SMOOTH",
"263 157 LINE",
"273 163 OFFCURVE",
"282 169 OFFCURVE",
"289 177 CURVE SMOOTH",
"300 189 OFFCURVE",
"305 193 OFFCURVE",
"308 193 CURVE SMOOTH",
"336 193 OFFCURVE",
"357 164 OFFCURVE",
"357 124 CURVE SMOOTH",
"357 61 OFFCURVE",
"385 13 OFFCURVE",
"444 13 CURVE SMOOTH",
"502 13 OFFCURVE",
"539 13 OFFCURVE",
"549 13 CURVE SMOOTH",
"562 13 OFFCURVE",
"580 24 OFFCURVE",
"580 34 CURVE SMOOTH",
"580 45 OFFCURVE",
"565 52 OFFCURVE",
"545 52 CURVE SMOOTH",
"536 52 OFFCURVE",
"521 53 OFFCURVE",
"508 54 CURVE SMOOTH",
"497 55 OFFCURVE",
"486 54 OFFCURVE",
"481 54 CURVE SMOOTH",
"456 54 OFFCURVE",
"453 88 OFFCURVE",
"453 131 CURVE SMOOTH",
"453 188 OFFCURVE",
"401 238 OFFCURVE",
"354 238 CURVE SMOOTH"
);
}
);
userData = {
assembly = "SVTCA[0]\011/* SetFreedomAndProjectionVectorToAxis */
PUSHB[ ]\011/* 4 values pushed */
28 1 22 0 
CALL[ ]\011/* CallFunction */
IUP[0]\011/* InterpolateUntPts */
IUP[1]\011/* InterpolateUntPts */";
};
vertWidth = 1000;
width = 625;
}
);
note = uni3047;
unicode = 3047;
},
{
color = 0;
glyphname = "o-hira";
lastChange = "2019-12-12 01:48:28 +0000";
layers = (
{
layerId = "47F7128E-F1A6-4572-9BDC-88462FF34A66";
paths = (
{
closed = 1;
nodes = (
"347 730 LINE SMOOTH",
"333 730 OFFCURVE",
"319 712 OFFCURVE",
"319 689 CURVE SMOOTH",
"319 272 LINE SMOOTH",
"319 113 OFFCURVE",
"293 61 OFFCURVE",
"280 61 CURVE SMOOTH",
"237 61 OFFCURVE",
"179 69 OFFCURVE",
"179 208 CURVE SMOOTH",
"179 348 OFFCURVE",
"310 397 OFFCURVE",
"433 397 CURVE SMOOTH",
"555 397 OFFCURVE",
"651 366 OFFCURVE",
"651 233 CURVE SMOOTH",
"651 121 OFFCURVE",
"586 69 OFFCURVE",
"544 50 CURVE SMOOTH",
"515 37 OFFCURVE",
"514 31 OFFCURVE",
"533 23 CURVE SMOOTH",
"556 14 OFFCURVE",
"591 7 OFFCURVE",
"610 3 CURVE SMOOTH",
"623 0 OFFCURVE",
"630 2 OFFCURVE",
"645 11 CURVE SMOOTH",
"696 42 OFFCURVE",
"779 109 OFFCURVE",
"779 238 CURVE SMOOTH",
"779 364 OFFCURVE",
"671 448 OFFCURVE",
"439 448 CURVE SMOOTH",
"207 448 OFFCURVE",
"48 342 OFFCURVE",
"48 182 CURVE SMOOTH",
"48 22 OFFCURVE",
"123 1 OFFCURVE",
"263 1 CURVE SMOOTH",
"373 1 OFFCURVE",
"440 80 OFFCURVE",
"440 240 CURVE SMOOTH",
"440 685 LINE SMOOTH",
"440 714 OFFCURVE",
"425 730 OFFCURVE",
"407 730 CURVE SMOOTH"
);
},
{
closed = 1;
nodes = (
"45 599 OFFCURVE",
"60 587 OFFCURVE",
"79 587 CURVE SMOOTH",
"510 587 LINE SMOOTH",
"529 587 OFFCURVE",
"544 599 OFFCURVE",
"544 615 CURVE SMOOTH",
"544 631 OFFCURVE",
"529 642 OFFCURVE",
"510 642 CURVE SMOOTH",
"79 642 LINE SMOOTH",
"60 642 OFFCURVE",
"45 631 OFFCURVE",
"45 615 CURVE SMOOTH"
);
},
{
closed = 1;
nodes = (
"595 668 LINE SMOOTH",
"574 661 OFFCURVE",
"565 641 OFFCURVE",
"574 620 CURVE SMOOTH",
"637 481 LINE SMOOTH",
"644 465 OFFCURVE",
"661 458 OFFCURVE",
"677 464 CURVE SMOOTH",
"739 486 LINE SMOOTH",
"758 493 OFFCURVE",
"767 512 OFFCURVE",
"759 532 CURVE",
"700 670 LINE SMOOTH",
"693 686 OFFCURVE",
"676 693 OFFCURVE",
"660 688 CURVE SMOOTH"
);
}
);
userData = {
assembly = "SVTCA[0]\011/* SetFreedomAndProjectionVectorToAxis */
PUSHB[ ]\011/* 4 values pushed */
133 51 139 0 
CALL[ ]\011/* CallFunction */
IUP[0]\011/* InterpolateUntPts */
IUP[1]\011/* InterpolateUntPts */";
};
vertWidth = 1000;
width = 824;
},
{
associatedMasterId = "47F7128E-F1A6-4572-9BDC-88462FF34A66";
background = {
paths = (
{
closed = 1;
nodes = (
"247 -42 OFFCURVE",
"258 -40 QCURVE",
"310 -37 OFFCURVE",
"361 -28 QCURVE SMOOTH",
"385 -23 OFFCURVE",
"405 -9 QCURVE SMOOTH",
"422 1 OFFCURVE",
"438 14 QCURVE",
"452 29 OFFCURVE",
"459 51 QCURVE",
"468 70 OFFCURVE",
"478 90 QCURVE",
"488 138 OFFCURVE",
"492 188 QCURVE SMOOTH",
"494 215 OFFCURVE",
"494 243 QCURVE SMOOTH",
"493 269 OFFCURVE",
"491 294 QCURVE",
"493 317 OFFCURVE",
"492 343 QCURVE",
"487 362 OFFCURVE",
"505 370 QCURVE",
"525 374 OFFCURVE",
"546 372 QCURVE SMOOTH",
"570 370 OFFCURVE",
"595 369 QCURVE SMOOTH",
"620 368 OFFCURVE",
"645 366 QCURVE",
"666 361 OFFCURVE",
"688 355 QCURVE SMOOTH",
"731 342 OFFCURVE",
"771 319 QCURVE SMOOTH",
"810 295 OFFCURVE",
"814 250 QCURVE SMOOTH",
"819 197 OFFCURVE",
"811 146 QCURVE SMOOTH",
"806 110 OFFCURVE",
"793 77 QCURVE SMOOTH",
"780 46 OFFCURVE",
"756 24 QCURVE",
"724 4 OFFCURVE",
"687 9 QCURVE",
"660 9 OFFCURVE",
"635 6 QCURVE SMOOTH",
"612 5 OFFCURVE",
"607 -14 QCURVE",
"628 -51 OFFCURVE",
"674 -41 QCURVE",
"725 -41 OFFCURVE",
"774 -35 QCURVE SMOOTH",
"820 -32 OFFCURVE",
"859 -7 QCURVE",
"875 7 OFFCURVE",
"888 25 QCURVE",
"895 31 OFFCURVE",
"901 38 QCURVE",
"905 45 OFFCURVE",
"907 54 QCURVE",
"912 59 OFFCURVE",
"918 65 QCURVE",
"919 76 OFFCURVE",
"922 88 QCURVE SMOOTH",
"927 112 OFFCURVE",
"933 138 QCURVE SMOOTH",
"961 235 OFFCURVE",
"912 323 QCURVE",
"884 354 OFFCURVE",
"847 373 QCURVE SMOOTH",
"803 395 OFFCURVE",
"757 402 QCURVE SMOOTH",
"652 420 OFFCURVE",
"547 420 QCURVE",
"523 415 OFFCURVE",
"501 422 QCURVE",
"486 433 OFFCURVE",
"488 453 QCURVE",
"484 477 OFFCURVE",
"485 502 QCURVE SMOOTH",
"484 520 OFFCURVE",
"503 523 QCURVE",
"526 521 OFFCURVE",
"551 521 QCURVE",
"573 526 OFFCURVE",
"597 520 QCURVE",
"620 510 OFFCURVE",
"645 518 QCURVE SMOOTH",
"653 521 OFFCURVE",
"665 525 QCURVE",
"674 525 OFFCURVE",
"684 527 QCURVE",
"703 534 OFFCURVE",
"696 554 QCURVE",
"683 569 OFFCURVE",
"661 575 QCURVE SMOOTH",
"635 580 OFFCURVE",
"607 582 QCURVE",
"597 584 OFFCURVE",
"587 581 QCURVE",
"580 576 OFFCURVE",
"574 577 QCURVE SMOOTH",
"575 577 OFFCURVE",
"575 576 QCURVE",
"570 569 OFFCURVE",
"563 570 QCURVE",
"555 568 OFFCURVE",
"547 565 QCURVE",
"525 563 OFFCURVE",
"505 568 QCURVE",
"479 579 OFFCURVE",
"488 610 QCURVE",
"487 634 OFFCURVE",
"489 656 QCURVE SMOOTH",
"491 679 OFFCURVE",
"494 702 QCURVE",
"502 738 OFFCURVE",
"476 761 QCURVE",
"458 766 OFFCURVE",
"441 763 QCURVE SMOOTH",
"419 761 OFFCURVE",
"396 762 QCURVE",
"363 749 OFFCURVE",
"374 712 QCURVE",
"371 668 OFFCURVE",
"369 623 QCURVE",
"370 602 OFFCURVE",
"370 580 QCURVE SMOOTH",
"369 566 OFFCURVE",
"357 563 QCURVE SMOOTH",
"333 559 OFFCURVE",
"308 563 QCURVE",
"282 563 OFFCURVE",
"259 561 QCURVE SMOOTH",
"207 559 OFFCURVE",
"154 561 QCURVE",
"120 566 OFFCURVE",
"95 547 QCURVE",
"95 524 OFFCURVE",
"117 520 QCURVE SMOOTH",
"139 515 OFFCURVE",
"160 518 QCURVE SMOOTH",
"186 520 OFFCURVE",
"212 518 QCURVE SMOOTH",
"229 515 OFFCURVE",
"246 519 QCURVE SMOOTH",
"255 521 OFFCURVE",
"265 519 QCURVE SMOOTH",
"276 517 OFFCURVE",
"289 519 QCURVE SMOOTH",
"308 520 OFFCURVE",
"326 521 QCURVE SMOOTH",
"344 525 OFFCURVE",
"360 520 QCURVE",
"373 506 OFFCURVE",
"371 486 QCURVE",
"372 463 OFFCURVE",
"375 440 QCURVE SMOOTH",
"377 423 OFFCURVE",
"364 411 QCURVE",
"338 398 OFFCURVE",
"310 403 QCURVE",
"296 402 OFFCURVE",
"285 397 QCURVE",
"277 391 OFFCURVE",
"268 387 QCURVE SMOOTH",
"245 380 OFFCURVE",
"225 370 QCURVE SMOOTH",
"140 324 OFFCURVE",
"111 233 QCURVE SMOOTH",
"82 136 OFFCURVE",
"116 42 QCURVE SMOOTH",
"121 28 OFFCURVE",
"128 17 QCURVE SMOOTH",
"134 9 OFFCURVE",
"143 3 QCURVE",
"147 -5 OFFCURVE",
"154 -12 QCURVE SMOOTH",
"162 -19 OFFCURVE",
"172 -22 QCURVE",
"188 -38 OFFCURVE",
"211 -40 QCURVE",
"226 -34 OFFCURVE",
"236 -43 QCURVE",
"236 -43 LINE"
);
},
{
closed = 1;
nodes = (
"278 5 OFFCURVE",
"262 25 QCURVE",
"249 34 OFFCURVE",
"240 47 QCURVE",
"228 57 OFFCURVE",
"222 71 QCURVE SMOOTH",
"207 102 OFFCURVE",
"211 135 QCURVE",
"211 142 OFFCURVE",
"211 150 QCURVE",
"209 156 OFFCURVE",
"207 162 QCURVE",
"207 167 OFFCURVE",
"210 172 QCURVE",
"211 179 OFFCURVE",
"210 186 QCURVE",
"212 176 OFFCURVE",
"206 172 QCURVE",
"207 188 OFFCURVE",
"211 206 QCURVE SMOOTH",
"215 218 OFFCURVE",
"221 230 QCURVE",
"220 227 OFFCURVE",
"218 226 QCURVE",
"217 237 OFFCURVE",
"223 245 QCURVE",
"229 248 OFFCURVE",
"230 255 QCURVE",
"229 254 OFFCURVE",
"229 254 QCURVE",
"236 270 OFFCURVE",
"251 281 QCURVE",
"265 297 OFFCURVE",
"281 311 QCURVE SMOOTH",
"296 321 OFFCURVE",
"310 335 QCURVE",
"324 345 OFFCURVE",
"342 351 QCURVE SMOOTH",
"355 356 OFFCURVE",
"369 354 QCURVE",
"382 337 OFFCURVE",
"377 316 QCURVE",
"378 229 OFFCURVE",
"376 142 QCURVE",
"371 98 OFFCURVE",
"352 59 QCURVE SMOOTH",
"343 39 OFFCURVE",
"329 26 QCURVE",
"323 19 OFFCURVE",
"316 14 QCURVE",
"309 14 OFFCURVE",
"302 13 QCURVE",
"302 13 LINE"
);
},
{
closed = 1;
nodes = (
"878 513 OFFCURVE",
"914 525 QCURVE",
"938 530 OFFCURVE",
"946 554 QCURVE",
"944 579 OFFCURVE",
"920 591 QCURVE",
"897 609 OFFCURVE",
"880 633 QCURVE",
"868 642 OFFCURVE",
"859 652 QCURVE SMOOTH",
"850 667 OFFCURVE",
"838 681 QCURVE",
"832 685 OFFCURVE",
"825 688 QCURVE SMOOTH",
"819 693 OFFCURVE",
"817 700 QCURVE",
"808 713 OFFCURVE",
"797 723 QCURVE",
"784 745 OFFCURVE",
"762 757 QCURVE",
"747 756 OFFCURVE",
"733 751 QCURVE",
"727 750 OFFCURVE",
"720 749 QCURVE",
"715 746 OFFCURVE",
"710 744 QCURVE",
"710 745 OFFCURVE",
"712 745 QCURVE",
"703 741 OFFCURVE",
"695 738 QCURVE",
"696 738 OFFCURVE",
"696 737 QCURVE",
"684 730 OFFCURVE",
"673 726 QCURVE SMOOTH",
"665 723 OFFCURVE",
"660 717 QCURVE",
"651 695 OFFCURVE",
"669 680 QCURVE",
"686 660 OFFCURVE",
"699 640 QCURVE SMOOTH",
"706 631 OFFCURVE",
"716 625 QCURVE",
"723 617 OFFCURVE",
"729 610 QCURVE SMOOTH",
"736 602 OFFCURVE",
"747 598 QCURVE",
"754 593 OFFCURVE",
"757 585 QCURVE",
"768 564 OFFCURVE",
"785 552 QCURVE",
"800 536 OFFCURVE",
"813 520 QCURVE",
"817 511 OFFCURVE",
"825 507 QCURVE",
"834 505 OFFCURVE",
"844 501 QCURVE",
"844 501 LINE"
);
}
);
};
layerId = "F18CCAB9-79C6-4619-AF25-A2A823B7E488";
name = other_1;
paths = (
{
closed = 1;
nodes = (
"435 -26 OFFCURVE",
"576 18 OFFCURVE",
"576 181 CURVE SMOOTH",
"576 240 OFFCURVE",
"571 372 OFFCURVE",
"571 371 CURVE SMOOTH",
"571 379 OFFCURVE",
"575 385 OFFCURVE",
"589 385 CURVE SMOOTH",
"671 385 OFFCURVE",
"785 297 OFFCURVE",
"790 213 CURVE SMOOTH",
"790 142 OFFCURVE",
"726 58 OFFCURVE",
"640 34 CURVE",
"633 27 OFFCURVE",
"629 21 OFFCURVE",
"629 18 CURVE SMOOTH",
"629 17 LINE SMOOTH",
"629 -1 OFFCURVE",
"676 0 OFFCURVE",
"694 0 CURVE",
"819 -9 OFFCURVE",
"922 90 OFFCURVE",
"922 203 CURVE SMOOTH",
"922 369 OFFCURVE",
"750 426 OFFCURVE",
"571 438 CURVE",
"570 444 OFFCURVE",
"568 455 OFFCURVE",
"568 465 CURVE SMOOTH",
"568 479 OFFCURVE",
"571 490 OFFCURVE",
"588 490 CURVE SMOOTH",
"593 490 LINE SMOOTH",
"660 488 OFFCURVE",
"704 488 OFFCURVE",
"733 488 CURVE SMOOTH",
"777 488 OFFCURVE",
"798 484 OFFCURVE",
"804 513 CURVE",
"804 533 OFFCURVE",
"774 538 OFFCURVE",
"725 538 CURVE SMOOTH",
"693 538 OFFCURVE",
"651 535 OFFCURVE",
"605 535 CURVE SMOOTH",
"576 536 OFFCURVE",
"568 557 OFFCURVE",
"569 582 CURVE SMOOTH",
"571 625 OFFCURVE",
"573 656 OFFCURVE",
"573 680 CURVE SMOOTH",
"573 752 OFFCURVE",
"573 753 OFFCURVE",
"502 757 CURVE SMOOTH",
"466 757 OFFCURVE",
"430 750 OFFCURVE",
"430 731 CURVE SMOOTH",
"432 559 LINE SMOOTH",
"432 541 OFFCURVE",
"430 541 OFFCURVE",
"416 540 CURVE SMOOTH",
"391 538 OFFCURVE",
"273 541 OFFCURVE",
"218 541 CURVE SMOOTH",
"182 541 OFFCURVE",
"137 533 OFFCURVE",
"137 512 CURVE SMOOTH",
"137 504 OFFCURVE",
"145 496 OFFCURVE",
"157 492 CURVE SMOOTH",
"380 489 OFFCURVE",
"390 488 OFFCURVE",
"397 489 CURVE",
"416 489 LINE SMOOTH",
"427 489 OFFCURVE",
"430 486 OFFCURVE",
"430 469 CURVE SMOOTH",
"430 462 OFFCURVE",
"430 451 OFFCURVE",
"429 439 CURVE",
"430 434 OFFCURVE",
"429 428 OFFCURVE",
"424 424 CURVE",
"240 402 OFFCURVE",
"107 309 OFFCURVE",
"110 158 CURVE SMOOTH",
"110 72 OFFCURVE",
"157 -26 OFFCURVE",
"266 -26 CURVE SMOOTH"
);
},
{
closed = 1;
nodes = (
"278 36 OFFCURVE",
"242 103 OFFCURVE",
"242 173 CURVE SMOOTH",
"242 262 OFFCURVE",
"335 369 OFFCURVE",
"419 372 CURVE SMOOTH",
"425 372 OFFCURVE",
"430 370 OFFCURVE",
"430 364 CURVE SMOOTH",
"430 362 LINE SMOOTH",
"432 311 OFFCURVE",
"437 240 OFFCURVE",
"439 184 CURVE SMOOTH",
"439 121 OFFCURVE",
"410 36 OFFCURVE",
"356 36 CURVE SMOOTH"
);
},
{
closed = 1;
nodes = (
"850 565 OFFCURVE",
"928 579 OFFCURVE",
"928 602 CURVE SMOOTH",
"928 624 OFFCURVE",
"779 725 OFFCURVE",
"740 736 CURVE SMOOTH",
"726 740 OFFCURVE",
"640 717 OFFCURVE",
"640 701 CURVE SMOOTH",
"640 691 OFFCURVE",
"805 571 OFFCURVE",
"821 569 CURVE SMOOTH"
);
}
);
userData = {
assembly = "SVTCA[0]\011/* SetFreedomAndProjectionVectorToAxis */
PUSHB[ ]\011/* 4 values pushed */
133 51 139 0 
CALL[ ]\011/* CallFunction */
IUP[0]\011/* InterpolateUntPts */
IUP[1]\011/* InterpolateUntPts */";
};
vertWidth = 1000;
width = 1035;
}
);
note = uni304A;
unicode = 304A;
},
{
color = 0;
glyphname = "osmall-hira";
lastChange = "2019-12-12 01:48:30 +0000";
layers = (
{
layerId = "47F7128E-F1A6-4572-9BDC-88462FF34A66";
paths = (
{
closed = 1;
nodes = (
"274 609 LINE SMOOTH",
"256 609 OFFCURVE",
"242 594 OFFCURVE",
"242 575 CURVE SMOOTH",
"242 236 LINE SMOOTH",
"242 125 OFFCURVE",
"237 70 OFFCURVE",
"209 70 CURVE SMOOTH",
"174 70 OFFCURVE",
"165 104 OFFCURVE",
"165 185 CURVE SMOOTH",
"165 296 OFFCURVE",
"210 332 OFFCURVE",
"304 332 CURVE SMOOTH",
"434 332 OFFCURVE",
"458 290 OFFCURVE",
"458 204 CURVE SMOOTH",
"458 138 OFFCURVE",
"443 95 OFFCURVE",
"408 62 CURVE",
"380 46 OFFCURVE",
"379 45 OFFCURVE",
"404 35 CURVE SMOOTH",
"414 31 OFFCURVE",
"439 25 OFFCURVE",
"464 20 CURVE SMOOTH",
"475 18 OFFCURVE",
"484 19 OFFCURVE",
"520 38 CURVE SMOOTH",
"568 64 OFFCURVE",
"576 131 OFFCURVE",
"576 208 CURVE SMOOTH",
"576 309 OFFCURVE",
"492 377 OFFCURVE",
"308 377 CURVE SMOOTH",
"119 377 OFFCURVE",
"45 289 OFFCURVE",
"45 164 CURVE SMOOTH",
"45 37 OFFCURVE",
"104 19 OFFCURVE",
"215 19 CURVE SMOOTH",
"315 19 OFFCURVE",
"353 88 OFFCURVE",
"353 211 CURVE SMOOTH",
"353 572 LINE SMOOTH",
"353 595 OFFCURVE",
"339 609 OFFCURVE",
"316 609 CURVE SMOOTH"
);
},
{
closed = 1;
nodes = (
"47 471 OFFCURVE",
"65 460 OFFCURVE",
"85 460 CURVE SMOOTH",
"388 460 LINE SMOOTH",
"409 460 OFFCURVE",
"426 470 OFFCURVE",
"426 484 CURVE SMOOTH",
"426 496 OFFCURVE",
"408 506 OFFCURVE",
"388 506 CURVE SMOOTH",
"85 506 LINE SMOOTH",
"65 506 OFFCURVE",
"47 496 OFFCURVE",
"47 484 CURVE SMOOTH"
);
},
{
closed = 1;
nodes = (
"447 573 LINE SMOOTH",
"425 565 OFFCURVE",
"414 553 OFFCURVE",
"424 533 CURVE SMOOTH",
"476 426 LINE SMOOTH",
"481 415 OFFCURVE",
"506 406 OFFCURVE",
"521 412 CURVE SMOOTH",
"551 425 LINE SMOOTH",
"573 434 OFFCURVE",
"581 445 OFFCURVE",
"574 464 CURVE",
"525 570 LINE SMOOTH",
"519 582 OFFCURVE",
"496 591 OFFCURVE",
"479 585 CURVE SMOOTH"
);
}
);
userData = {
assembly = "NPUSHB[ ]\011/* 9 values pushed */
165 119 69 68 67 28 4 206 17 
CALL[ ]\011/* CallFunction */
SVTCA[0]\011/* SetFreedomAndProjectionVectorToAxis */
PUSHW[ ]\011/* 2 values pushed */
261 260 
PUSHB[ ]\011/* 1 value pushed */
2 
PUSHW[ ]\011/* 1 value pushed */
258 
PUSHB[ ]\011/* 1 value pushed */
1 
CALL[ ]\011/* CallFunction */
IUP[0]\011/* InterpolateUntPts */
IUP[1]\011/* InterpolateUntPts */";
};
vertWidth = 1000;
width = 621;
}
);
note = uni3049;
unicode = 3049;
},
{
color = 0;
glyphname = "ka-hira";
lastChange = "2019-12-12 01:48:31 +0000";
layers = (
{
layerId = "47F7128E-F1A6-4572-9BDC-88462FF34A66";
paths = (
{
closed = 1;
nodes = (
"144 531 LINE SMOOTH",
"104 531 OFFCURVE",
"45 527 OFFCURVE",
"45 506 CURVE SMOOTH",
"45 485 OFFCURVE",
"79 484 OFFCURVE",
"120 484 CURVE SMOOTH",
"396 484 LINE SMOOTH",
"471 484 OFFCURVE",
"496 449 OFFCURVE",
"496 339 CURVE SMOOTH",
"496 222 OFFCURVE",
"371 61 OFFCURVE",
"351 40 CURVE SMOOTH",
"332 20 OFFCURVE",
"351 6 OFFCURVE",
"376 6 CURVE SMOOTH",
"444 6 LINE SMOOTH",
"454 6 OFFCURVE",
"476 15 OFFCURVE",
"505 50 CURVE SMOOTH",
"534 85 OFFCURVE",
"614 241 OFFCURVE",
"614 335 CURVE SMOOTH",
"614 477 OFFCURVE",
"582 531 OFFCURVE",
"480 531 CURVE SMOOTH"
);
},
{
closed = 1;
nodes = (
"362 749 LINE SMOOTH",
"346 749 OFFCURVE",
"340 745 OFFCURVE",
"334 731 CURVE SMOOTH",
"69 62 LINE SMOOTH",
"52 19 OFFCURVE",
"57 8 OFFCURVE",
"105 8 CURVE SMOOTH",
"147 8 LINE SMOOTH",
"162 8 OFFCURVE",
"169 12 OFFCURVE",
"175 27 CURVE SMOOTH",
"430 695 LINE SMOOTH",
"446 738 OFFCURVE",
"440 749 OFFCURVE",
"397 749 CURVE SMOOTH"
);
},
{
closed = 1;
nodes = (
"679 142 LINE SMOOTH",
"681 120 OFFCURVE",
"688 114 OFFCURVE",
"711 114 CURVE SMOOTH",
"760 114 LINE SMOOTH",
"792 114 OFFCURVE",
"798 122 OFFCURVE",
"795 154 CURVE SMOOTH",
"755 576 LINE SMOOTH",
"753 598 OFFCURVE",
"746 604 OFFCURVE",
"723 604 CURVE SMOOTH",
"674 604 LINE SMOOTH",
"642 604 OFFCURVE",
"636 596 OFFCURVE",
"639 564 CURVE SMOOTH"
);
}
);
userData = {
assembly = "SVTCA[0]\011/* SetFreedomAndProjectionVectorToAxis */
IUP[0]\011/* InterpolateUntPts */
IUP[1]\011/* InterpolateUntPts */";
};
vertWidth = 1000;
width = 841;
}
);
note = uni304B;
unicode = 304B;
},
{
color = 0;
glyphname = "ki-hira";
lastChange = "2019-12-12 01:48:33 +0000";
layers = (
{
layerId = "47F7128E-F1A6-4572-9BDC-88462FF34A66";
paths = (
{
closed = 1;
nodes = (
"58 561 OFFCURVE",
"73 550 OFFCURVE",
"92 550 CURVE SMOOTH",
"684 550 LINE SMOOTH",
"703 550 OFFCURVE",
"718 562 OFFCURVE",
"718 577 CURVE SMOOTH",
"718 592 OFFCURVE",
"703 604 OFFCURVE",
"684 604 CURVE SMOOTH",
"92 604 LINE SMOOTH",
"73 604 OFFCURVE",
"58 592 OFFCURVE",
"58 577 CURVE SMOOTH"
);
},
{
closed = 1;
nodes = (
"58 391 OFFCURVE",
"73 380 OFFCURVE",
"92 380 CURVE SMOOTH",
"734 380 LINE SMOOTH",
"753 380 OFFCURVE",
"768 392 OFFCURVE",
"768 407 CURVE SMOOTH",
"768 422 OFFCURVE",
"753 434 OFFCURVE",
"734 434 CURVE SMOOTH",
"92 434 LINE SMOOTH",
"73 434 OFFCURVE",
"58 422 OFFCURVE",
"58 407 CURVE SMOOTH"
);
},
{
closed = 1;
nodes = (
"438 753 LINE SMOOTH",
"397 753 OFFCURVE",
"387 743 OFFCURVE",
"393 701 CURVE SMOOTH",
"465 211 LINE SMOOTH",
"468 193 OFFCURVE",
"472 189 OFFCURVE",
"490 189 CURVE SMOOTH",
"541 189 LINE SMOOTH",
"582 189 OFFCURVE",
"592 200 OFFCURVE",
"586 241 CURVE SMOOTH",
"514 731 LINE SMOOTH",
"511 749 OFFCURVE",
"507 753 OFFCURVE",
"489 753 CURVE SMOOTH"
);
},
{
closed = 1;
nodes = (
"174 286 OFFCURVE",
"162 286 OFFCURVE",
"137 286 CURVE SMOOTH",
"84 286 OFFCURVE",
"45 221 OFFCURVE",
"45 149 CURVE SMOOTH",
"45 92 OFFCURVE",
"126 46 OFFCURVE",
"204 46 CURVE SMOOTH",
"247 46 OFFCURVE",
"560 46 OFFCURVE",
"577 46 CURVE SMOOTH",
"594 46 OFFCURVE",
"637 52 OFFCURVE",
"637 68 CURVE SMOOTH",
"637 84 OFFCURVE",
"617 94 OFFCURVE",
"594 94 CURVE SMOOTH",
"568 94 OFFCURVE",
"318 94 OFFCURVE",
"295 94 CURVE SMOOTH",
"248 94 OFFCURVE",
"178 113 OFFCURVE",
"178 170 CURVE SMOOTH",
"178 219 OFFCURVE",
"234 259 OFFCURVE",
"234 276 CURVE SMOOTH",
"234 283 OFFCURVE",
"227 286 OFFCURVE",
"207 286 CURVE"
);
}
);
userData = {
assembly = "SVTCA[0]\011/* SetFreedomAndProjectionVectorToAxis */
NPUSHB[ ]\011/* 12 values pushed */
212 55 208 207 4 136 47 152 149 148 144 12 
CALL[ ]\011/* CallFunction */
CALL[ ]\011/* CallFunction */
IUP[0]\011/* InterpolateUntPts */
IUP[1]\011/* InterpolateUntPts */";
};
vertWidth = 1000;
width = 813;
},
{
associatedMasterId = "47F7128E-F1A6-4572-9BDC-88462FF34A66";
background = {
paths = (
{
closed = 1;
nodes = (
"555 -56 OFFCURVE",
"589 -58 QCURVE",
"606 -63 OFFCURVE",
"614 -50 QCURVE",
"634 -52 OFFCURVE",
"632 -29 QCURVE",
"624 -17 OFFCURVE",
"607 -14 QCURVE SMOOTH",
"560 -5 OFFCURVE",
"514 -12 QCURVE",
"467 -13 OFFCURVE",
"421 -7 QCURVE SMOOTH",
"375 -3 OFFCURVE",
"330 10 QCURVE SMOOTH",
"306 18 OFFCURVE",
"283 24 QCURVE",
"262 26 OFFCURVE",
"245 37 QCURVE SMOOTH",
"226 49 OFFCURVE",
"210 64 QCURVE SMOOTH",
"195 78 OFFCURVE",
"187 97 QCURVE SMOOTH",
"172 132 OFFCURVE",
"169 170 QCURVE SMOOTH",
"165 210 OFFCURVE",
"126 217 QCURVE SMOOTH",
"102 220 OFFCURVE",
"79 219 QCURVE SMOOTH",
"63 219 OFFCURVE",
"56 206 QCURVE",
"48 178 OFFCURVE",
"59 151 QCURVE",
"71 64 OFFCURVE",
"134 9 QCURVE",
"155 -5 OFFCURVE",
"179 -12 QCURVE SMOOTH",
"203 -21 OFFCURVE",
"227 -23 QCURVE SMOOTH",
"253 -28 OFFCURVE",
"280 -35 QCURVE SMOOTH",
"305 -41 OFFCURVE",
"332 -43 QCURVE SMOOTH",
"357 -47 OFFCURVE",
"384 -53 QCURVE",
"396 -54 OFFCURVE",
"407 -56 QCURVE SMOOTH",
"417 -59 OFFCURVE",
"429 -57 QCURVE",
"443 -57 OFFCURVE",
"457 -60 QCURVE SMOOTH",
"468 -62 OFFCURVE",
"480 -58 QCURVE",
"490 -61 OFFCURVE",
"500 -62 QCURVE",
"510 -61 OFFCURVE",
"523 -63 QCURVE",
"523 -63 LINE"
);
},
{
closed = 1;
nodes = (
"584 102 OFFCURVE",
"609 101 QCURVE",
"628 98 OFFCURVE",
"646 107 QCURVE",
"661 133 OFFCURVE",
"642 161 QCURVE",
"637 178 OFFCURVE",
"628 191 QCURVE SMOOTH",
"624 199 OFFCURVE",
"624 208 QCURVE",
"621 216 OFFCURVE",
"619 226 QCURVE",
"601 263 OFFCURVE",
"587 303 QCURVE",
"576 320 OFFCURVE",
"588 335 QCURVE",
"601 339 OFFCURVE",
"615 335 QCURVE",
"646 332 OFFCURVE",
"678 334 QCURVE SMOOTH",
"698 334 OFFCURVE",
"745 347 OFFCURVE",
"737 373 QCURVE",
"722 388 OFFCURVE",
"702 388 QCURVE SMOOTH",
"651 388 LINE SMOOTH",
"624 386 OFFCURVE",
"597 385 QCURVE",
"580 380 OFFCURVE",
"564 387 QCURVE",
"549 403 OFFCURVE",
"547 427 QCURVE",
"541 449 OFFCURVE",
"535 473 QCURVE SMOOTH",
"532 486 OFFCURVE",
"529 500 QCURVE",
"526 505 OFFCURVE",
"525 510 QCURVE SMOOTH",
"525 515 OFFCURVE",
"525 520 QCURVE",
"517 539 OFFCURVE",
"515 561 QCURVE",
"558 557 OFFCURVE",
"602 563 QCURVE",
"613 560 OFFCURVE",
"624 563 QCURVE",
"634 561 OFFCURVE",
"646 558 QCURVE SMOOTH",
"664 555 OFFCURVE",
"673 570 QCURVE",
"680 590 OFFCURVE",
"666 604 QCURVE",
"648 610 OFFCURVE",
"631 606 QCURVE",
"587 613 OFFCURVE",
"544 608 QCURVE",
"524 602 OFFCURVE",
"504 605 QCURVE",
"491 613 OFFCURVE",
"492 631 QCURVE",
"486 651 OFFCURVE",
"478 672 QCURVE SMOOTH",
"470 693 OFFCURVE",
"465 717 QCURVE",
"463 753 OFFCURVE",
"437 776 QCURVE",
"417 783 OFFCURVE",
"398 781 QCURVE",
"386 782 OFFCURVE",
"376 779 QCURVE",
"370 774 OFFCURVE",
"362 776 QCURVE",
"342 768 OFFCURVE",
"335 751 QCURVE",
"340 729 OFFCURVE",
"344 707 QCURVE SMOOTH",
"350 686 OFFCURVE",
"360 666 QCURVE",
"391 625 OFFCURVE",
"354 609 QCURVE",
"330 609 OFFCURVE",
"306 608 QCURVE SMOOTH",
"284 609 OFFCURVE",
"262 609 QCURVE SMOOTH",
"234 609 OFFCURVE",
"208 612 QCURVE",
"181 611 OFFCURVE",
"157 609 QCURVE SMOOTH",
"129 609 OFFCURVE",
"105 612 QCURVE SMOOTH",
"83 615 OFFCURVE",
"67 601 QCURVE",
"51 568 OFFCURVE",
"90 568 QCURVE",
"114 565 OFFCURVE",
"137 563 QCURVE SMOOTH",
"162 563 OFFCURVE",
"187 563 QCURVE SMOOTH",
"213 563 OFFCURVE",
"239 563 QCURVE SMOOTH",
"262 561 OFFCURVE",
"285 564 QCURVE",
"297 568 OFFCURVE",
"311 565 QCURVE SMOOTH",
"319 563 OFFCURVE",
"328 563 QCURVE SMOOTH",
"342 562 OFFCURVE",
"357 563 QCURVE",
"372 567 OFFCURVE",
"386 563 QCURVE",
"402 554 OFFCURVE",
"405 536 QCURVE SMOOTH",
"412 510 OFFCURVE",
"419 484 QCURVE SMOOTH",
"423 473 OFFCURVE",
"428 462 QCURVE SMOOTH",
"431 453 OFFCURVE",
"431 444 QCURVE",
"437 429 OFFCURVE",
"453 390 OFFCURVE",
"431 385 QCURVE",
"406 387 OFFCURVE",
"381 390 QCURVE SMOOTH",
"355 392 OFFCURVE",
"330 392 QCURVE SMOOTH",
"300 391 OFFCURVE",
"273 392 QCURVE SMOOTH",
"249 394 OFFCURVE",
"224 395 QCURVE SMOOTH",
"198 394 OFFCURVE",
"172 397 QCURVE SMOOTH",
"148 401 OFFCURVE",
"125 397 QCURVE",
"111 394 OFFCURVE",
"98 390 QCURVE",
"88 389 OFFCURVE",
"80 385 QCURVE",
"70 374 OFFCURVE",
"80 364 QCURVE SMOOTH",
"91 350 OFFCURVE",
"111 348 QCURVE SMOOTH",
"133 344 OFFCURVE",
"157 343 QCURVE",
"166 346 OFFCURVE",
"174 343 QCURVE SMOOTH",
"184 339 OFFCURVE",
"195 343 QCURVE",
"217 348 OFFCURVE",
"240 344 QCURVE",
"260 338 OFFCURVE",
"279 344 QCURVE",
"292 337 OFFCURVE",
"308 342 QCURVE",
"329 341 OFFCURVE",
"349 342 QCURVE",
"366 345 OFFCURVE",
"381 342 QCURVE",
"391 336 OFFCURVE",
"397 343 QCURVE",
"405 340 OFFCURVE",
"415 345 QCURVE",
"426 343 OFFCURVE",
"437 341 QCURVE",
"450 345 OFFCURVE",
"461 341 QCURVE",
"466 330 OFFCURVE",
"468 319 QCURVE SMOOTH",
"471 308 OFFCURVE",
"476 297 QCURVE SMOOTH",
"484 274 OFFCURVE",
"493 253 QCURVE SMOOTH",
"510 206 OFFCURVE",
"525 160 QCURVE",
"528 140 OFFCURVE",
"535 122 QCURVE",
"544 106 OFFCURVE",
"562 100 QCURVE",
"562 100 LINE"
);
}
);
};
layerId = "8989453E-AEF5-4A43-B1B1-B6FF373A49BB";
name = other_1;
paths = (
{
closed = 1;
nodes = (
"45 561 OFFCURVE",
"60 550 OFFCURVE",
"79 550 CURVE SMOOTH",
"701 550 LINE SMOOTH",
"720 550 OFFCURVE",
"735 562 OFFCURVE",
"735 577 CURVE SMOOTH",
"735 592 OFFCURVE",
"720 604 OFFCURVE",
"701 604 CURVE SMOOTH",
"79 604 LINE SMOOTH",
"60 604 OFFCURVE",
"45 592 OFFCURVE",
"45 577 CURVE SMOOTH"
);
},
{
closed = 1;
nodes = (
"45 391 OFFCURVE",
"60 380 OFFCURVE",
"79 380 CURVE SMOOTH",
"751 380 LINE SMOOTH",
"770 380 OFFCURVE",
"785 392 OFFCURVE",
"785 407 CURVE SMOOTH",
"785 422 OFFCURVE",
"770 434 OFFCURVE",
"751 434 CURVE SMOOTH",
"79 434 LINE SMOOTH",
"60 434 OFFCURVE",
"45 422 OFFCURVE",
"45 407 CURVE SMOOTH"
);
},
{
closed = 1;
nodes = (
"431 817 LINE SMOOTH",
"390 817 OFFCURVE",
"380 807 OFFCURVE",
"386 765 CURVE SMOOTH",
"472 171 LINE SMOOTH",
"475 153 OFFCURVE",
"479 149 OFFCURVE",
"497 149 CURVE SMOOTH",
"548 149 LINE SMOOTH",
"589 149 OFFCURVE",
"599 160 OFFCURVE",
"593 201 CURVE SMOOTH",
"507 795 LINE SMOOTH",
"504 813 OFFCURVE",
"500 817 OFFCURVE",
"482 817 CURVE SMOOTH"
);
},
{
closed = 1;
nodes = (
"201 216 OFFCURVE",
"189 216 OFFCURVE",
"164 216 CURVE SMOOTH",
"111 216 OFFCURVE",
"72 151 OFFCURVE",
"72 79 CURVE SMOOTH",
"72 22 OFFCURVE",
"153 -34 OFFCURVE",
"231 -34 CURVE SMOOTH",
"274 -34 OFFCURVE",
"705 -34 OFFCURVE",
"722 -34 CURVE SMOOTH",
"739 -34 OFFCURVE",
"782 -28 OFFCURVE",
"782 -12 CURVE SMOOTH",
"782 4 OFFCURVE",
"762 14 OFFCURVE",
"739 14 CURVE SMOOTH",
"716 14 OFFCURVE",
"348 14 OFFCURVE",
"322 14 CURVE SMOOTH",
"275 14 OFFCURVE",
"205 43 OFFCURVE",
"205 100 CURVE SMOOTH",
"205 149 OFFCURVE",
"261 189 OFFCURVE",
"261 206 CURVE SMOOTH",
"261 213 OFFCURVE",
"254 216 OFFCURVE",
"234 216 CURVE"
);
}
);
userData = {
assembly = "SVTCA[0]\011/* SetFreedomAndProjectionVectorToAxis */
NPUSHB[ ]\011/* 12 values pushed */
212 55 208 207 4 136 47 152 149 148 144 12 
CALL[ ]\011/* CallFunction */
CALL[ ]\011/* CallFunction */
IUP[0]\011/* InterpolateUntPts */
IUP[1]\011/* InterpolateUntPts */";
};
vertWidth = 1000;
width = 830;
},
{
associatedMasterId = "47F7128E-F1A6-4572-9BDC-88462FF34A66";
background = {
paths = (
{
closed = 1;
nodes = (
"562 -56 OFFCURVE",
"596 -58 QCURVE",
"613 -63 OFFCURVE",
"621 -50 QCURVE",
"641 -52 OFFCURVE",
"639 -29 QCURVE",
"631 -17 OFFCURVE",
"614 -14 QCURVE SMOOTH",
"567 -5 OFFCURVE",
"521 -12 QCURVE",
"474 -13 OFFCURVE",
"428 -7 QCURVE SMOOTH",
"382 -3 OFFCURVE",
"337 10 QCURVE SMOOTH",
"313 18 OFFCURVE",
"290 24 QCURVE",
"269 26 OFFCURVE",
"252 37 QCURVE SMOOTH",
"233 49 OFFCURVE",
"217 64 QCURVE SMOOTH",
"202 78 OFFCURVE",
"194 97 QCURVE SMOOTH",
"179 132 OFFCURVE",
"176 170 QCURVE SMOOTH",
"172 210 OFFCURVE",
"133 217 QCURVE SMOOTH",
"109 220 OFFCURVE",
"86 219 QCURVE SMOOTH",
"70 219 OFFCURVE",
"63 206 QCURVE",
"55 178 OFFCURVE",
"66 151 QCURVE",
"78 64 OFFCURVE",
"141 9 QCURVE",
"162 -5 OFFCURVE",
"186 -12 QCURVE SMOOTH",
"210 -21 OFFCURVE",
"234 -23 QCURVE SMOOTH",
"260 -28 OFFCURVE",
"287 -35 QCURVE SMOOTH",
"312 -41 OFFCURVE",
"339 -43 QCURVE SMOOTH",
"364 -47 OFFCURVE",
"391 -53 QCURVE",
"403 -54 OFFCURVE",
"414 -56 QCURVE SMOOTH",
"424 -59 OFFCURVE",
"436 -57 QCURVE",
"450 -57 OFFCURVE",
"464 -60 QCURVE SMOOTH",
"475 -62 OFFCURVE",
"487 -58 QCURVE",
"497 -61 OFFCURVE",
"507 -62 QCURVE",
"517 -61 OFFCURVE",
"530 -63 QCURVE",
"530 -63 LINE"
);
},
{
closed = 1;
nodes = (
"591 102 OFFCURVE",
"616 101 QCURVE",
"635 98 OFFCURVE",
"653 107 QCURVE",
"668 133 OFFCURVE",
"649 161 QCURVE",
"644 178 OFFCURVE",
"635 191 QCURVE SMOOTH",
"631 199 OFFCURVE",
"631 208 QCURVE",
"628 216 OFFCURVE",
"626 226 QCURVE",
"608 263 OFFCURVE",
"594 303 QCURVE",
"583 320 OFFCURVE",
"595 335 QCURVE",
"608 339 OFFCURVE",
"622 335 QCURVE",
"653 332 OFFCURVE",
"685 334 QCURVE SMOOTH",
"705 334 OFFCURVE",
"752 347 OFFCURVE",
"744 373 QCURVE",
"729 388 OFFCURVE",
"709 388 QCURVE SMOOTH",
"658 388 LINE SMOOTH",
"631 386 OFFCURVE",
"604 385 QCURVE",
"587 380 OFFCURVE",
"571 387 QCURVE",
"556 403 OFFCURVE",
"554 427 QCURVE",
"548 449 OFFCURVE",
"542 473 QCURVE SMOOTH",
"539 486 OFFCURVE",
"536 500 QCURVE",
"533 505 OFFCURVE",
"532 510 QCURVE SMOOTH",
"532 515 OFFCURVE",
"532 520 QCURVE",
"524 539 OFFCURVE",
"522 561 QCURVE",
"565 557 OFFCURVE",
"609 563 QCURVE",
"620 560 OFFCURVE",
"631 563 QCURVE",
"641 561 OFFCURVE",
"653 558 QCURVE SMOOTH",
"671 555 OFFCURVE",
"680 570 QCURVE",
"687 590 OFFCURVE",
"673 604 QCURVE",
"655 610 OFFCURVE",
"638 606 QCURVE",
"594 613 OFFCURVE",
"551 608 QCURVE",
"531 602 OFFCURVE",
"511 605 QCURVE",
"498 613 OFFCURVE",
"499 631 QCURVE",
"493 651 OFFCURVE",
"485 672 QCURVE SMOOTH",
"477 693 OFFCURVE",
"472 717 QCURVE",
"470 753 OFFCURVE",
"444 776 QCURVE",
"424 783 OFFCURVE",
"405 781 QCURVE",
"393 782 OFFCURVE",
"383 779 QCURVE",
"377 774 OFFCURVE",
"369 776 QCURVE",
"349 768 OFFCURVE",
"342 751 QCURVE",
"347 729 OFFCURVE",
"351 707 QCURVE SMOOTH",
"357 686 OFFCURVE",
"367 666 QCURVE",
"398 625 OFFCURVE",
"361 609 QCURVE",
"337 609 OFFCURVE",
"313 608 QCURVE SMOOTH",
"291 609 OFFCURVE",
"269 609 QCURVE SMOOTH",
"241 609 OFFCURVE",
"215 612 QCURVE",
"188 611 OFFCURVE",
"164 609 QCURVE SMOOTH",
"136 609 OFFCURVE",
"112 612 QCURVE SMOOTH",
"90 615 OFFCURVE",
"74 601 QCURVE",
"58 568 OFFCURVE",
"97 568 QCURVE",
"121 565 OFFCURVE",
"144 563 QCURVE SMOOTH",
"169 563 OFFCURVE",
"194 563 QCURVE SMOOTH",
"220 563 OFFCURVE",
"246 563 QCURVE SMOOTH",
"269 561 OFFCURVE",
"292 564 QCURVE",
"304 568 OFFCURVE",
"318 565 QCURVE SMOOTH",
"326 563 OFFCURVE",
"335 563 QCURVE SMOOTH",
"349 562 OFFCURVE",
"364 563 QCURVE",
"379 567 OFFCURVE",
"393 563 QCURVE",
"409 554 OFFCURVE",
"412 536 QCURVE SMOOTH",
"419 510 OFFCURVE",
"426 484 QCURVE SMOOTH",
"430 473 OFFCURVE",
"435 462 QCURVE SMOOTH",
"438 453 OFFCURVE",
"438 444 QCURVE",
"444 429 OFFCURVE",
"460 390 OFFCURVE",
"438 385 QCURVE",
"413 387 OFFCURVE",
"388 390 QCURVE SMOOTH",
"362 392 OFFCURVE",
"337 392 QCURVE SMOOTH",
"307 391 OFFCURVE",
"280 392 QCURVE SMOOTH",
"256 394 OFFCURVE",
"231 395 QCURVE SMOOTH",
"205 394 OFFCURVE",
"179 397 QCURVE SMOOTH",
"155 401 OFFCURVE",
"132 397 QCURVE",
"118 394 OFFCURVE",
"105 390 QCURVE",
"95 389 OFFCURVE",
"87 385 QCURVE",
"77 374 OFFCURVE",
"87 364 QCURVE SMOOTH",
"98 350 OFFCURVE",
"118 348 QCURVE SMOOTH",
"140 344 OFFCURVE",
"164 343 QCURVE",
"173 346 OFFCURVE",
"181 343 QCURVE SMOOTH",
"191 339 OFFCURVE",
"202 343 QCURVE",
"224 348 OFFCURVE",
"247 344 QCURVE",
"267 338 OFFCURVE",
"286 344 QCURVE",
"299 337 OFFCURVE",
"315 342 QCURVE",
"336 341 OFFCURVE",
"356 342 QCURVE",
"373 345 OFFCURVE",
"388 342 QCURVE",
"398 336 OFFCURVE",
"404 343 QCURVE",
"412 340 OFFCURVE",
"422 345 QCURVE",
"433 343 OFFCURVE",
"444 341 QCURVE",
"457 345 OFFCURVE",
"468 341 QCURVE",
"473 330 OFFCURVE",
"475 319 QCURVE SMOOTH",
"478 308 OFFCURVE",
"483 297 QCURVE SMOOTH",
"491 274 OFFCURVE",
"500 253 QCURVE SMOOTH",
"517 206 OFFCURVE",
"532 160 QCURVE",
"535 140 OFFCURVE",
"542 122 QCURVE",
"551 106 OFFCURVE",
"569 100 QCURVE",
"569 100 LINE"
);
}
);
};
layerId = "BAA35787-BA2E-4A5F-968F-1CF948267D75";
name = other_2;
paths = (
{
closed = 1;
nodes = (
"784 648 OFFCURVE",
"777 653 OFFCURVE",
"750 653 CURVE SMOOTH",
"79 653 LINE SMOOTH",
"52 653 OFFCURVE",
"45 648 OFFCURVE",
"45 629 CURVE SMOOTH",
"45 610 OFFCURVE",
"52 605 OFFCURVE",
"79 605 CURVE SMOOTH",
"750 605 LINE SMOOTH",
"777 605 OFFCURVE",
"784 610 OFFCURVE",
"784 629 CURVE SMOOTH"
);
},
{
closed = 1;
nodes = (
"439 772 OFFCURVE",
"437 742 OFFCURVE",
"446 717 CURVE SMOOTH",
"455 692 OFFCURVE",
"519 450 OFFCURVE",
"534 399 CURVE SMOOTH",
"549 348 OFFCURVE",
"549 310 OFFCURVE",
"503 310 CURVE SMOOTH",
"442 310 OFFCURVE",
"245 310 OFFCURVE",
"183 310 CURVE SMOOTH",
"98 310 OFFCURVE",
"78 290 OFFCURVE",
"119 234 CURVE SMOOTH",
"164 173 OFFCURVE",
"401 -20 OFFCURVE",
"417 -35 CURVE SMOOTH",
"433 -50 OFFCURVE",
"465 -58 OFFCURVE",
"483 -58 CURVE SMOOTH",
"501 -58 OFFCURVE",
"520 -58 OFFCURVE",
"541 -58 CURVE SMOOTH",
"562 -58 OFFCURVE",
"558 -28 OFFCURVE",
"537 -13 CURVE SMOOTH",
"516 2 OFFCURVE",
"296 198 OFFCURVE",
"275 221 CURVE SMOOTH",
"254 244 OFFCURVE",
"261 268 OFFCURVE",
"348 268 CURVE SMOOTH",
"380 268 OFFCURVE",
"533 259 OFFCURVE",
"628 259 CURVE SMOOTH",
"663 259 OFFCURVE",
"694 308 OFFCURVE",
"687 348 CURVE SMOOTH",
"680 388 OFFCURVE",
"594 724 OFFCURVE",
"590 741 CURVE SMOOTH",
"586 758 OFFCURVE",
"558 772 OFFCURVE",
"537 772 CURVE SMOOTH",
"516 772 OFFCURVE",
"492 772 OFFCURVE",
"457 772 CURVE"
);
},
{
closed = 1;
nodes = (
"814 488 OFFCURVE",
"807 493 OFFCURVE",
"780 493 CURVE SMOOTH",
"79 493 LINE SMOOTH",
"52 493 OFFCURVE",
"45 488 OFFCURVE",
"45 469 CURVE SMOOTH",
"45 450 OFFCURVE",
"52 445 OFFCURVE",
"79 445 CURVE SMOOTH",
"780 445 LINE SMOOTH",
"807 445 OFFCURVE",
"814 450 OFFCURVE",
"814 469 CURVE SMOOTH"
);
}
);
userData = {
assembly = "SVTCA[0]\011/* SetFreedomAndProjectionVectorToAxis */
NPUSHB[ ]\011/* 12 values pushed */
212 55 208 207 4 136 47 152 149 148 144 12 
CALL[ ]\011/* CallFunction */
CALL[ ]\011/* CallFunction */
IUP[0]\011/* InterpolateUntPts */
IUP[1]\011/* InterpolateUntPts */";
};
vertWidth = 1000;
width = 831;
},
{
associatedMasterId = "47F7128E-F1A6-4572-9BDC-88462FF34A66";
background = {
paths = (
{
closed = 1;
nodes = (
"562 -56 OFFCURVE",
"596 -58 QCURVE",
"613 -63 OFFCURVE",
"621 -50 QCURVE",
"641 -52 OFFCURVE",
"639 -29 QCURVE",
"631 -17 OFFCURVE",
"614 -14 QCURVE SMOOTH",
"567 -5 OFFCURVE",
"521 -12 QCURVE",
"474 -13 OFFCURVE",
"428 -7 QCURVE SMOOTH",
"382 -3 OFFCURVE",
"337 10 QCURVE SMOOTH",
"313 18 OFFCURVE",
"290 24 QCURVE",
"269 26 OFFCURVE",
"252 37 QCURVE SMOOTH",
"233 49 OFFCURVE",
"217 64 QCURVE SMOOTH",
"202 78 OFFCURVE",
"194 97 QCURVE SMOOTH",
"179 132 OFFCURVE",
"176 170 QCURVE SMOOTH",
"172 210 OFFCURVE",
"133 217 QCURVE SMOOTH",
"109 220 OFFCURVE",
"86 219 QCURVE SMOOTH",
"70 219 OFFCURVE",
"63 206 QCURVE",
"55 178 OFFCURVE",
"66 151 QCURVE",
"78 64 OFFCURVE",
"141 9 QCURVE",
"162 -5 OFFCURVE",
"186 -12 QCURVE SMOOTH",
"210 -21 OFFCURVE",
"234 -23 QCURVE SMOOTH",
"260 -28 OFFCURVE",
"287 -35 QCURVE SMOOTH",
"312 -41 OFFCURVE",
"339 -43 QCURVE SMOOTH",
"364 -47 OFFCURVE",
"391 -53 QCURVE",
"403 -54 OFFCURVE",
"414 -56 QCURVE SMOOTH",
"424 -59 OFFCURVE",
"436 -57 QCURVE",
"450 -57 OFFCURVE",
"464 -60 QCURVE SMOOTH",
"475 -62 OFFCURVE",
"487 -58 QCURVE",
"497 -61 OFFCURVE",
"507 -62 QCURVE",
"517 -61 OFFCURVE",
"530 -63 QCURVE",
"530 -63 LINE"
);
},
{
closed = 1;
nodes = (
"591 102 OFFCURVE",
"616 101 QCURVE",
"635 98 OFFCURVE",
"653 107 QCURVE",
"668 133 OFFCURVE",
"649 161 QCURVE",
"644 178 OFFCURVE",
"635 191 QCURVE SMOOTH",
"631 199 OFFCURVE",
"631 208 QCURVE",
"628 216 OFFCURVE",
"626 226 QCURVE",
"608 263 OFFCURVE",
"594 303 QCURVE",
"583 320 OFFCURVE",
"595 335 QCURVE",
"608 339 OFFCURVE",
"622 335 QCURVE",
"653 332 OFFCURVE",
"685 334 QCURVE SMOOTH",
"705 334 OFFCURVE",
"752 347 OFFCURVE",
"744 373 QCURVE",
"729 388 OFFCURVE",
"709 388 QCURVE SMOOTH",
"658 388 LINE SMOOTH",
"631 386 OFFCURVE",
"604 385 QCURVE",
"587 380 OFFCURVE",
"571 387 QCURVE",
"556 403 OFFCURVE",
"554 427 QCURVE",
"548 449 OFFCURVE",
"542 473 QCURVE SMOOTH",
"539 486 OFFCURVE",
"536 500 QCURVE",
"533 505 OFFCURVE",
"532 510 QCURVE SMOOTH",
"532 515 OFFCURVE",
"532 520 QCURVE",
"524 539 OFFCURVE",
"522 561 QCURVE",
"565 557 OFFCURVE",
"609 563 QCURVE",
"620 560 OFFCURVE",
"631 563 QCURVE",
"641 561 OFFCURVE",
"653 558 QCURVE SMOOTH",
"671 555 OFFCURVE",
"680 570 QCURVE",
"687 590 OFFCURVE",
"673 604 QCURVE",
"655 610 OFFCURVE",
"638 606 QCURVE",
"594 613 OFFCURVE",
"551 608 QCURVE",
"531 602 OFFCURVE",
"511 605 QCURVE",
"498 613 OFFCURVE",
"499 631 QCURVE",
"493 651 OFFCURVE",
"485 672 QCURVE SMOOTH",
"477 693 OFFCURVE",
"472 717 QCURVE",
"470 753 OFFCURVE",
"444 776 QCURVE",
"424 783 OFFCURVE",
"405 781 QCURVE",
"393 782 OFFCURVE",
"383 779 QCURVE",
"377 774 OFFCURVE",
"369 776 QCURVE",
"349 768 OFFCURVE",
"342 751 QCURVE",
"347 729 OFFCURVE",
"351 707 QCURVE SMOOTH",
"357 686 OFFCURVE",
"367 666 QCURVE",
"398 625 OFFCURVE",
"361 609 QCURVE",
"337 609 OFFCURVE",
"313 608 QCURVE SMOOTH",
"291 609 OFFCURVE",
"269 609 QCURVE SMOOTH",
"241 609 OFFCURVE",
"215 612 QCURVE",
"188 611 OFFCURVE",
"164 609 QCURVE SMOOTH",
"136 609 OFFCURVE",
"112 612 QCURVE SMOOTH",
"90 615 OFFCURVE",
"74 601 QCURVE",
"58 568 OFFCURVE",
"97 568 QCURVE",
"121 565 OFFCURVE",
"144 563 QCURVE SMOOTH",
"169 563 OFFCURVE",
"194 563 QCURVE SMOOTH",
"220 563 OFFCURVE",
"246 563 QCURVE SMOOTH",
"269 561 OFFCURVE",
"292 564 QCURVE",
"304 568 OFFCURVE",
"318 565 QCURVE SMOOTH",
"326 563 OFFCURVE",
"335 563 QCURVE SMOOTH",
"349 562 OFFCURVE",
"364 563 QCURVE",
"379 567 OFFCURVE",
"393 563 QCURVE",
"409 554 OFFCURVE",
"412 536 QCURVE SMOOTH",
"419 510 OFFCURVE",
"426 484 QCURVE SMOOTH",
"430 473 OFFCURVE",
"435 462 QCURVE SMOOTH",
"438 453 OFFCURVE",
"438 444 QCURVE",
"444 429 OFFCURVE",
"460 390 OFFCURVE",
"438 385 QCURVE",
"413 387 OFFCURVE",
"388 390 QCURVE SMOOTH",
"362 392 OFFCURVE",
"337 392 QCURVE SMOOTH",
"307 391 OFFCURVE",
"280 392 QCURVE SMOOTH",
"256 394 OFFCURVE",
"231 395 QCURVE SMOOTH",
"205 394 OFFCURVE",
"179 397 QCURVE SMOOTH",
"155 401 OFFCURVE",
"132 397 QCURVE",
"118 394 OFFCURVE",
"105 390 QCURVE",
"95 389 OFFCURVE",
"87 385 QCURVE",
"77 374 OFFCURVE",
"87 364 QCURVE SMOOTH",
"98 350 OFFCURVE",
"118 348 QCURVE SMOOTH",
"140 344 OFFCURVE",
"164 343 QCURVE",
"173 346 OFFCURVE",
"181 343 QCURVE SMOOTH",
"191 339 OFFCURVE",
"202 343 QCURVE",
"224 348 OFFCURVE",
"247 344 QCURVE",
"267 338 OFFCURVE",
"286 344 QCURVE",
"299 337 OFFCURVE",
"315 342 QCURVE",
"336 341 OFFCURVE",
"356 342 QCURVE",
"373 345 OFFCURVE",
"388 342 QCURVE",
"398 336 OFFCURVE",
"404 343 QCURVE",
"412 340 OFFCURVE",
"422 345 QCURVE",
"433 343 OFFCURVE",
"444 341 QCURVE",
"457 345 OFFCURVE",
"468 341 QCURVE",
"473 330 OFFCURVE",
"475 319 QCURVE SMOOTH",
"478 308 OFFCURVE",
"483 297 QCURVE SMOOTH",
"491 274 OFFCURVE",
"500 253 QCURVE SMOOTH",
"517 206 OFFCURVE",
"532 160 QCURVE",
"535 140 OFFCURVE",
"542 122 QCURVE",
"551 106 OFFCURVE",
"569 100 QCURVE",
"569 100 LINE"
);
}
);
};
layerId = "C2FFE5BC-85D8-41EA-8659-11958B529B5C";
name = other_3;
paths = (
{
closed = 1;
nodes = (
"784 648 OFFCURVE",
"777 653 OFFCURVE",
"750 653 CURVE SMOOTH",
"79 653 LINE SMOOTH",
"52 653 OFFCURVE",
"45 648 OFFCURVE",
"45 629 CURVE SMOOTH",
"45 610 OFFCURVE",
"52 605 OFFCURVE",
"79 605 CURVE SMOOTH",
"750 605 LINE SMOOTH",
"777 605 OFFCURVE",
"784 610 OFFCURVE",
"784 629 CURVE SMOOTH"
);
},
{
closed = 1;
nodes = (
"814 488 OFFCURVE",
"807 493 OFFCURVE",
"780 493 CURVE SMOOTH",
"79 493 LINE SMOOTH",
"52 493 OFFCURVE",
"45 488 OFFCURVE",
"45 469 CURVE SMOOTH",
"45 450 OFFCURVE",
"52 445 OFFCURVE",
"79 445 CURVE SMOOTH",
"780 445 LINE SMOOTH",
"807 445 OFFCURVE",
"814 450 OFFCURVE",
"814 469 CURVE SMOOTH"
);
},
{
closed = 1;
nodes = (
"417 772 OFFCURVE",
"415 742 OFFCURVE",
"424 717 CURVE SMOOTH",
"433 692 OFFCURVE",
"497 450 OFFCURVE",
"512 399 CURVE SMOOTH",
"527 348 OFFCURVE",
"527 310 OFFCURVE",
"481 310 CURVE SMOOTH",
"420 310 OFFCURVE",
"81 276 OFFCURVE",
"81 191 CURVE SMOOTH",
"81 26 OFFCURVE",
"374 -58 OFFCURVE",
"461 -58 CURVE SMOOTH",
"479 -58 OFFCURVE",
"498 -58 OFFCURVE",
"519 -58 CURVE SMOOTH",
"540 -58 OFFCURVE",
"536 -28 OFFCURVE",
"515 -13 CURVE SMOOTH",
"494 2 OFFCURVE",
"223 52 OFFCURVE",
"223 153 CURVE SMOOTH",
"223 227 OFFCURVE",
"360 269 OFFCURVE",
"606 269 CURVE SMOOTH",
"641 269 OFFCURVE",
"672 308 OFFCURVE",
"665 348 CURVE SMOOTH",
"658 388 OFFCURVE",
"572 724 OFFCURVE",
"568 741 CURVE SMOOTH",
"564 758 OFFCURVE",
"536 772 OFFCURVE",
"515 772 CURVE SMOOTH",
"494 772 OFFCURVE",
"470 772 OFFCURVE",
"435 772 CURVE"
);
}
);
userData = {
assembly = "SVTCA[0]\011/* SetFreedomAndProjectionVectorToAxis */
NPUSHB[ ]\011/* 12 values pushed */
212 55 208 207 4 136 47 152 149 148 144 12 
CALL[ ]\011/* CallFunction */
CALL[ ]\011/* CallFunction */
IUP[0]\011/* InterpolateUntPts */
IUP[1]\011/* InterpolateUntPts */";
};
vertWidth = 1000;
width = 859;
}
);
note = uni304D;
unicode = 304D;
},
{
color = 0;
glyphname = "ku-hira";
lastChange = "2019-12-12 01:48:36 +0000";
layers = (
{
layerId = "47F7128E-F1A6-4572-9BDC-88462FF34A66";
paths = (
{
closed = 1;
nodes = (
"531 725 LINE SMOOTH",
"521 725 OFFCURVE",
"517 726 OFFCURVE",
"507 718 CURVE SMOOTH",
"68 360 LINE SMOOTH",
"37 334 OFFCURVE",
"36 328 OFFCURVE",
"69 307 CURVE SMOOTH",
"500 29 LINE SMOOTH",
"507 25 OFFCURVE",
"512 23 OFFCURVE",
"522 23 CURVE SMOOTH",
"578 23 LINE SMOOTH",
"649 23 OFFCURVE",
"638 37 OFFCURVE",
"534 110 CURVE SMOOTH",
"250 309 LINE SMOOTH",
"220 330 OFFCURVE",
"219 336 OFFCURVE",
"250 362 CURVE SMOOTH",
"577 639 LINE SMOOTH",
"669 717 OFFCURVE",
"683 725 OFFCURVE",
"602 725 CURVE SMOOTH"
);
}
);
userData = {
assembly = "SVTCA[0]\011/* SetFreedomAndProjectionVectorToAxis */
IUP[0]\011/* InterpolateUntPts */
IUP[1]\011/* InterpolateUntPts */";
};
vertWidth = 1000;
width = 700;
}
);
note = uni304F;
unicode = 304F;
},
{
color = 0;
glyphname = "ke-hira";
lastChange = "2019-12-12 01:48:38 +0000";
layers = (
{
layerId = "47F7128E-F1A6-4572-9BDC-88462FF34A66";
paths = (
{
closed = 1;
nodes = (
"83 722 LINE SMOOTH",
"73 722 OFFCURVE",
"45 713 OFFCURVE",
"45 686 CURVE SMOOTH",
"45 74 LINE SMOOTH",
"45 45 OFFCURVE",
"56 24 OFFCURVE",
"74 24 CURVE SMOOTH",
"234 24 LINE SMOOTH",
"243 24 OFFCURVE",
"272 30 OFFCURVE",
"272 40 CURVE SMOOTH",
"272 50 OFFCURVE",
"249 63 OFFCURVE",
"233 63 CURVE SMOOTH",
"189 63 OFFCURVE",
"176 70 OFFCURVE",
"176 97 CURVE SMOOTH",
"176 688 LINE SMOOTH",
"176 703 OFFCURVE",
"173 722 OFFCURVE",
"164 722 CURVE SMOOTH"
);
},
{
closed = 1;
nodes = (
"244 556 OFFCURVE",
"259 544 OFFCURVE",
"278 544 CURVE SMOOTH",
"746 544 LINE SMOOTH",
"765 544 OFFCURVE",
"780 556 OFFCURVE",
"780 572 CURVE SMOOTH",
"780 588 OFFCURVE",
"765 600 OFFCURVE",
"746 600 CURVE SMOOTH",
"278 600 LINE SMOOTH",
"259 600 OFFCURVE",
"244 588 OFFCURVE",
"244 572 CURVE SMOOTH"
);
},
{
closed = 1;
nodes = (
"534 27 LINE SMOOTH",
"534 8 OFFCURVE",
"545 -5 OFFCURVE",
"564 -5 CURVE SMOOTH",
"622 -5 LINE SMOOTH",
"641 -5 OFFCURVE",
"660 8 OFFCURVE",
"660 27 CURVE SMOOTH",
"660 710 LINE SMOOTH",
"660 729 OFFCURVE",
"643 742 OFFCURVE",
"624 742 CURVE SMOOTH",
"571 742 LINE SMOOTH",
"552 742 OFFCURVE",
"534 729 OFFCURVE",
"534 710 CURVE SMOOTH"
);
}
);
userData = {
assembly = "SVTCA[0]\011/* SetFreedomAndProjectionVectorToAxis */
PUSHB[ ]\011/* 4 values pushed */
21 3 19 0 
CALL[ ]\011/* CallFunction */
IUP[0]\011/* InterpolateUntPts */
IUP[1]\011/* InterpolateUntPts */";
};
vertWidth = 1000;
width = 825;
}
);
note = uni3051;
unicode = 3051;
},
{
color = 0;
glyphname = "ko-hira";
lastChange = "2019-12-12 01:48:40 +0000";
layers = (
{
layerId = "47F7128E-F1A6-4572-9BDC-88462FF34A66";
paths = (
{
closed = 1;
nodes = (
"479 685 OFFCURVE",
"186 685 OFFCURVE",
"145 685 CURVE SMOOTH",
"104 685 OFFCURVE",
"72 685 OFFCURVE",
"72 660 CURVE SMOOTH",
"72 635 OFFCURVE",
"111 635 OFFCURVE",
"147 635 CURVE SMOOTH",
"183 635 OFFCURVE",
"384 640 OFFCURVE",
"458 640 CURVE SMOOTH",
"476 640 OFFCURVE",
"488 638 OFFCURVE",
"488 628 CURVE SMOOTH",
"488 619 OFFCURVE",
"478 603 OFFCURVE",
"451 576 CURVE SMOOTH",
"439 564 OFFCURVE",
"432 552 OFFCURVE",
"432 543 CURVE SMOOTH",
"432 530 OFFCURVE",
"446 521 OFFCURVE",
"480 521 CURVE SMOOTH",
"517 521 OFFCURVE",
"535 531 OFFCURVE",
"559 558 CURVE",
"616 639 LINE",
"624 651 OFFCURVE",
"629 660 OFFCURVE",
"629 666 CURVE SMOOTH",
"629 681 OFFCURVE",
"608 685 OFFCURVE",
"559 685 CURVE"
);
},
{
closed = 1;
nodes = (
"174 273 OFFCURVE",
"162 273 OFFCURVE",
"137 273 CURVE SMOOTH",
"84 273 OFFCURVE",
"45 208 OFFCURVE",
"45 136 CURVE SMOOTH",
"45 79 OFFCURVE",
"126 23 OFFCURVE",
"204 23 CURVE SMOOTH",
"247 23 OFFCURVE",
"608 23 OFFCURVE",
"625 23 CURVE SMOOTH",
"642 23 OFFCURVE",
"685 29 OFFCURVE",
"685 45 CURVE SMOOTH",
"685 61 OFFCURVE",
"665 71 OFFCURVE",
"642 71 CURVE SMOOTH",
"619 71 OFFCURVE",
"321 71 OFFCURVE",
"295 71 CURVE SMOOTH",
"248 71 OFFCURVE",
"178 100 OFFCURVE",
"178 157 CURVE SMOOTH",
"178 206 OFFCURVE",
"234 246 OFFCURVE",
"234 263 CURVE SMOOTH",
"234 270 OFFCURVE",
"227 273 OFFCURVE",
"207 273 CURVE"
);
}
);
userData = {
assembly = "SVTCA[0]\011/* SetFreedomAndProjectionVectorToAxis */
IUP[0]\011/* InterpolateUntPts */
IUP[1]\011/* InterpolateUntPts */";
};
vertWidth = 1000;
width = 730;
}
);
note = uni3053;
unicode = 3053;
},
{
color = 0;
glyphname = "sa-hira";
lastChange = "2019-12-12 01:48:42 +0000";
layers = (
{
layerId = "47F7128E-F1A6-4572-9BDC-88462FF34A66";
paths = (
{
closed = 1;
nodes = (
"45 561 OFFCURVE",
"60 550 OFFCURVE",
"79 550 CURVE SMOOTH",
"731 550 LINE SMOOTH",
"750 550 OFFCURVE",
"765 562 OFFCURVE",
"765 577 CURVE SMOOTH",
"765 592 OFFCURVE",
"750 604 OFFCURVE",
"731 604 CURVE SMOOTH",
"79 604 LINE SMOOTH",
"60 604 OFFCURVE",
"45 592 OFFCURVE",
"45 577 CURVE SMOOTH"
);
},
{
closed = 1;
nodes = (
"441 817 LINE SMOOTH",
"400 817 OFFCURVE",
"389 807 OFFCURVE",
"396 765 CURVE SMOOTH",
"482 231 LINE SMOOTH",
"485 213 OFFCURVE",
"489 209 OFFCURVE",
"507 209 CURVE SMOOTH",
"558 209 LINE SMOOTH",
"599 209 OFFCURVE",
"610 220 OFFCURVE",
"603 261 CURVE SMOOTH",
"517 795 LINE SMOOTH",
"514 813 OFFCURVE",
"510 817 OFFCURVE",
"492 817 CURVE SMOOTH"
);
},
{
closed = 1;
nodes = (
"181 324 OFFCURVE",
"169 324 OFFCURVE",
"144 324 CURVE SMOOTH",
"91 324 OFFCURVE",
"52 229 OFFCURVE",
"52 157 CURVE SMOOTH",
"52 100 OFFCURVE",
"133 44 OFFCURVE",
"211 44 CURVE SMOOTH",
"254 44 OFFCURVE",
"585 44 OFFCURVE",
"602 44 CURVE SMOOTH",
"619 44 OFFCURVE",
"662 50 OFFCURVE",
"662 66 CURVE SMOOTH",
"662 82 OFFCURVE",
"642 92 OFFCURVE",
"619 92 CURVE SMOOTH",
"595 92 OFFCURVE",
"327 92 OFFCURVE",
"302 92 CURVE SMOOTH",
"255 92 OFFCURVE",
"185 121 OFFCURVE",
"185 178 CURVE SMOOTH",
"185 228 OFFCURVE",
"241 298 OFFCURVE",
"241 314 CURVE SMOOTH",
"241 321 OFFCURVE",
"234 324 OFFCURVE",
"214 324 CURVE"
);
}
);
userData = {
assembly = "SVTCA[0]\011/* SetFreedomAndProjectionVectorToAxis */
PUSHB[ ]\011/* 7 values pushed */
9 8 2 1 46 44 3 
CALL[ ]\011/* CallFunction */
IUP[0]\011/* InterpolateUntPts */
IUP[1]\011/* InterpolateUntPts */";
};
vertWidth = 1000;
width = 810;
},
{
associatedMasterId = "47F7128E-F1A6-4572-9BDC-88462FF34A66";
background = {
paths = (
{
closed = 1;
nodes = (
"465 -42 OFFCURVE",
"465 -39 QCURVE",
"487 -43 OFFCURVE",
"510 -38 QCURVE",
"523 -39 OFFCURVE",
"537 -36 QCURVE SMOOTH",
"545 -35 OFFCURVE",
"556 -32 QCURVE",
"575 -34 OFFCURVE",
"590 -22 QCURVE",
"597 -14 OFFCURVE",
"593 -4 QCURVE",
"592 1 OFFCURVE",
"589 3 QCURVE",
"584 3 OFFCURVE",
"584 6 QCURVE",
"570 2 OFFCURVE",
"559 11 QCURVE",
"543 15 OFFCURVE",
"528 14 QCURVE SMOOTH",
"495 10 OFFCURVE",
"462 9 QCURVE SMOOTH",
"395 9 OFFCURVE",
"331 24 QCURVE",
"271 32 OFFCURVE",
"228 72 QCURVE",
"194 114 OFFCURVE",
"187 168 QCURVE SMOOTH",
"184 194 OFFCURVE",
"186 221 QCURVE SMOOTH",
"187 242 OFFCURVE",
"172 260 QCURVE",
"156 270 OFFCURVE",
"136 266 QCURVE",
"112 266 OFFCURVE",
"90 266 QCURVE SMOOTH",
"69 265 OFFCURVE",
"66 246 QCURVE",
"66 235 OFFCURVE",
"68 226 QCURVE",
"67 214 OFFCURVE",
"69 202 QCURVE",
"73 150 OFFCURVE",
"86 101 QCURVE SMOOTH",
"99 57 OFFCURVE",
"135 29 QCURVE",
"153 14 OFFCURVE",
"176 6 QCURVE SMOOTH",
"186 3 OFFCURVE",
"194 -2 QCURVE SMOOTH",
"201 -8 OFFCURVE",
"211 -7 QCURVE",
"239 -13 OFFCURVE",
"266 -21 QCURVE SMOOTH",
"290 -25 OFFCURVE",
"314 -29 QCURVE",
"339 -36 OFFCURVE",
"366 -36 QCURVE SMOOTH",
"378 -36 OFFCURVE",
"390 -33 QCURVE",
"402 -34 OFFCURVE",
"414 -36 QCURVE",
"414 -33 LINE",
"427 -36 OFFCURVE",
"442 -36 QCURVE SMOOTH",
"452 -36 OFFCURVE",
"462 -41 QCURVE",
"462 -41 LINE"
);
},
{
closed = 1;
nodes = (
"650 149 OFFCURVE",
"665 151 QCURVE",
"674 149 OFFCURVE",
"684 152 QCURVE",
"699 163 OFFCURVE",
"691 182 QCURVE SMOOTH",
"679 206 OFFCURVE",
"669 232 QCURVE SMOOTH",
"660 255 OFFCURVE",
"654 278 QCURVE SMOOTH",
"624 379 OFFCURVE",
"592 479 QCURVE",
"586 488 OFFCURVE",
"591 497 QCURVE",
"599 501 OFFCURVE",
"610 501 QCURVE SMOOTH",
"634 502 OFFCURVE",
"662 501 QCURVE SMOOTH",
"687 499 OFFCURVE",
"713 499 QCURVE",
"734 502 OFFCURVE",
"756 505 QCURVE",
"791 498 OFFCURVE",
"796 528 QCURVE",
"789 546 OFFCURVE",
"770 551 QCURVE",
"759 548 OFFCURVE",
"750 551 QCURVE",
"744 557 OFFCURVE",
"737 554 QCURVE",
"710 561 OFFCURVE",
"684 554 QCURVE",
"653 550 OFFCURVE",
"622 553 QCURVE",
"597 548 OFFCURVE",
"575 556 QCURVE",
"565 562 OFFCURVE",
"563 574 QCURVE",
"556 583 OFFCURVE",
"552 594 QCURVE SMOOTH",
"533 654 OFFCURVE",
"518 716 QCURVE",
"514 742 OFFCURVE",
"500 763 QCURVE",
"478 779 OFFCURVE",
"451 775 QCURVE",
"405 786 OFFCURVE",
"385 751 QCURVE",
"385 725 OFFCURVE",
"394 701 QCURVE",
"399 678 OFFCURVE",
"411 658 QCURVE SMOOTH",
"435 612 OFFCURVE",
"449 563 QCURVE",
"452 542 OFFCURVE",
"431 541 QCURVE",
"419 543 OFFCURVE",
"409 544 QCURVE",
"395 543 OFFCURVE",
"384 542 QCURVE SMOOTH",
"331 541 OFFCURVE",
"279 545 QCURVE",
"223 544 OFFCURVE",
"169 548 QCURVE",
"155 547 OFFCURVE",
"141 545 QCURVE",
"128 546 OFFCURVE",
"117 548 QCURVE",
"98 546 OFFCURVE",
"82 538 QCURVE SMOOTH",
"64 531 OFFCURVE",
"72 516 QCURVE",
"82 502 OFFCURVE",
"100 501 QCURVE",
"125 495 OFFCURVE",
"151 496 QCURVE SMOOTH",
"175 495 OFFCURVE",
"200 499 QCURVE",
"252 499 OFFCURVE",
"305 496 QCURVE",
"332 497 OFFCURVE",
"358 493 QCURVE SMOOTH",
"380 489 OFFCURVE",
"405 494 QCURVE",
"430 493 OFFCURVE",
"456 490 QCURVE",
"473 485 OFFCURVE",
"480 469 QCURVE SMOOTH",
"500 422 OFFCURVE",
"512 374 QCURVE SMOOTH",
"529 323 OFFCURVE",
"544 272 QCURVE SMOOTH",
"551 246 OFFCURVE",
"560 222 QCURVE",
"570 201 OFFCURVE",
"573 181 QCURVE",
"573 160 OFFCURVE",
"590 150 QCURVE",
"601 148 OFFCURVE",
"614 150 QCURVE",
"625 149 OFFCURVE",
"637 147 QCURVE",
"637 147 LINE"
);
}
);
};
layerId = "B1639CB7-471F-4E25-B53A-C84B3D6C127E";
name = other_1;
paths = (
{
closed = 1;
nodes = (
"45 561 OFFCURVE",
"60 550 OFFCURVE",
"79 550 CURVE SMOOTH",
"791 550 LINE SMOOTH",
"810 550 OFFCURVE",
"825 562 OFFCURVE",
"825 577 CURVE SMOOTH",
"825 592 OFFCURVE",
"810 604 OFFCURVE",
"791 604 CURVE SMOOTH",
"79 604 LINE SMOOTH",
"60 604 OFFCURVE",
"45 592 OFFCURVE",
"45 577 CURVE SMOOTH"
);
},
{
closed = 1;
nodes = (
"431 817 LINE SMOOTH",
"390 817 OFFCURVE",
"380 807 OFFCURVE",
"386 765 CURVE SMOOTH",
"472 171 LINE SMOOTH",
"475 153 OFFCURVE",
"479 149 OFFCURVE",
"497 149 CURVE SMOOTH",
"548 149 LINE SMOOTH",
"589 149 OFFCURVE",
"599 160 OFFCURVE",
"593 201 CURVE SMOOTH",
"507 795 LINE SMOOTH",
"504 813 OFFCURVE",
"500 817 OFFCURVE",
"482 817 CURVE SMOOTH"
);
},
{
closed = 1;
nodes = (
"201 216 OFFCURVE",
"189 216 OFFCURVE",
"164 216 CURVE SMOOTH",
"111 216 OFFCURVE",
"72 151 OFFCURVE",
"72 79 CURVE SMOOTH",
"72 22 OFFCURVE",
"153 -34 OFFCURVE",
"231 -34 CURVE SMOOTH",
"274 -34 OFFCURVE",
"705 -34 OFFCURVE",
"722 -34 CURVE SMOOTH",
"739 -34 OFFCURVE",
"782 -28 OFFCURVE",
"782 -12 CURVE SMOOTH",
"782 4 OFFCURVE",
"762 14 OFFCURVE",
"739 14 CURVE SMOOTH",
"716 14 OFFCURVE",
"348 14 OFFCURVE",
"322 14 CURVE SMOOTH",
"275 14 OFFCURVE",
"205 43 OFFCURVE",
"205 100 CURVE SMOOTH",
"205 149 OFFCURVE",
"261 189 OFFCURVE",
"261 206 CURVE SMOOTH",
"261 213 OFFCURVE",
"254 216 OFFCURVE",
"234 216 CURVE"
);
}
);
userData = {
assembly = "SVTCA[0]\011/* SetFreedomAndProjectionVectorToAxis */
PUSHB[ ]\011/* 7 values pushed */
9 8 2 1 46 44 3 
CALL[ ]\011/* CallFunction */
IUP[0]\011/* InterpolateUntPts */
IUP[1]\011/* InterpolateUntPts */";
};
vertWidth = 1000;
width = 875;
},
{
associatedMasterId = "47F7128E-F1A6-4572-9BDC-88462FF34A66";
background = {
paths = (
{
closed = 1;
nodes = (
"486 -42 OFFCURVE",
"486 -39 QCURVE",
"508 -43 OFFCURVE",
"531 -38 QCURVE",
"544 -39 OFFCURVE",
"558 -36 QCURVE SMOOTH",
"566 -35 OFFCURVE",
"577 -32 QCURVE",
"596 -34 OFFCURVE",
"611 -22 QCURVE",
"618 -14 OFFCURVE",
"614 -4 QCURVE",
"613 1 OFFCURVE",
"610 3 QCURVE",
"605 3 OFFCURVE",
"605 6 QCURVE",
"591 2 OFFCURVE",
"580 11 QCURVE",
"564 15 OFFCURVE",
"549 14 QCURVE SMOOTH",
"516 10 OFFCURVE",
"483 9 QCURVE SMOOTH",
"416 9 OFFCURVE",
"352 24 QCURVE",
"292 32 OFFCURVE",
"249 72 QCURVE",
"215 114 OFFCURVE",
"208 168 QCURVE SMOOTH",
"205 194 OFFCURVE",
"207 221 QCURVE SMOOTH",
"208 242 OFFCURVE",
"193 260 QCURVE",
"177 270 OFFCURVE",
"157 266 QCURVE",
"133 266 OFFCURVE",
"111 266 QCURVE SMOOTH",
"90 265 OFFCURVE",
"87 246 QCURVE",
"87 235 OFFCURVE",
"89 226 QCURVE",
"88 214 OFFCURVE",
"90 202 QCURVE",
"94 150 OFFCURVE",
"107 101 QCURVE SMOOTH",
"120 57 OFFCURVE",
"156 29 QCURVE",
"174 14 OFFCURVE",
"197 6 QCURVE SMOOTH",
"207 3 OFFCURVE",
"215 -2 QCURVE SMOOTH",
"222 -8 OFFCURVE",
"232 -7 QCURVE",
"260 -13 OFFCURVE",
"287 -21 QCURVE SMOOTH",
"311 -25 OFFCURVE",
"335 -29 QCURVE",
"360 -36 OFFCURVE",
"387 -36 QCURVE SMOOTH",
"399 -36 OFFCURVE",
"411 -33 QCURVE",
"423 -34 OFFCURVE",
"435 -36 QCURVE",
"435 -33 LINE",
"448 -36 OFFCURVE",
"463 -36 QCURVE SMOOTH",
"473 -36 OFFCURVE",
"483 -41 QCURVE",
"483 -41 LINE"
);
},
{
closed = 1;
nodes = (
"671 149 OFFCURVE",
"686 151 QCURVE",
"695 149 OFFCURVE",
"705 152 QCURVE",
"720 163 OFFCURVE",
"712 182 QCURVE SMOOTH",
"700 206 OFFCURVE",
"690 232 QCURVE SMOOTH",
"681 255 OFFCURVE",
"675 278 QCURVE SMOOTH",
"645 379 OFFCURVE",
"613 479 QCURVE",
"607 488 OFFCURVE",
"612 497 QCURVE",
"620 501 OFFCURVE",
"631 501 QCURVE SMOOTH",
"655 502 OFFCURVE",
"683 501 QCURVE SMOOTH",
"708 499 OFFCURVE",
"734 499 QCURVE",
"755 502 OFFCURVE",
"777 505 QCURVE",
"812 498 OFFCURVE",
"817 528 QCURVE",
"810 546 OFFCURVE",
"791 551 QCURVE",
"780 548 OFFCURVE",
"771 551 QCURVE",
"765 557 OFFCURVE",
"758 554 QCURVE",
"731 561 OFFCURVE",
"705 554 QCURVE",
"674 550 OFFCURVE",
"643 553 QCURVE",
"618 548 OFFCURVE",
"596 556 QCURVE",
"586 562 OFFCURVE",
"584 574 QCURVE",
"577 583 OFFCURVE",
"573 594 QCURVE SMOOTH",
"554 654 OFFCURVE",
"539 716 QCURVE",
"535 742 OFFCURVE",
"521 763 QCURVE",
"499 779 OFFCURVE",
"472 775 QCURVE",
"426 786 OFFCURVE",
"406 751 QCURVE",
"406 725 OFFCURVE",
"415 701 QCURVE",
"420 678 OFFCURVE",
"432 658 QCURVE SMOOTH",
"456 612 OFFCURVE",
"470 563 QCURVE",
"473 542 OFFCURVE",
"452 541 QCURVE",
"440 543 OFFCURVE",
"430 544 QCURVE",
"416 543 OFFCURVE",
"405 542 QCURVE SMOOTH",
"352 541 OFFCURVE",
"300 545 QCURVE",
"244 544 OFFCURVE",
"190 548 QCURVE",
"176 547 OFFCURVE",
"162 545 QCURVE",
"149 546 OFFCURVE",
"138 548 QCURVE",
"119 546 OFFCURVE",
"103 538 QCURVE SMOOTH",
"85 531 OFFCURVE",
"93 516 QCURVE",
"103 502 OFFCURVE",
"121 501 QCURVE",
"146 495 OFFCURVE",
"172 496 QCURVE SMOOTH",
"196 495 OFFCURVE",
"221 499 QCURVE",
"273 499 OFFCURVE",
"326 496 QCURVE",
"353 497 OFFCURVE",
"379 493 QCURVE SMOOTH",
"401 489 OFFCURVE",
"426 494 QCURVE",
"451 493 OFFCURVE",
"477 490 QCURVE",
"494 485 OFFCURVE",
"501 469 QCURVE SMOOTH",
"521 422 OFFCURVE",
"533 374 QCURVE SMOOTH",
"550 323 OFFCURVE",
"565 272 QCURVE SMOOTH",
"572 246 OFFCURVE",
"581 222 QCURVE",
"591 201 OFFCURVE",
"594 181 QCURVE",
"594 160 OFFCURVE",
"611 150 QCURVE",
"622 148 OFFCURVE",
"635 150 QCURVE",
"646 149 OFFCURVE",
"658 147 QCURVE",
"658 147 LINE"
);
}
);
};
layerId = "FA34F947-77FB-48AB-B731-29358FBBCF96";
name = other_2;
paths = (
{
closed = 1;
nodes = (
"898 608 OFFCURVE",
"891 613 OFFCURVE",
"864 613 CURVE SMOOTH",
"93 613 LINE SMOOTH",
"66 613 OFFCURVE",
"59 608 OFFCURVE",
"59 589 CURVE SMOOTH",
"59 570 OFFCURVE",
"66 565 OFFCURVE",
"93 565 CURVE SMOOTH",
"864 565 LINE SMOOTH",
"891 565 OFFCURVE",
"898 570 OFFCURVE",
"898 589 CURVE SMOOTH"
);
},
{
closed = 1;
nodes = (
"483 772 OFFCURVE",
"481 742 OFFCURVE",
"490 717 CURVE SMOOTH",
"499 692 OFFCURVE",
"563 450 OFFCURVE",
"578 399 CURVE SMOOTH",
"593 348 OFFCURVE",
"593 310 OFFCURVE",
"547 310 CURVE SMOOTH",
"486 310 OFFCURVE",
"289 310 OFFCURVE",
"227 310 CURVE SMOOTH",
"142 310 OFFCURVE",
"122 290 OFFCURVE",
"163 234 CURVE SMOOTH",
"208 173 OFFCURVE",
"445 -20 OFFCURVE",
"461 -35 CURVE SMOOTH",
"477 -50 OFFCURVE",
"509 -58 OFFCURVE",
"527 -58 CURVE SMOOTH",
"545 -58 OFFCURVE",
"564 -58 OFFCURVE",
"585 -58 CURVE SMOOTH",
"606 -58 OFFCURVE",
"602 -28 OFFCURVE",
"581 -13 CURVE SMOOTH",
"560 2 OFFCURVE",
"340 198 OFFCURVE",
"319 221 CURVE SMOOTH",
"298 244 OFFCURVE",
"305 268 OFFCURVE",
"392 268 CURVE SMOOTH",
"424 268 OFFCURVE",
"577 259 OFFCURVE",
"672 259 CURVE SMOOTH",
"707 259 OFFCURVE",
"738 308 OFFCURVE",
"731 348 CURVE SMOOTH",
"724 388 OFFCURVE",
"638 724 OFFCURVE",
"634 741 CURVE SMOOTH",
"630 758 OFFCURVE",
"602 772 OFFCURVE",
"581 772 CURVE SMOOTH",
"560 772 OFFCURVE",
"536 772 OFFCURVE",
"501 772 CURVE"
);
}
);
userData = {
assembly = "SVTCA[0]\011/* SetFreedomAndProjectionVectorToAxis */
PUSHB[ ]\011/* 7 values pushed */
9 8 2 1 46 44 3 
CALL[ ]\011/* CallFunction */
IUP[0]\011/* InterpolateUntPts */
IUP[1]\011/* InterpolateUntPts */";
};
vertWidth = 1000;
width = 943;
},
{
associatedMasterId = "47F7128E-F1A6-4572-9BDC-88462FF34A66";
background = {
paths = (
{
closed = 1;
nodes = (
"472 -42 OFFCURVE",
"472 -39 QCURVE",
"494 -43 OFFCURVE",
"517 -38 QCURVE",
"530 -39 OFFCURVE",
"544 -36 QCURVE SMOOTH",
"552 -35 OFFCURVE",
"563 -32 QCURVE",
"582 -34 OFFCURVE",
"597 -22 QCURVE",
"604 -14 OFFCURVE",
"600 -4 QCURVE",
"599 1 OFFCURVE",
"596 3 QCURVE",
"591 3 OFFCURVE",
"591 6 QCURVE",
"577 2 OFFCURVE",
"566 11 QCURVE",
"550 15 OFFCURVE",
"535 14 QCURVE SMOOTH",
"502 10 OFFCURVE",
"469 9 QCURVE SMOOTH",
"402 9 OFFCURVE",
"338 24 QCURVE",
"278 32 OFFCURVE",
"235 72 QCURVE",
"201 114 OFFCURVE",
"194 168 QCURVE SMOOTH",
"191 194 OFFCURVE",
"193 221 QCURVE SMOOTH",
"194 242 OFFCURVE",
"179 260 QCURVE",
"163 270 OFFCURVE",
"143 266 QCURVE",
"119 266 OFFCURVE",
"97 266 QCURVE SMOOTH",
"76 265 OFFCURVE",
"73 246 QCURVE",
"73 235 OFFCURVE",
"75 226 QCURVE",
"74 214 OFFCURVE",
"76 202 QCURVE",
"80 150 OFFCURVE",
"93 101 QCURVE SMOOTH",
"106 57 OFFCURVE",
"142 29 QCURVE",
"160 14 OFFCURVE",
"183 6 QCURVE SMOOTH",
"193 3 OFFCURVE",
"201 -2 QCURVE SMOOTH",
"208 -8 OFFCURVE",
"218 -7 QCURVE",
"246 -13 OFFCURVE",
"273 -21 QCURVE SMOOTH",
"297 -25 OFFCURVE",
"321 -29 QCURVE",
"346 -36 OFFCURVE",
"373 -36 QCURVE SMOOTH",
"385 -36 OFFCURVE",
"397 -33 QCURVE",
"409 -34 OFFCURVE",
"421 -36 QCURVE",
"421 -33 LINE",
"434 -36 OFFCURVE",
"449 -36 QCURVE SMOOTH",
"459 -36 OFFCURVE",
"469 -41 QCURVE",
"469 -41 LINE"
);
},
{
closed = 1;
nodes = (
"657 149 OFFCURVE",
"672 151 QCURVE",
"681 149 OFFCURVE",
"691 152 QCURVE",
"706 163 OFFCURVE",
"698 182 QCURVE SMOOTH",
"686 206 OFFCURVE",
"676 232 QCURVE SMOOTH",
"667 255 OFFCURVE",
"661 278 QCURVE SMOOTH",
"631 379 OFFCURVE",
"599 479 QCURVE",
"593 488 OFFCURVE",
"598 497 QCURVE",
"606 501 OFFCURVE",
"617 501 QCURVE SMOOTH",
"641 502 OFFCURVE",
"669 501 QCURVE SMOOTH",
"694 499 OFFCURVE",
"720 499 QCURVE",
"741 502 OFFCURVE",
"763 505 QCURVE",
"798 498 OFFCURVE",
"803 528 QCURVE",
"796 546 OFFCURVE",
"777 551 QCURVE",
"766 548 OFFCURVE",
"757 551 QCURVE",
"751 557 OFFCURVE",
"744 554 QCURVE",
"717 561 OFFCURVE",
"691 554 QCURVE",
"660 550 OFFCURVE",
"629 553 QCURVE",
"604 548 OFFCURVE",
"582 556 QCURVE",
"572 562 OFFCURVE",
"570 574 QCURVE",
"563 583 OFFCURVE",
"559 594 QCURVE SMOOTH",
"540 654 OFFCURVE",
"525 716 QCURVE",
"521 742 OFFCURVE",
"507 763 QCURVE",
"485 779 OFFCURVE",
"458 775 QCURVE",
"412 786 OFFCURVE",
"392 751 QCURVE",
"392 725 OFFCURVE",
"401 701 QCURVE",
"406 678 OFFCURVE",
"418 658 QCURVE SMOOTH",
"442 612 OFFCURVE",
"456 563 QCURVE",
"459 542 OFFCURVE",
"438 541 QCURVE",
"426 543 OFFCURVE",
"416 544 QCURVE",
"402 543 OFFCURVE",
"391 542 QCURVE SMOOTH",
"338 541 OFFCURVE",
"286 545 QCURVE",
"230 544 OFFCURVE",
"176 548 QCURVE",
"162 547 OFFCURVE",
"148 545 QCURVE",
"135 546 OFFCURVE",
"124 548 QCURVE",
"105 546 OFFCURVE",
"89 538 QCURVE SMOOTH",
"71 531 OFFCURVE",
"79 516 QCURVE",
"89 502 OFFCURVE",
"107 501 QCURVE",
"132 495 OFFCURVE",
"158 496 QCURVE SMOOTH",
"182 495 OFFCURVE",
"207 499 QCURVE",
"259 499 OFFCURVE",
"312 496 QCURVE",
"339 497 OFFCURVE",
"365 493 QCURVE SMOOTH",
"387 489 OFFCURVE",
"412 494 QCURVE",
"437 493 OFFCURVE",
"463 490 QCURVE",
"480 485 OFFCURVE",
"487 469 QCURVE SMOOTH",
"507 422 OFFCURVE",
"519 374 QCURVE SMOOTH",
"536 323 OFFCURVE",
"551 272 QCURVE SMOOTH",
"558 246 OFFCURVE",
"567 222 QCURVE",
"577 201 OFFCURVE",
"580 181 QCURVE",
"580 160 OFFCURVE",
"597 150 QCURVE",
"608 148 OFFCURVE",
"621 150 QCURVE",
"632 149 OFFCURVE",
"644 147 QCURVE",
"644 147 LINE"
);
}
);
};
layerId = "B8016BFC-912F-44A8-BA78-0607E48371AA";
name = other_3;
paths = (
{
closed = 1;
nodes = (
"884 608 OFFCURVE",
"877 613 OFFCURVE",
"850 613 CURVE SMOOTH",
"79 613 LINE SMOOTH",
"52 613 OFFCURVE",
"45 608 OFFCURVE",
"45 589 CURVE SMOOTH",
"45 570 OFFCURVE",
"52 565 OFFCURVE",
"79 565 CURVE SMOOTH",
"850 565 LINE SMOOTH",
"877 565 OFFCURVE",
"884 570 OFFCURVE",
"884 589 CURVE SMOOTH"
);
},
{
closed = 1;
nodes = (
"447 772 OFFCURVE",
"445 742 OFFCURVE",
"454 717 CURVE SMOOTH",
"463 692 OFFCURVE",
"527 450 OFFCURVE",
"542 399 CURVE SMOOTH",
"557 348 OFFCURVE",
"557 310 OFFCURVE",
"511 310 CURVE SMOOTH",
"450 310 OFFCURVE",
"111 276 OFFCURVE",
"111 191 CURVE SMOOTH",
"111 26 OFFCURVE",
"404 -58 OFFCURVE",
"491 -58 CURVE SMOOTH",
"509 -58 OFFCURVE",
"528 -58 OFFCURVE",
"549 -58 CURVE SMOOTH",
"570 -58 OFFCURVE",
"566 -28 OFFCURVE",
"545 -13 CURVE SMOOTH",
"524 2 OFFCURVE",
"253 52 OFFCURVE",
"253 153 CURVE SMOOTH",
"253 227 OFFCURVE",
"390 269 OFFCURVE",
"636 269 CURVE SMOOTH",
"671 269 OFFCURVE",
"702 308 OFFCURVE",
"695 348 CURVE SMOOTH",
"688 388 OFFCURVE",
"602 724 OFFCURVE",
"598 741 CURVE SMOOTH",
"594 758 OFFCURVE",
"566 772 OFFCURVE",
"545 772 CURVE SMOOTH",
"524 772 OFFCURVE",
"500 772 OFFCURVE",
"465 772 CURVE"
);
}
);
userData = {
assembly = "SVTCA[0]\011/* SetFreedomAndProjectionVectorToAxis */
PUSHB[ ]\011/* 7 values pushed */
9 8 2 1 46 44 3 
CALL[ ]\011/* CallFunction */
IUP[0]\011/* InterpolateUntPts */
IUP[1]\011/* InterpolateUntPts */";
};
vertWidth = 1000;
width = 929;
}
);
note = uni3055;
unicode = 3055;
},
{
color = 0;
glyphname = "si-hira";
lastChange = "2019-12-12 01:48:44 +0000";
layers = (
{
layerId = "47F7128E-F1A6-4572-9BDC-88462FF34A66";
paths = (
{
closed = 1;
nodes = (
"134 744 OFFCURVE",
"109 744 OFFCURVE",
"98 744 CURVE SMOOTH",
"87 744 OFFCURVE",
"70 733 OFFCURVE",
"65 691 CURVE SMOOTH",
"58 633 OFFCURVE",
"45 385 OFFCURVE",
"45 360 CURVE SMOOTH",
"45 157 OFFCURVE",
"107 16 OFFCURVE",
"313 16 CURVE SMOOTH",
"551 16 OFFCURVE",
"667 164 OFFCURVE",
"667 314 CURVE SMOOTH",
"667 339 OFFCURVE",
"659 363 OFFCURVE",
"644 363 CURVE SMOOTH",
"629 363 OFFCURVE",
"602 363 OFFCURVE",
"588 363 CURVE SMOOTH",
"574 363 OFFCURVE",
"557 356 OFFCURVE",
"557 342 CURVE SMOOTH",
"557 218 OFFCURVE",
"479 67 OFFCURVE",
"347 67 CURVE SMOOTH",
"200 67 OFFCURVE",
"153 209 OFFCURVE",
"153 417 CURVE SMOOTH",
"153 617 OFFCURVE",
"173 700 OFFCURVE",
"173 717 CURVE SMOOTH",
"173 734 OFFCURVE",
"167 744 OFFCURVE",
"154 744 CURVE"
);
}
);
userData = {
assembly = "PUSHB[ ]\011/* 6 values pushed */
50 115 32 31 23 8 
CALL[ ]\011/* CallFunction */
SVTCA[0]\011/* SetFreedomAndProjectionVectorToAxis */
IUP[0]\011/* InterpolateUntPts */
IUP[1]\011/* InterpolateUntPts */";
};
vertWidth = 1000;
width = 712;
}
);
note = uni3057;
unicode = 3057;
},
{
color = 0;
glyphname = "su-hira";
lastChange = "2019-12-12 01:48:46 +0000";
layers = (
{
layerId = "47F7128E-F1A6-4572-9BDC-88462FF34A66";
paths = (
{
closed = 1;
nodes = (
"45 646 OFFCURVE",
"60 633 OFFCURVE",
"79 633 CURVE SMOOTH",
"770 633 LINE SMOOTH",
"789 633 OFFCURVE",
"804 646 OFFCURVE",
"804 662 CURVE SMOOTH",
"804 679 OFFCURVE",
"789 692 OFFCURVE",
"770 692 CURVE SMOOTH",
"79 692 LINE SMOOTH",
"60 692 OFFCURVE",
"45 679 OFFCURVE",
"45 662 CURVE SMOOTH"
);
},
{
closed = 1;
nodes = (
"530 470 LINE",
"530 402 LINE SMOOTH",
"530 344 OFFCURVE",
"468 226 OFFCURVE",
"380 226 CURVE",
"293 226 OFFCURVE",
"266 272 OFFCURVE",
"266 359 CURVE SMOOTH",
"266 425 OFFCURVE",
"311 485 OFFCURVE",
"380 485 CURVE SMOOTH",
"449 485 OFFCURVE",
"520 463 OFFCURVE",
"520 324 CURVE SMOOTH",
"520 299 OFFCURVE",
"520 276 OFFCURVE",
"519 254 CURVE",
"618 254 LINE",
"622 284 OFFCURVE",
"625 314 OFFCURVE",
"625 337 CURVE SMOOTH",
"625 495 OFFCURVE",
"460 540 OFFCURVE",
"381 540 CURVE SMOOTH",
"303 540 OFFCURVE",
"159 496 OFFCURVE",
"159 361 CURVE SMOOTH",
"159 226 OFFCURVE",
"221 169 OFFCURVE",
"375 169 CURVE SMOOTH",
"529 169 OFFCURVE",
"617 243 OFFCURVE",
"620 405 CURVE"
);
},
{
closed = 1;
nodes = (
"543 808 LINE SMOOTH",
"527 808 OFFCURVE",
"515 788 OFFCURVE",
"515 767 CURVE SMOOTH",
"515 353 LINE SMOOTH",
"515 211 OFFCURVE",
"470 88 OFFCURVE",
"464 72 CURVE SMOOTH",
"457 54 OFFCURVE",
"446 15 OFFCURVE",
"466 15 CURVE SMOOTH",
"549 15 LINE SMOOTH",
"562 15 OFFCURVE",
"593 62 OFFCURVE",
"599 82 CURVE SMOOTH",
"607 110 OFFCURVE",
"635 215 OFFCURVE",
"635 349 CURVE SMOOTH",
"635 775 LINE",
"631 794 OFFCURVE",
"616 808 OFFCURVE",
"597 808 CURVE SMOOTH"
);
}
);
userData = {
assembly = "SVTCA[0]\011/* SetFreedomAndProjectionVectorToAxis */
PUSHB[ ]\011/* 8 values pushed */
73 58 121 0 82 62 104 0 
CALL[ ]\011/* CallFunction */
CALL[ ]\011/* CallFunction */
IUP[0]\011/* InterpolateUntPts */
IUP[1]\011/* InterpolateUntPts */";
};
vertWidth = 1000;
width = 849;
}
);
note = uni3059;
unicode = 3059;
},
{
color = 0;
glyphname = "se-hira";
lastChange = "2019-12-12 01:48:49 +0000";
layers = (
{
layerId = "47F7128E-F1A6-4572-9BDC-88462FF34A66";
paths = (
{
closed = 1;
nodes = (
"45 463 OFFCURVE",
"60 453 OFFCURVE",
"79 453 CURVE SMOOTH",
"797 453 LINE SMOOTH",
"816 453 OFFCURVE",
"831 464 OFFCURVE",
"831 478 CURVE SMOOTH",
"831 491 OFFCURVE",
"816 502 OFFCURVE",
"797 502 CURVE SMOOTH",
"79 502 LINE SMOOTH",
"60 502 OFFCURVE",
"45 491 OFFCURVE",
"45 478 CURVE SMOOTH"
);
},
{
closed = 1;
nodes = (
"553 212 LINE",
"553 190 OFFCURVE",
"562 178 OFFCURVE",
"581 178 CURVE SMOOTH",
"633 178 LINE SMOOTH",
"652 178 OFFCURVE",
"673 193 OFFCURVE",
"673 212 CURVE SMOOTH",
"673 703 LINE SMOOTH",
"673 723 OFFCURVE",
"661 737 OFFCURVE",
"645 737 CURVE SMOOTH",
"593 737 LINE SMOOTH",
"574 737 OFFCURVE",
"553 722 OFFCURVE",
"553 703 CURVE SMOOTH"
);
},
{
closed = 1;
nodes = (
"253 736 OFFCURVE",
"222 736 OFFCURVE",
"204 736 CURVE SMOOTH",
"186 736 OFFCURVE",
"165 720 OFFCURVE",
"166 694 CURVE SMOOTH",
"167 668 OFFCURVE",
"187 115 OFFCURVE",
"187 94 CURVE SMOOTH",
"187 73 OFFCURVE",
"217 39 OFFCURVE",
"253 39 CURVE SMOOTH",
"289 39 OFFCURVE",
"674 39 OFFCURVE",
"700 39 CURVE SMOOTH",
"726 39 OFFCURVE",
"751 50 OFFCURVE",
"752 62 CURVE SMOOTH",
"753 74 OFFCURVE",
"734 94 OFFCURVE",
"708 94 CURVE SMOOTH",
"682 94 OFFCURVE",
"370 94 OFFCURVE",
"346 94 CURVE SMOOTH",
"322 94 OFFCURVE",
"311 107 OFFCURVE",
"309 137 CURVE SMOOTH",
"307 167 OFFCURVE",
"299 671 OFFCURVE",
"300 691 CURVE SMOOTH",
"301 710 OFFCURVE",
"296 736 OFFCURVE",
"279 736 CURVE"
);
}
);
userData = {
assembly = "SVTCA[0]\011/* SetFreedomAndProjectionVectorToAxis */
PUSHB[ ]\011/* 6 values pushed */
18 55 93 92 28 8 
CALL[ ]\011/* CallFunction */
IUP[0]\011/* InterpolateUntPts */
IUP[1]\011/* InterpolateUntPts */";
};
vertWidth = 1000;
width = 876;
}
);
note = uni305B;
unicode = 305B;
},
{
color = 0;
glyphname = "so-hira";
lastChange = "2019-12-12 01:48:51 +0000";
layers = (
{
layerId = "47F7128E-F1A6-4572-9BDC-88462FF34A66";
paths = (
{
closed = 1;
nodes = (
"550 722 OFFCURVE",
"211 722 OFFCURVE",
"191 722 CURVE SMOOTH",
"171 722 OFFCURVE",
"133 722 OFFCURVE",
"133 701 CURVE SMOOTH",
"133 680 OFFCURVE",
"161 678 OFFCURVE",
"186 678 CURVE SMOOTH",
"211 678 OFFCURVE",
"372 678 OFFCURVE",
"399 678 CURVE SMOOTH",
"461 678 OFFCURVE",
"462 670 OFFCURVE",
"417 644 CURVE SMOOTH",
"393 630 OFFCURVE",
"136 454 OFFCURVE",
"82 416 CURVE SMOOTH",
"37 384 OFFCURVE",
"30 363 OFFCURVE",
"81 363 CURVE SMOOTH",
"131 363 OFFCURVE",
"711 363 OFFCURVE",
"739 363 CURVE SMOOTH",
"767 363 OFFCURVE",
"790 374 OFFCURVE",
"790 385 CURVE SMOOTH",
"790 397 OFFCURVE",
"776 411 OFFCURVE",
"741 411 CURVE SMOOTH",
"706 411 OFFCURVE",
"306 411 OFFCURVE",
"280 411 CURVE SMOOTH",
"254 411 OFFCURVE",
"283 434 OFFCURVE",
"308 452 CURVE SMOOTH",
"333 469 OFFCURVE",
"588 646 OFFCURVE",
"610 660 CURVE SMOOTH",
"660 692 OFFCURVE",
"669 722 OFFCURVE",
"591 722 CURVE"
);
},
{
closed = 1;
nodes = (
"782 379 LINE",
"600 379 LINE",
"380 379 OFFCURVE",
"208 337 OFFCURVE",
"208 202 CURVE SMOOTH",
"208 116 OFFCURVE",
"403 20 OFFCURVE",
"508 20 CURVE SMOOTH",
"526 20 OFFCURVE",
"587 20 OFFCURVE",
"604 20 CURVE SMOOTH",
"620 20 OFFCURVE",
"676 84 OFFCURVE",
"638 84 CURVE SMOOTH",
"504 84 OFFCURVE",
"351 128 OFFCURVE",
"351 201 CURVE SMOOTH",
"351 300 OFFCURVE",
"481 363 OFFCURVE",
"739 363 CURVE"
);
}
);
userData = {
assembly = "SVTCA[0]\011/* SetFreedomAndProjectionVectorToAxis */
NPUSHB[ ]\011/* 10 values pushed */
33 32 43 157 143 5 77 48 106 0 
CALL[ ]\011/* CallFunction */
CALL[ ]\011/* CallFunction */
IUP[0]\011/* InterpolateUntPts */
IUP[1]\011/* InterpolateUntPts */";
};
vertWidth = 1000;
width = 835;
},
{
associatedMasterId = "47F7128E-F1A6-4572-9BDC-88462FF34A66";
background = {
paths = (
{
closed = 1;
nodes = (
"482 -49 OFFCURVE",
"494 -47 QCURVE SMOOTH",
"505 -45 OFFCURVE",
"518 -47 QCURVE",
"542 -47 OFFCURVE",
"566 -45 QCURVE SMOOTH",
"577 -44 OFFCURVE",
"588 -40 QCURVE",
"599 -39 OFFCURVE",
"610 -40 QCURVE",
"634 -38 OFFCURVE",
"658 -30 QCURVE SMOOTH",
"680 -22 OFFCURVE",
"699 -8 QCURVE",
"718 3 OFFCURVE",
"739 14 QCURVE SMOOTH",
"779 35 OFFCURVE",
"813 68 QCURVE",
"827 80 OFFCURVE",
"837 97 QCURVE",
"840 116 OFFCURVE",
"820 123 QCURVE",
"810 124 OFFCURVE",
"800 125 QCURVE SMOOTH",
"787 127 OFFCURVE",
"775 131 QCURVE SMOOTH",
"755 136 OFFCURVE",
"736 128 QCURVE",
"719 117 OFFCURVE",
"710 100 QCURVE",
"696 81 OFFCURVE",
"678 70 QCURVE",
"669 63 OFFCURVE",
"662 58 QCURVE",
"656 50 OFFCURVE",
"650 45 QCURVE",
"635 41 OFFCURVE",
"625 30 QCURVE",
"626 28 OFFCURVE",
"627 29 QCURVE",
"614 21 OFFCURVE",
"600 19 QCURVE",
"585 13 OFFCURVE",
"573 6 QCURVE",
"546 -5 OFFCURVE",
"519 0 QCURVE",
"488 1 OFFCURVE",
"459 7 QCURVE SMOOTH",
"443 10 OFFCURVE",
"429 16 QCURVE",
"417 17 OFFCURVE",
"406 21 QCURVE SMOOTH",
"394 25 OFFCURVE",
"381 32 QCURVE SMOOTH",
"368 41 OFFCURVE",
"361 55 QCURVE",
"345 78 OFFCURVE",
"352 106 QCURVE",
"357 119 OFFCURVE",
"365 130 QCURVE SMOOTH",
"372 141 OFFCURVE",
"380 151 QCURVE SMOOTH",
"391 163 OFFCURVE",
"404 173 QCURVE",
"412 177 OFFCURVE",
"414 187 QCURVE",
"422 188 OFFCURVE",
"429 195 QCURVE",
"437 200 OFFCURVE",
"445 204 QCURVE",
"464 217 OFFCURVE",
"483 229 QCURVE",
"493 232 OFFCURVE",
"504 237 QCURVE",
"512 244 OFFCURVE",
"521 249 QCURVE SMOOTH",
"542 259 OFFCURVE",
"564 267 QCURVE SMOOTH",
"588 273 OFFCURVE",
"612 278 QCURVE",
"634 285 OFFCURVE",
"658 289 QCURVE SMOOTH",
"682 295 OFFCURVE",
"706 295 QCURVE",
"717 293 OFFCURVE",
"728 298 QCURVE",
"729 301 OFFCURVE",
"733 302 QCURVE",
"736 310 OFFCURVE",
"748 310 QCURVE",
"788 303 OFFCURVE",
"816 328 QCURVE",
"827 361 OFFCURVE",
"790 366 QCURVE",
"764 366 OFFCURVE",
"739 367 QCURVE SMOOTH",
"715 369 OFFCURVE",
"690 365 QCURVE SMOOTH",
"665 360 OFFCURVE",
"639 361 QCURVE",
"626 360 OFFCURVE",
"614 359 QCURVE SMOOTH",
"602 357 OFFCURVE",
"589 358 QCURVE",
"535 356 OFFCURVE",
"481 361 QCURVE SMOOTH",
"429 367 OFFCURVE",
"377 366 QCURVE SMOOTH",
"351 366 OFFCURVE",
"325 370 QCURVE",
"306 370 OFFCURVE",
"286 371 QCURVE",
"273 369 OFFCURVE",
"271 379 QCURVE",
"283 394 OFFCURVE",
"303 401 QCURVE SMOOTH",
"313 405 OFFCURVE",
"323 411 QCURVE",
"330 417 OFFCURVE",
"338 424 QCURVE",
"357 437 OFFCURVE",
"378 449 QCURVE SMOOTH",
"421 477 OFFCURVE",
"465 504 QCURVE SMOOTH",
"508 532 OFFCURVE",
"554 560 QCURVE SMOOTH",
"595 586 OFFCURVE",
"639 609 QCURVE",
"685 629 OFFCURVE",
"728 656 QCURVE",
"778 670 OFFCURVE",
"771 713 QCURVE",
"757 730 OFFCURVE",
"735 730 QCURVE SMOOTH",
"710 732 OFFCURVE",
"685 732 QCURVE SMOOTH",
"656 730 OFFCURVE",
"629 729 QCURVE",
"616 732 OFFCURVE",
"611 725 QCURVE",
"598 728 OFFCURVE",
"586 721 QCURVE",
"573 720 OFFCURVE",
"560 721 QCURVE SMOOTH",
"528 722 OFFCURVE",
"496 722 QCURVE SMOOTH",
"432 721 OFFCURVE",
"367 723 QCURVE SMOOTH",
"335 722 OFFCURVE",
"305 720 QCURVE",
"275 723 OFFCURVE",
"247 729 QCURVE",
"218 724 OFFCURVE",
"188 725 QCURVE",
"172 730 OFFCURVE",
"164 720 QCURVE",
"147 728 OFFCURVE",
"109 702 OFFCURVE",
"124 687 QCURVE",
"139 681 OFFCURVE",
"155 682 QCURVE SMOOTH",
"180 681 OFFCURVE",
"206 681 QCURVE SMOOTH",
"221 680 OFFCURVE",
"235 681 QCURVE",
"247 677 OFFCURVE",
"260 676 QCURVE SMOOTH",
"284 673 OFFCURVE",
"310 674 QCURVE SMOOTH",
"336 673 OFFCURVE",
"363 671 QCURVE",
"387 672 OFFCURVE",
"410 677 QCURVE",
"461 675 OFFCURVE",
"513 675 QCURVE",
"538 677 OFFCURVE",
"566 677 QCURVE",
"577 663 OFFCURVE",
"554 652 QCURVE",
"509 624 OFFCURVE",
"464 598 QCURVE SMOOTH",
"439 583 OFFCURVE",
"416 568 QCURVE",
"407 561 OFFCURVE",
"396 556 QCURVE SMOOTH",
"387 552 OFFCURVE",
"380 546 QCURVE SMOOTH",
"370 538 OFFCURVE",
"359 534 QCURVE",
"351 528 OFFCURVE",
"342 522 QCURVE SMOOTH",
"321 508 OFFCURVE",
"301 493 QCURVE SMOOTH",
"256 464 OFFCURVE",
"211 436 QCURVE SMOOTH",
"189 423 OFFCURVE",
"172 408 QCURVE SMOOTH",
"151 394 OFFCURVE",
"130 385 QCURVE SMOOTH",
"104 373 OFFCURVE",
"80 363 QCURVE",
"60 357 OFFCURVE",
"54 339 QCURVE",
"75 306 OFFCURVE",
"120 312 QCURVE",
"133 310 OFFCURVE",
"147 311 QCURVE",
"154 310 OFFCURVE",
"162 315 QCURVE",
"170 316 OFFCURVE",
"179 313 QCURVE",
"201 313 LINE",
"227 316 OFFCURVE",
"253 320 QCURVE",
"277 319 OFFCURVE",
"303 319 QCURVE SMOOTH",
"330 320 OFFCURVE",
"356 324 QCURVE",
"382 324 OFFCURVE",
"407 324 QCURVE SMOOTH",
"433 326 OFFCURVE",
"461 325 QCURVE",
"472 323 OFFCURVE",
"485 322 QCURVE",
"496 323 OFFCURVE",
"507 321 QCURVE",
"467 301 OFFCURVE",
"424 286 QCURVE SMOOTH",
"413 282 OFFCURVE",
"403 278 QCURVE SMOOTH",
"395 273 OFFCURVE",
"389 267 QCURVE",
"371 254 OFFCURVE",
"354 245 QCURVE",
"316 221 OFFCURVE",
"288 188 QCURVE",
"257 157 OFFCURVE",
"238 120 QCURVE",
"221 77 OFFCURVE",
"240 36 QCURVE SMOOTH",
"260 1 OFFCURVE",
"295 -18 QCURVE",
"314 -30 OFFCURVE",
"338 -36 QCURVE SMOOTH",
"358 -42 OFFCURVE",
"382 -44 QCURVE SMOOTH",
"404 -46 OFFCURVE",
"429 -44 QCURVE SMOOTH",
"439 -43 OFFCURVE",
"452 -44 QCURVE",
"461 -47 OFFCURVE",
"472 -48 QCURVE",
"472 -48 LINE"
);
}
);
};
layerId = "5FB13188-6F27-4324-AAE9-A528D788B27A";
name = "Nov 14 19, 13:52";
paths = (
{
closed = 1;
nodes = (
"680 772 OFFCURVE",
"201 772 OFFCURVE",
"181 772 CURVE SMOOTH",
"161 772 OFFCURVE",
"123 772 OFFCURVE",
"123 751 CURVE SMOOTH",
"123 730 OFFCURVE",
"151 728 OFFCURVE",
"176 728 CURVE SMOOTH",
"201 728 OFFCURVE",
"502 728 OFFCURVE",
"529 728 CURVE SMOOTH",
"556 728 OFFCURVE",
"570 711 OFFCURVE",
"547 694 CURVE SMOOTH",
"524 677 OFFCURVE",
"111 411 OFFCURVE",
"92 396 CURVE SMOOTH",
"47 361 OFFCURVE",
"40 339 OFFCURVE",
"91 339 CURVE SMOOTH",
"141 339 OFFCURVE",
"741 339 OFFCURVE",
"769 339 CURVE SMOOTH",
"797 339 OFFCURVE",
"820 351 OFFCURVE",
"820 363 CURVE SMOOTH",
"820 376 OFFCURVE",
"806 391 OFFCURVE",
"771 391 CURVE SMOOTH",
"736 391 OFFCURVE",
"340 391 OFFCURVE",
"314 391 CURVE SMOOTH",
"288 391 OFFCURVE",
"277 405 OFFCURVE",
"302 424 CURVE SMOOTH",
"327 443 OFFCURVE",
"718 696 OFFCURVE",
"740 710 CURVE SMOOTH",
"790 741 OFFCURVE",
"799 772 OFFCURVE",
"721 772 CURVE"
);
},
{
closed = 1;
nodes = (
"622 363 LINE",
"578 347 OFFCURVE",
"511 325 OFFCURVE",
"489 316 CURVE SMOOTH",
"467 307 OFFCURVE",
"249 206 OFFCURVE",
"249 87 CURVE SMOOTH",
"249 -17 OFFCURVE",
"314 -49 OFFCURVE",
"523 -49 CURVE SMOOTH",
"633 -49 OFFCURVE",
"684 -21 OFFCURVE",
"716 4 CURVE SMOOTH",
"728 13 OFFCURVE",
"753 37 OFFCURVE",
"730 37 CURVE SMOOTH",
"707 37 OFFCURVE",
"677 37 OFFCURVE",
"662 37 CURVE SMOOTH",
"647 37 OFFCURVE",
"619 31 OFFCURVE",
"608 24 CURVE SMOOTH",
"597 17 OFFCURVE",
"566 -1 OFFCURVE",
"523 -1 CURVE SMOOTH",
"480 -1 OFFCURVE",
"346 6 OFFCURVE",
"346 87 CURVE SMOOTH",
"346 168 OFFCURVE",
"455 226 OFFCURVE",
"522 254 CURVE",
"793 363 LINE"
);
}
);
userData = {
assembly = "SVTCA[0]\011/* SetFreedomAndProjectionVectorToAxis */
NPUSHB[ ]\011/* 10 values pushed */
33 32 43 157 143 5 77 48 106 0 
CALL[ ]\011/* CallFunction */
CALL[ ]\011/* CallFunction */
IUP[0]\011/* InterpolateUntPts */
IUP[1]\011/* InterpolateUntPts */";
};
vertWidth = 1000;
width = 901;
}
);
note = uni305D;
unicode = 305D;
},
{
color = 0;
glyphname = "ta-hira";
lastChange = "2019-12-12 01:48:53 +0000";
layers = (
{
layerId = "47F7128E-F1A6-4572-9BDC-88462FF34A66";
paths = (
{
closed = 1;
nodes = (
"45 544 OFFCURVE",
"52 539 OFFCURVE",
"79 539 CURVE SMOOTH",
"635 539 LINE SMOOTH",
"662 539 OFFCURVE",
"669 544 OFFCURVE",
"669 565 CURVE SMOOTH",
"669 586 OFFCURVE",
"662 591 OFFCURVE",
"635 591 CURVE SMOOTH",
"79 591 LINE SMOOTH",
"52 591 OFFCURVE",
"45 586 OFFCURVE",
"45 565 CURVE SMOOTH"
);
},
{
closed = 1;
nodes = (
"132 24 LINE SMOOTH",
"130 -6 OFFCURVE",
"136 -14 OFFCURVE",
"167 -14 CURVE SMOOTH",
"231 -14 LINE SMOOTH",
"255 -14 OFFCURVE",
"262 -8 OFFCURVE",
"264 16 CURVE SMOOTH",
"320 726 LINE SMOOTH",
"322 756 OFFCURVE",
"316 764 OFFCURVE",
"285 764 CURVE SMOOTH",
"221 764 LINE SMOOTH",
"197 764 OFFCURVE",
"190 758 OFFCURVE",
"188 734 CURVE SMOOTH"
);
},
{
closed = 1;
nodes = (
"464 435 LINE SMOOTH",
"423 435 OFFCURVE",
"391 435 OFFCURVE",
"391 410 CURVE SMOOTH",
"391 385 OFFCURVE",
"430 385 OFFCURVE",
"466 385 CURVE SMOOTH",
"502 385 OFFCURVE",
"563 390 OFFCURVE",
"637 390 CURVE SMOOTH",
"655 390 OFFCURVE",
"667 388 OFFCURVE",
"667 378 CURVE SMOOTH",
"667 369 OFFCURVE",
"657 353 OFFCURVE",
"630 326 CURVE SMOOTH",
"618 314 OFFCURVE",
"611 302 OFFCURVE",
"611 293 CURVE SMOOTH",
"611 280 OFFCURVE",
"625 271 OFFCURVE",
"659 271 CURVE SMOOTH",
"696 271 OFFCURVE",
"714 281 OFFCURVE",
"738 308 CURVE",
"795 389 LINE SMOOTH",
"803 401 OFFCURVE",
"808 410 OFFCURVE",
"808 416 CURVE SMOOTH",
"808 431 OFFCURVE",
"787 435 OFFCURVE",
"738 435 CURVE SMOOTH"
);
},
{
closed = 1;
nodes = (
"461 216 LINE SMOOTH",
"413 216 OFFCURVE",
"377 191 OFFCURVE",
"377 119 CURVE SMOOTH",
"377 62 OFFCURVE",
"451 26 OFFCURVE",
"523 26 CURVE SMOOTH",
"759 26 LINE SMOOTH",
"775 26 OFFCURVE",
"814 32 OFFCURVE",
"814 48 CURVE SMOOTH",
"814 64 OFFCURVE",
"796 74 OFFCURVE",
"775 74 CURVE SMOOTH",
"606 74 LINE SMOOTH",
"563 74 OFFCURVE",
"499 83 OFFCURVE",
"499 140 CURVE SMOOTH",
"499 189 OFFCURVE",
"550 189 OFFCURVE",
"550 206 CURVE SMOOTH",
"550 213 OFFCURVE",
"544 216 OFFCURVE",
"525 216 CURVE SMOOTH"
);
}
);
userData = {
assembly = "SVTCA[0]\011/* SetFreedomAndProjectionVectorToAxis */
IUP[0]\011/* InterpolateUntPts */
IUP[1]\011/* InterpolateUntPts */";
};
vertWidth = 1000;
width = 859;
}
);
note = uni305F;
unicode = 305F;
},
{
color = 0;
glyphname = "ti-hira";
lastChange = "2019-12-12 01:48:55 +0000";
layers = (
{
layerId = "47F7128E-F1A6-4572-9BDC-88462FF34A66";
paths = (
{
closed = 1;
nodes = (
"45 570 OFFCURVE",
"52 565 OFFCURVE",
"79 565 CURVE SMOOTH",
"780 565 LINE SMOOTH",
"807 565 OFFCURVE",
"814 570 OFFCURVE",
"814 589 CURVE SMOOTH",
"814 608 OFFCURVE",
"807 613 OFFCURVE",
"780 613 CURVE SMOOTH",
"79 613 LINE SMOOTH",
"52 613 OFFCURVE",
"45 608 OFFCURVE",
"45 589 CURVE SMOOTH"
);
},
{
closed = 1;
nodes = (
"347 742 OFFCURVE",
"323 742 OFFCURVE",
"302 742 CURVE SMOOTH",
"281 742 OFFCURVE",
"253 728 OFFCURVE",
"249 711 CURVE SMOOTH",
"245 694 OFFCURVE",
"159 388 OFFCURVE",
"152 348 CURVE SMOOTH",
"145 308 OFFCURVE",
"176 269 OFFCURVE",
"211 269 CURVE SMOOTH",
"599 269 OFFCURVE",
"634 263 OFFCURVE",
"634 164 CURVE SMOOTH",
"634 106 OFFCURVE",
"303 73 OFFCURVE",
"207 73 CURVE SMOOTH",
"182 73 OFFCURVE",
"182 28 OFFCURVE",
"203 28 CURVE SMOOTH",
"224 28 OFFCURVE",
"243 28 OFFCURVE",
"261 28 CURVE SMOOTH",
"348 28 OFFCURVE",
"776 52 OFFCURVE",
"776 191 CURVE SMOOTH",
"776 276 OFFCURVE",
"739 318 OFFCURVE",
"365 318 CURVE SMOOTH",
"291 318 OFFCURVE",
"290 348 OFFCURVE",
"305 399 CURVE SMOOTH",
"320 450 OFFCURVE",
"384 662 OFFCURVE",
"393 687 CURVE SMOOTH",
"402 712 OFFCURVE",
"400 742 OFFCURVE",
"382 742 CURVE"
);
}
);
userData = {
assembly = "PUSHB[ ]\011/* 4 values pushed */
148 3 146 0 
CALL[ ]\011/* CallFunction */
SVTCA[0]\011/* SetFreedomAndProjectionVectorToAxis */
PUSHB[ ]\011/* 4 values pushed */
175 58 165 0 
CALL[ ]\011/* CallFunction */
IUP[0]\011/* InterpolateUntPts */
IUP[1]\011/* InterpolateUntPts */";
};
vertWidth = 1000;
width = 859;
},
{
associatedMasterId = "47F7128E-F1A6-4572-9BDC-88462FF34A66";
background = {
paths = (
{
closed = 1;
nodes = (
"522 -74 OFFCURVE",
"547 -73 QCURVE SMOOTH",
"569 -71 OFFCURVE",
"590 -68 QCURVE",
"615 -68 OFFCURVE",
"640 -67 QCURVE",
"661 -63 OFFCURVE",
"682 -58 QCURVE",
"705 -57 OFFCURVE",
"728 -51 QCURVE",
"746 -41 OFFCURVE",
"763 -32 QCURVE",
"803 -20 OFFCURVE",
"838 7 QCURVE",
"896 63 OFFCURVE",
"894 146 QCURVE SMOOTH",
"894 168 OFFCURVE",
"887 191 QCURVE",
"878 208 OFFCURVE",
"867 226 QCURVE SMOOTH",
"845 262 OFFCURVE",
"811 284 QCURVE SMOOTH",
"801 291 OFFCURVE",
"794 300 QCURVE SMOOTH",
"787 306 OFFCURVE",
"778 310 QCURVE",
"771 315 OFFCURVE",
"764 320 QCURVE",
"754 325 OFFCURVE",
"744 328 QCURVE SMOOTH",
"696 346 OFFCURVE",
"646 357 QCURVE",
"632 358 OFFCURVE",
"620 362 QCURVE SMOOTH",
"609 367 OFFCURVE",
"599 370 QCURVE",
"576 373 OFFCURVE",
"553 374 QCURVE",
"506 385 OFFCURVE",
"457 381 QCURVE SMOOTH",
"430 379 OFFCURVE",
"404 378 QCURVE SMOOTH",
"384 377 OFFCURVE",
"366 373 QCURVE",
"355 368 OFFCURVE",
"355 377 QCURVE",
"359 385 OFFCURVE",
"364 393 QCURVE SMOOTH",
"376 411 OFFCURVE",
"390 430 QCURVE",
"416 471 OFFCURVE",
"440 513 QCURVE SMOOTH",
"455 535 OFFCURVE",
"470 560 QCURVE",
"480 579 OFFCURVE",
"497 595 QCURVE",
"532 610 OFFCURVE",
"571 607 QCURVE",
"624 608 OFFCURVE",
"676 608 QCURVE SMOOTH",
"730 607 OFFCURVE",
"784 606 QCURVE SMOOTH",
"810 606 OFFCURVE",
"838 608 QCURVE",
"859 605 OFFCURVE",
"880 615 QCURVE",
"896 627 OFFCURVE",
"885 646 QCURVE",
"873 656 OFFCURVE",
"856 656 QCURVE",
"831 660 OFFCURVE",
"805 663 QCURVE",
"780 663 OFFCURVE",
"756 661 QCURVE SMOOTH",
"741 659 OFFCURVE",
"727 660 QCURVE SMOOTH",
"715 661 OFFCURVE",
"704 659 QCURVE SMOOTH",
"692 656 OFFCURVE",
"681 659 QCURVE",
"670 659 OFFCURVE",
"658 659 QCURVE SMOOTH",
"644 658 OFFCURVE",
"632 656 QCURVE",
"606 656 LINE SMOOTH",
"594 657 OFFCURVE",
"584 658 QCURVE",
"573 656 OFFCURVE",
"562 656 QCURVE",
"562 659 OFFCURVE",
"559 659 QCURVE",
"559 658 LINE",
"543 653 OFFCURVE",
"533 663 QCURVE",
"553 672 OFFCURVE",
"556 698 QCURVE",
"575 725 OFFCURVE",
"593 752 QCURVE",
"598 785 OFFCURVE",
"563 792 QCURVE SMOOTH",
"539 797 OFFCURVE",
"516 796 QCURVE",
"497 798 OFFCURVE",
"480 791 QCURVE",
"465 780 OFFCURVE",
"460 763 QCURVE",
"448 745 OFFCURVE",
"436 728 QCURVE SMOOTH",
"416 691 OFFCURVE",
"395 656 QCURVE",
"384 643 OFFCURVE",
"368 647 QCURVE",
"345 648 OFFCURVE",
"324 646 QCURVE SMOOTH",
"280 640 OFFCURVE",
"236 642 QCURVE",
"232 648 OFFCURVE",
"223 644 QCURVE",
"208 640 OFFCURVE",
"191 642 QCURVE SMOOTH",
"173 643 OFFCURVE",
"154 643 QCURVE",
"144 640 OFFCURVE",
"134 641 QCURVE",
"132 643 OFFCURVE",
"129 641 QCURVE SMOOTH",
"126 639 OFFCURVE",
"123 639 QCURVE SMOOTH",
"90 642 OFFCURVE",
"60 635 QCURVE",
"40 614 OFFCURVE",
"67 599 QCURVE",
"97 588 OFFCURVE",
"130 595 QCURVE",
"167 596 OFFCURVE",
"206 595 QCURVE SMOOTH",
"245 594 OFFCURVE",
"285 595 QCURVE",
"322 599 OFFCURVE",
"361 601 QCURVE",
"340 553 OFFCURVE",
"310 511 QCURVE SMOOTH",
"280 464 OFFCURVE",
"254 416 QCURVE",
"244 395 OFFCURVE",
"229 375 QCURVE SMOOTH",
"215 357 OFFCURVE",
"205 339 QCURVE SMOOTH",
"193 316 OFFCURVE",
"180 297 QCURVE",
"166 279 OFFCURVE",
"153 264 QCURVE",
"135 246 OFFCURVE",
"147 226 QCURVE SMOOTH",
"151 219 OFFCURVE",
"156 214 QCURVE",
"165 208 OFFCURVE",
"176 208 QCURVE SMOOTH",
"201 208 OFFCURVE",
"225 214 QCURVE",
"245 212 OFFCURVE",
"263 222 QCURVE",
"278 236 OFFCURVE",
"292 255 QCURVE",
"307 271 OFFCURVE",
"328 284 QCURVE SMOOTH",
"347 298 OFFCURVE",
"369 311 QCURVE",
"388 318 OFFCURVE",
"411 322 QCURVE SMOOTH",
"464 328 OFFCURVE",
"516 320 QCURVE SMOOTH",
"568 313 OFFCURVE",
"618 303 QCURVE SMOOTH",
"642 297 OFFCURVE",
"667 287 QCURVE SMOOTH",
"685 278 OFFCURVE",
"701 265 QCURVE",
"737 239 OFFCURVE",
"758 201 QCURVE",
"786 121 OFFCURVE",
"735 54 QCURVE SMOOTH",
"706 17 OFFCURVE",
"665 -3 QCURVE",
"639 -12 OFFCURVE",
"614 -13 QCURVE",
"590 -19 OFFCURVE",
"568 -20 QCURVE",
"541 -23 OFFCURVE",
"514 -21 QCURVE SMOOTH",
"490 -21 OFFCURVE",
"467 -17 QCURVE SMOOTH",
"454 -13 OFFCURVE",
"442 -9 QCURVE",
"430 -10 OFFCURVE",
"420 -8 QCURVE SMOOTH",
"410 -6 OFFCURVE",
"401 -2 QCURVE",
"392 -2 OFFCURVE",
"390 5 QCURVE",
"374 2 OFFCURVE",
"361 15 QCURVE",
"361 23 OFFCURVE",
"356 28 QCURVE",
"347 27 OFFCURVE",
"349 35 QCURVE",
"352 32 OFFCURVE",
"355 32 QCURVE",
"353 39 OFFCURVE",
"346 43 QCURVE SMOOTH",
"340 48 OFFCURVE",
"337 57 QCURVE",
"335 69 OFFCURVE",
"327 78 QCURVE",
"310 86 OFFCURVE",
"293 88 QCURVE SMOOTH",
"274 90 OFFCURVE",
"257 88 QCURVE",
"228 91 OFFCURVE",
"215 70 QCURVE",
"215 39 OFFCURVE",
"243 21 QCURVE",
"269 -6 OFFCURVE",
"302 -26 QCURVE SMOOTH",
"335 -46 OFFCURVE",
"371 -59 QCURVE",
"388 -62 OFFCURVE",
"407 -65 QCURVE",
"412 -69 OFFCURVE",
"419 -72 QCURVE",
"424 -71 OFFCURVE",
"430 -70 QCURVE",
"438 -72 OFFCURVE",
"447 -73 QCURVE SMOOTH",
"456 -73 OFFCURVE",
"465 -72 QCURVE",
"482 -74 OFFCURVE",
"499 -78 QCURVE",
"499 -78 LINE"
);
}
);
};
layerId = "183392FD-C6E4-417A-A3ED-C2291AA3123E";
name = other_1;
paths = (
{
closed = 1;
nodes = (
"45 570 OFFCURVE",
"52 565 OFFCURVE",
"79 565 CURVE SMOOTH",
"850 565 LINE SMOOTH",
"877 565 OFFCURVE",
"884 570 OFFCURVE",
"884 589 CURVE SMOOTH",
"884 608 OFFCURVE",
"877 613 OFFCURVE",
"850 613 CURVE SMOOTH",
"79 613 LINE SMOOTH",
"52 613 OFFCURVE",
"45 608 OFFCURVE",
"45 589 CURVE SMOOTH"
);
},
{
closed = 1;
nodes = (
"407 772 OFFCURVE",
"383 772 OFFCURVE",
"362 772 CURVE SMOOTH",
"341 772 OFFCURVE",
"313 758 OFFCURVE",
"309 741 CURVE SMOOTH",
"305 724 OFFCURVE",
"219 388 OFFCURVE",
"212 348 CURVE SMOOTH",
"205 308 OFFCURVE",
"236 259 OFFCURVE",
"271 259 CURVE SMOOTH",
"366 259 OFFCURVE",
"519 268 OFFCURVE",
"551 268 CURVE SMOOTH",
"638 268 OFFCURVE",
"645 244 OFFCURVE",
"624 221 CURVE SMOOTH",
"603 198 OFFCURVE",
"383 2 OFFCURVE",
"362 -13 CURVE SMOOTH",
"341 -28 OFFCURVE",
"337 -58 OFFCURVE",
"358 -58 CURVE SMOOTH",
"379 -58 OFFCURVE",
"398 -58 OFFCURVE",
"416 -58 CURVE SMOOTH",
"434 -58 OFFCURVE",
"466 -50 OFFCURVE",
"482 -35 CURVE SMOOTH",
"498 -20 OFFCURVE",
"735 173 OFFCURVE",
"780 234 CURVE SMOOTH",
"821 290 OFFCURVE",
"801 310 OFFCURVE",
"716 310 CURVE SMOOTH",
"654 310 OFFCURVE",
"457 310 OFFCURVE",
"396 310 CURVE SMOOTH",
"350 310 OFFCURVE",
"350 348 OFFCURVE",
"365 399 CURVE SMOOTH",
"380 450 OFFCURVE",
"444 692 OFFCURVE",
"453 717 CURVE SMOOTH",
"462 742 OFFCURVE",
"460 772 OFFCURVE",
"442 772 CURVE"
);
}
);
userData = {
assembly = "PUSHB[ ]\011/* 4 values pushed */
148 3 146 0 
CALL[ ]\011/* CallFunction */
SVTCA[0]\011/* SetFreedomAndProjectionVectorToAxis */
PUSHB[ ]\011/* 4 values pushed */
175 58 165 0 
CALL[ ]\011/* CallFunction */
IUP[0]\011/* InterpolateUntPts */
IUP[1]\011/* InterpolateUntPts */";
};
vertWidth = 1000;
width = 929;
},
{
associatedMasterId = "47F7128E-F1A6-4572-9BDC-88462FF34A66";
background = {
paths = (
{
closed = 1;
nodes = (
"522 -74 OFFCURVE",
"547 -73 QCURVE SMOOTH",
"569 -71 OFFCURVE",
"590 -68 QCURVE",
"615 -68 OFFCURVE",
"640 -67 QCURVE",
"661 -63 OFFCURVE",
"682 -58 QCURVE",
"705 -57 OFFCURVE",
"728 -51 QCURVE",
"746 -41 OFFCURVE",
"763 -32 QCURVE",
"803 -20 OFFCURVE",
"838 7 QCURVE",
"896 63 OFFCURVE",
"894 146 QCURVE SMOOTH",
"894 168 OFFCURVE",
"887 191 QCURVE",
"878 208 OFFCURVE",
"867 226 QCURVE SMOOTH",
"845 262 OFFCURVE",
"811 284 QCURVE SMOOTH",
"801 291 OFFCURVE",
"794 300 QCURVE SMOOTH",
"787 306 OFFCURVE",
"778 310 QCURVE",
"771 315 OFFCURVE",
"764 320 QCURVE",
"754 325 OFFCURVE",
"744 328 QCURVE SMOOTH",
"696 346 OFFCURVE",
"646 357 QCURVE",
"632 358 OFFCURVE",
"620 362 QCURVE SMOOTH",
"609 367 OFFCURVE",
"599 370 QCURVE",
"576 373 OFFCURVE",
"553 374 QCURVE",
"506 385 OFFCURVE",
"457 381 QCURVE SMOOTH",
"430 379 OFFCURVE",
"404 378 QCURVE SMOOTH",
"384 377 OFFCURVE",
"366 373 QCURVE",
"355 368 OFFCURVE",
"355 377 QCURVE",
"359 385 OFFCURVE",
"364 393 QCURVE SMOOTH",
"376 411 OFFCURVE",
"390 430 QCURVE",
"416 471 OFFCURVE",
"440 513 QCURVE SMOOTH",
"455 535 OFFCURVE",
"470 560 QCURVE",
"480 579 OFFCURVE",
"497 595 QCURVE",
"532 610 OFFCURVE",
"571 607 QCURVE",
"624 608 OFFCURVE",
"676 608 QCURVE SMOOTH",
"730 607 OFFCURVE",
"784 606 QCURVE SMOOTH",
"810 606 OFFCURVE",
"838 608 QCURVE",
"859 605 OFFCURVE",
"880 615 QCURVE",
"896 627 OFFCURVE",
"885 646 QCURVE",
"873 656 OFFCURVE",
"856 656 QCURVE",
"831 660 OFFCURVE",
"805 663 QCURVE",
"780 663 OFFCURVE",
"756 661 QCURVE SMOOTH",
"741 659 OFFCURVE",
"727 660 QCURVE SMOOTH",
"715 661 OFFCURVE",
"704 659 QCURVE SMOOTH",
"692 656 OFFCURVE",
"681 659 QCURVE",
"670 659 OFFCURVE",
"658 659 QCURVE SMOOTH",
"644 658 OFFCURVE",
"632 656 QCURVE",
"606 656 LINE SMOOTH",
"594 657 OFFCURVE",
"584 658 QCURVE",
"573 656 OFFCURVE",
"562 656 QCURVE",
"562 659 OFFCURVE",
"559 659 QCURVE",
"559 658 LINE",
"543 653 OFFCURVE",
"533 663 QCURVE",
"553 672 OFFCURVE",
"556 698 QCURVE",
"575 725 OFFCURVE",
"593 752 QCURVE",
"598 785 OFFCURVE",
"563 792 QCURVE SMOOTH",
"539 797 OFFCURVE",
"516 796 QCURVE",
"497 798 OFFCURVE",
"480 791 QCURVE",
"465 780 OFFCURVE",
"460 763 QCURVE",
"448 745 OFFCURVE",
"436 728 QCURVE SMOOTH",
"416 691 OFFCURVE",
"395 656 QCURVE",
"384 643 OFFCURVE",
"368 647 QCURVE",
"345 648 OFFCURVE",
"324 646 QCURVE SMOOTH",
"280 640 OFFCURVE",
"236 642 QCURVE",
"232 648 OFFCURVE",
"223 644 QCURVE",
"208 640 OFFCURVE",
"191 642 QCURVE SMOOTH",
"173 643 OFFCURVE",
"154 643 QCURVE",
"144 640 OFFCURVE",
"134 641 QCURVE",
"132 643 OFFCURVE",
"129 641 QCURVE SMOOTH",
"126 639 OFFCURVE",
"123 639 QCURVE SMOOTH",
"90 642 OFFCURVE",
"60 635 QCURVE",
"40 614 OFFCURVE",
"67 599 QCURVE",
"97 588 OFFCURVE",
"130 595 QCURVE",
"167 596 OFFCURVE",
"206 595 QCURVE SMOOTH",
"245 594 OFFCURVE",
"285 595 QCURVE",
"322 599 OFFCURVE",
"361 601 QCURVE",
"340 553 OFFCURVE",
"310 511 QCURVE SMOOTH",
"280 464 OFFCURVE",
"254 416 QCURVE",
"244 395 OFFCURVE",
"229 375 QCURVE SMOOTH",
"215 357 OFFCURVE",
"205 339 QCURVE SMOOTH",
"193 316 OFFCURVE",
"180 297 QCURVE",
"166 279 OFFCURVE",
"153 264 QCURVE",
"135 246 OFFCURVE",
"147 226 QCURVE SMOOTH",
"151 219 OFFCURVE",
"156 214 QCURVE",
"165 208 OFFCURVE",
"176 208 QCURVE SMOOTH",
"201 208 OFFCURVE",
"225 214 QCURVE",
"245 212 OFFCURVE",
"263 222 QCURVE",
"278 236 OFFCURVE",
"292 255 QCURVE",
"307 271 OFFCURVE",
"328 284 QCURVE SMOOTH",
"347 298 OFFCURVE",
"369 311 QCURVE",
"388 318 OFFCURVE",
"411 322 QCURVE SMOOTH",
"464 328 OFFCURVE",
"516 320 QCURVE SMOOTH",
"568 313 OFFCURVE",
"618 303 QCURVE SMOOTH",
"642 297 OFFCURVE",
"667 287 QCURVE SMOOTH",
"685 278 OFFCURVE",
"701 265 QCURVE",
"737 239 OFFCURVE",
"758 201 QCURVE",
"786 121 OFFCURVE",
"735 54 QCURVE SMOOTH",
"706 17 OFFCURVE",
"665 -3 QCURVE",
"639 -12 OFFCURVE",
"614 -13 QCURVE",
"590 -19 OFFCURVE",
"568 -20 QCURVE",
"541 -23 OFFCURVE",
"514 -21 QCURVE SMOOTH",
"490 -21 OFFCURVE",
"467 -17 QCURVE SMOOTH",
"454 -13 OFFCURVE",
"442 -9 QCURVE",
"430 -10 OFFCURVE",
"420 -8 QCURVE SMOOTH",
"410 -6 OFFCURVE",
"401 -2 QCURVE",
"392 -2 OFFCURVE",
"390 5 QCURVE",
"374 2 OFFCURVE",
"361 15 QCURVE",
"361 23 OFFCURVE",
"356 28 QCURVE",
"347 27 OFFCURVE",
"349 35 QCURVE",
"352 32 OFFCURVE",
"355 32 QCURVE",
"353 39 OFFCURVE",
"346 43 QCURVE SMOOTH",
"340 48 OFFCURVE",
"337 57 QCURVE",
"335 69 OFFCURVE",
"327 78 QCURVE",
"310 86 OFFCURVE",
"293 88 QCURVE SMOOTH",
"274 90 OFFCURVE",
"257 88 QCURVE",
"228 91 OFFCURVE",
"215 70 QCURVE",
"215 39 OFFCURVE",
"243 21 QCURVE",
"269 -6 OFFCURVE",
"302 -26 QCURVE SMOOTH",
"335 -46 OFFCURVE",
"371 -59 QCURVE",
"388 -62 OFFCURVE",
"407 -65 QCURVE",
"412 -69 OFFCURVE",
"419 -72 QCURVE",
"424 -71 OFFCURVE",
"430 -70 QCURVE",
"438 -72 OFFCURVE",
"447 -73 QCURVE SMOOTH",
"456 -73 OFFCURVE",
"465 -72 QCURVE",
"482 -74 OFFCURVE",
"499 -78 QCURVE",
"499 -78 LINE"
);
}
);
};
layerId = "4032D799-8DBA-4A7E-83FE-70652307A6F8";
name = other_2;
paths = (
{
closed = 1;
nodes = (
"45 570 OFFCURVE",
"52 565 OFFCURVE",
"79 565 CURVE SMOOTH",
"850 565 LINE SMOOTH",
"877 565 OFFCURVE",
"884 570 OFFCURVE",
"884 589 CURVE SMOOTH",
"884 608 OFFCURVE",
"877 613 OFFCURVE",
"850 613 CURVE SMOOTH",
"79 613 LINE SMOOTH",
"52 613 OFFCURVE",
"45 608 OFFCURVE",
"45 589 CURVE SMOOTH"
);
},
{
closed = 1;
nodes = (
"407 772 OFFCURVE",
"383 772 OFFCURVE",
"362 772 CURVE SMOOTH",
"341 772 OFFCURVE",
"313 758 OFFCURVE",
"309 741 CURVE SMOOTH",
"305 724 OFFCURVE",
"219 388 OFFCURVE",
"212 348 CURVE SMOOTH",
"205 308 OFFCURVE",
"236 269 OFFCURVE",
"271 269 CURVE SMOOTH",
"517 269 OFFCURVE",
"654 227 OFFCURVE",
"654 153 CURVE SMOOTH",
"654 52 OFFCURVE",
"383 2 OFFCURVE",
"362 -13 CURVE SMOOTH",
"341 -28 OFFCURVE",
"337 -58 OFFCURVE",
"358 -58 CURVE SMOOTH",
"379 -58 OFFCURVE",
"398 -58 OFFCURVE",
"416 -58 CURVE SMOOTH",
"503 -58 OFFCURVE",
"796 26 OFFCURVE",
"796 191 CURVE SMOOTH",
"796 276 OFFCURVE",
"457 310 OFFCURVE",
"396 310 CURVE SMOOTH",
"350 310 OFFCURVE",
"350 348 OFFCURVE",
"365 399 CURVE SMOOTH",
"380 450 OFFCURVE",
"444 692 OFFCURVE",
"453 717 CURVE SMOOTH",
"462 742 OFFCURVE",
"460 772 OFFCURVE",
"442 772 CURVE"
);
}
);
userData = {
assembly = "PUSHB[ ]\011/* 4 values pushed */
148 3 146 0 
CALL[ ]\011/* CallFunction */
SVTCA[0]\011/* SetFreedomAndProjectionVectorToAxis */
PUSHB[ ]\011/* 4 values pushed */
175 58 165 0 
CALL[ ]\011/* CallFunction */
IUP[0]\011/* InterpolateUntPts */
IUP[1]\011/* InterpolateUntPts */";
};
vertWidth = 1000;
width = 929;
}
);
note = uni3061;
unicode = 3061;
},
{
color = 0;
glyphname = "tu-hira";
lastChange = "2019-12-12 01:48:57 +0000";
layers = (
{
layerId = "47F7128E-F1A6-4572-9BDC-88462FF34A66";
paths = (
{
closed = 1;
nodes = (
"299 624 OFFCURVE",
"228 612 OFFCURVE",
"116 584 CURVE SMOOTH",
"55 569 OFFCURVE",
"45 546 OFFCURVE",
"45 538 CURVE SMOOTH",
"45 526 OFFCURVE",
"54 511 OFFCURVE",
"117 522 CURVE SMOOTH",
"252 546 OFFCURVE",
"394 562 OFFCURVE",
"480 562 CURVE SMOOTH",
"621 562 OFFCURVE",
"689 471 OFFCURVE",
"689 370 CURVE SMOOTH",
"689 217 OFFCURVE",
"523 111 OFFCURVE",
"384 111 CURVE SMOOTH",
"358 111 OFFCURVE",
"325 99 OFFCURVE",
"325 88 CURVE SMOOTH",
"325 77 OFFCURVE",
"358 58 OFFCURVE",
"422 58 CURVE SMOOTH",
"486 58 OFFCURVE",
"805 100 OFFCURVE",
"805 337 CURVE SMOOTH",
"805 572 OFFCURVE",
"654 624 OFFCURVE",
"394 624 CURVE SMOOTH"
);
}
);
userData = {
assembly = "SVTCA[0]\011/* SetFreedomAndProjectionVectorToAxis */
IUP[0]\011/* InterpolateUntPts */
IUP[1]\011/* InterpolateUntPts */";
};
vertWidth = 1000;
width = 850;
}
);
note = uni3064;
unicode = 3064;
},
{
color = 0;
glyphname = "tusmall-hira";
lastChange = "2019-12-12 01:48:58 +0000";
layers = (
{
layerId = "47F7128E-F1A6-4572-9BDC-88462FF34A66";
paths = (
{
closed = 1;
nodes = (
"226 441 OFFCURVE",
"170 431 OFFCURVE",
"104 411 CURVE SMOOTH",
"71 401 OFFCURVE",
"45 383 OFFCURVE",
"45 371 CURVE SMOOTH",
"45 354 OFFCURVE",
"69 338 OFFCURVE",
"104 354 CURVE SMOOTH",
"157 378 OFFCURVE",
"196 384 OFFCURVE",
"331 384 CURVE SMOOTH",
"398 384 OFFCURVE",
"461 349 OFFCURVE",
"461 279 CURVE SMOOTH",
"461 170 OFFCURVE",
"358 91 OFFCURVE",
"258 91 CURVE SMOOTH",
"236 91 OFFCURVE",
"224 70 OFFCURVE",
"224 63 CURVE SMOOTH",
"224 56 OFFCURVE",
"235 40 OFFCURVE",
"287 40 CURVE SMOOTH",
"339 40 OFFCURVE",
"568 88 OFFCURVE",
"568 256 CURVE SMOOTH",
"568 396 OFFCURVE",
"471 441 OFFCURVE",
"315 441 CURVE SMOOTH"
);
}
);
userData = {
assembly = "SVTCA[0]\011/* SetFreedomAndProjectionVectorToAxis */
IUP[0]\011/* InterpolateUntPts */
IUP[1]\011/* InterpolateUntPts */";
};
vertWidth = 1000;
width = 613;
}
);
note = uni3063;
unicode = 3063;
},
{
color = 0;
glyphname = "te-hira";
lastChange = "2019-12-12 01:49:00 +0000";
layers = (
{
layerId = "47F7128E-F1A6-4572-9BDC-88462FF34A66";
paths = (
{
closed = 1;
nodes = (
"589 697 OFFCURVE",
"123 697 OFFCURVE",
"96 697 CURVE SMOOTH",
"69 697 OFFCURVE",
"45 693 OFFCURVE",
"45 677 CURVE SMOOTH",
"45 661 OFFCURVE",
"57 642 OFFCURVE",
"85 642 CURVE SMOOTH",
"113 642 OFFCURVE",
"462 644 OFFCURVE",
"491 644 CURVE SMOOTH",
"520 644 OFFCURVE",
"557 640 OFFCURVE",
"511 620 CURVE SMOOTH",
"343 547 OFFCURVE",
"269 421 OFFCURVE",
"269 282 CURVE SMOOTH",
"269 143 OFFCURVE",
"385 13 OFFCURVE",
"565 13 CURVE SMOOTH",
"650 13 OFFCURVE",
"669 30 OFFCURVE",
"669 49 CURVE SMOOTH",
"669 68 OFFCURVE",
"597 69 OFFCURVE",
"558 69 CURVE SMOOTH",
"453 69 OFFCURVE",
"390 152 OFFCURVE",
"390 268 CURVE SMOOTH",
"390 387 OFFCURVE",
"462 501 OFFCURVE",
"749 651 CURVE",
"778 675 OFFCURVE",
"797 697 OFFCURVE",
"749 697 CURVE",
"659 697 LINE"
);
}
);
userData = {
assembly = "SVTCA[0]\011/* SetFreedomAndProjectionVectorToAxis */
IUP[0]\011/* InterpolateUntPts */
IUP[1]\011/* InterpolateUntPts */";
};
vertWidth = 1000;
width = 823;
}
);
note = uni3066;
unicode = 3066;
},
{
color = 0;
glyphname = "to-hira";
lastChange = "2019-12-12 01:49:02 +0000";
layers = (
{
layerId = "47F7128E-F1A6-4572-9BDC-88462FF34A66";
paths = (
{
closed = 1;
nodes = (
"171 749 OFFCURVE",
"155 749 OFFCURVE",
"138 749 CURVE SMOOTH",
"125 749 OFFCURVE",
"107 748 OFFCURVE",
"103 731 CURVE SMOOTH",
"102 727 OFFCURVE",
"102 722 OFFCURVE",
"104 715 CURVE SMOOTH",
"113 684 OFFCURVE",
"245 396 OFFCURVE",
"252 374 CURVE",
"360 440 LINE",
"346 476 OFFCURVE",
"254 686 OFFCURVE",
"244 709 CURVE SMOOTH",
"236 728 OFFCURVE",
"225 749 OFFCURVE",
"205 749 CURVE"
);
},
{
closed = 1;
nodes = (
"676 598 OFFCURVE",
"539 548 CURVE SMOOTH",
"313 465 OFFCURVE",
"45 348 OFFCURVE",
"45 216 CURVE SMOOTH",
"45 102 OFFCURVE",
"91 19 OFFCURVE",
"416 19 CURVE SMOOTH",
"741 19 OFFCURVE",
"760 52 OFFCURVE",
"760 69 CURVE SMOOTH",
"760 73 OFFCURVE",
"749 85 OFFCURVE",
"731 85 CURVE SMOOTH",
"676 85 OFFCURVE",
"557 71 OFFCURVE",
"467 71 CURVE SMOOTH",
"346 71 OFFCURVE",
"188 91 OFFCURVE",
"188 199 CURVE SMOOTH",
"188 308 OFFCURVE",
"241 361 OFFCURVE",
"613 514 CURVE SMOOTH",
"749 570 OFFCURVE",
"757 587 OFFCURVE",
"753 596 CURVE SMOOTH",
"743 617 OFFCURVE"
);
}
);
userData = {
assembly = "SVTCA[0]\011/* SetFreedomAndProjectionVectorToAxis */
PUSHB[ ]\011/* 4 values pushed */
116 64 89 0 
CALL[ ]\011/* CallFunction */
IUP[0]\011/* InterpolateUntPts */
IUP[1]\011/* InterpolateUntPts */";
};
vertWidth = 1000;
width = 805;
}
);
note = uni3068;
unicode = 3068;
},
{
color = 0;
glyphname = "na-hira";
lastChange = "2019-12-12 01:49:03 +0000";
layers = (
{
layerId = "47F7128E-F1A6-4572-9BDC-88462FF34A66";
paths = (
{
closed = 1;
nodes = (
"45 571 OFFCURVE",
"52 565 OFFCURVE",
"79 565 CURVE SMOOTH",
"449 565 LINE SMOOTH",
"476 565 OFFCURVE",
"483 571 OFFCURVE",
"483 594 CURVE SMOOTH",
"483 616 OFFCURVE",
"476 622 OFFCURVE",
"449 622 CURVE SMOOTH",
"79 622 LINE SMOOTH",
"52 622 OFFCURVE",
"45 616 OFFCURVE",
"45 594 CURVE SMOOTH"
);
},
{
closed = 1;
nodes = (
"161 747 LINE SMOOTH",
"144 747 OFFCURVE",
"140 743 OFFCURVE",
"137 727 CURVE SMOOTH",
"57 342 LINE SMOOTH",
"49 301 OFFCURVE",
"58 291 OFFCURVE",
"101 291 CURVE SMOOTH",
"160 291 LINE SMOOTH",
"178 291 OFFCURVE",
"182 295 OFFCURVE",
"185 311 CURVE SMOOTH",
"266 696 LINE SMOOTH",
"275 737 OFFCURVE",
"265 747 OFFCURVE",
"221 747 CURVE SMOOTH"
);
},
{
closed = 1;
nodes = (
"638 690 LINE SMOOTH",
"570 690 OFFCURVE",
"566 678 OFFCURVE",
"597 620 CURVE SMOOTH",
"685 453 LINE SMOOTH",
"690 443 OFFCURVE",
"695 442 OFFCURVE",
"707 442 CURVE SMOOTH",
"753 442 LINE SMOOTH",
"802 442 OFFCURVE",
"798 454 OFFCURVE",
"769 511 CURVE SMOOTH",
"685 678 LINE SMOOTH",
"680 688 OFFCURVE",
"675 690 OFFCURVE",
"662 690 CURVE SMOOTH"
);
},
{
closed = 1;
nodes = (
"774 236 OFFCURVE",
"743 246 CURVE SMOOTH",
"605 290 OFFCURVE",
"467 321 OFFCURVE",
"446 321 CURVE SMOOTH",
"263 321 OFFCURVE",
"184 294 OFFCURVE",
"184 166 CURVE SMOOTH",
"184 59 OFFCURVE",
"213 23 OFFCURVE",
"370 23 CURVE SMOOTH",
"597 23 OFFCURVE",
"619 96 OFFCURVE",
"619 245 CURVE SMOOTH",
"619 384 OFFCURVE",
"614 428 OFFCURVE",
"614 451 CURVE SMOOTH",
"614 474 OFFCURVE",
"597 479 OFFCURVE",
"573 479 CURVE",
"549 479 OFFCURVE",
"528 479 OFFCURVE",
"512 479 CURVE SMOOTH",
"496 479 OFFCURVE",
"466 467 OFFCURVE",
"466 442 CURVE SMOOTH",
"466 417 OFFCURVE",
"473 220 OFFCURVE",
"473 174 CURVE SMOOTH",
"473 112 OFFCURVE",
"454 72 OFFCURVE",
"374 72 CURVE SMOOTH",
"334 72 OFFCURVE",
"310 83 OFFCURVE",
"310 140 CURVE SMOOTH",
"310 241 OFFCURVE",
"350 271 OFFCURVE",
"434 271 CURVE SMOOTH",
"438 271 OFFCURVE",
"631 233 OFFCURVE",
"703 212 CURVE SMOOTH",
"799 184 OFFCURVE"
);
}
);
userData = {
assembly = "SVTCA[0]\011/* SetFreedomAndProjectionVectorToAxis */
PUSHB[ ]\011/* 4 values pushed */
227 52 124 0 
CALL[ ]\011/* CallFunction */
IUP[0]\011/* InterpolateUntPts */
IUP[1]\011/* InterpolateUntPts */";
};
vertWidth = 1000;
width = 835;
}
);
note = uni306A;
unicode = 306A;
},
{
color = 0;
glyphname = "ni-hira";
lastChange = "2019-12-12 01:49:04 +0000";
layers = (
{
layerId = "47F7128E-F1A6-4572-9BDC-88462FF34A66";
paths = (
{
closed = 1;
nodes = (
"355 675 LINE SMOOTH",
"314 675 OFFCURVE",
"282 675 OFFCURVE",
"282 650 CURVE SMOOTH",
"282 625 OFFCURVE",
"321 625 OFFCURVE",
"357 625 CURVE SMOOTH",
"393 625 OFFCURVE",
"494 630 OFFCURVE",
"568 630 CURVE SMOOTH",
"586 630 OFFCURVE",
"598 628 OFFCURVE",
"598 618 CURVE SMOOTH",
"598 609 OFFCURVE",
"588 593 OFFCURVE",
"561 566 CURVE SMOOTH",
"549 554 OFFCURVE",
"542 542 OFFCURVE",
"542 533 CURVE SMOOTH",
"542 520 OFFCURVE",
"556 511 OFFCURVE",
"590 511 CURVE SMOOTH",
"627 511 OFFCURVE",
"645 521 OFFCURVE",
"669 548 CURVE",
"726 629 LINE SMOOTH",
"734 641 OFFCURVE",
"739 650 OFFCURVE",
"739 656 CURVE SMOOTH",
"739 671 OFFCURVE",
"718 675 OFFCURVE",
"669 675 CURVE SMOOTH"
);
},
{
closed = 1;
nodes = (
"386 315 LINE SMOOTH",
"338 315 OFFCURVE",
"302 250 OFFCURVE",
"302 178 CURVE SMOOTH",
"302 121 OFFCURVE",
"376 65 OFFCURVE",
"448 65 CURVE SMOOTH",
"706 65 LINE SMOOTH",
"722 65 OFFCURVE",
"761 71 OFFCURVE",
"761 87 CURVE SMOOTH",
"761 103 OFFCURVE",
"743 113 OFFCURVE",
"722 113 CURVE SMOOTH",
"531 113 LINE SMOOTH",
"488 113 OFFCURVE",
"424 142 OFFCURVE",
"424 199 CURVE SMOOTH",
"424 248 OFFCURVE",
"475 288 OFFCURVE",
"475 305 CURVE SMOOTH",
"475 312 OFFCURVE",
"469 315 OFFCURVE",
"450 315 CURVE SMOOTH"
);
},
{
closed = 1;
nodes = (
"83 749 LINE SMOOTH",
"73 749 OFFCURVE",
"45 740 OFFCURVE",
"45 713 CURVE SMOOTH",
"45 83 LINE SMOOTH",
"45 54 OFFCURVE",
"56 33 OFFCURVE",
"74 33 CURVE SMOOTH",
"214 33 LINE SMOOTH",
"223 33 OFFCURVE",
"252 39 OFFCURVE",
"252 49 CURVE SMOOTH",
"252 59 OFFCURVE",
"229 72 OFFCURVE",
"213 72 CURVE SMOOTH",
"169 72 OFFCURVE",
"156 79 OFFCURVE",
"156 106 CURVE SMOOTH",
"156 715 LINE SMOOTH",
"156 730 OFFCURVE",
"153 749 OFFCURVE",
"144 749 CURVE SMOOTH"
);
}
);
userData = {
assembly = "SVTCA[0]\011/* SetFreedomAndProjectionVectorToAxis */
IUP[0]\011/* InterpolateUntPts */
IUP[1]\011/* InterpolateUntPts */";
};
vertWidth = 1000;
width = 806;
}
);
note = uni306B;
unicode = 306B;
},
